<svg xmlns="http://www.w3.org/2000/svg" width="405.149" height="405.149" viewBox="0 0 405.149 405.149">
  <g id="email-blue" transform="translate(-0.856 -0.856)">
    <path id="Path_12" data-name="Path 12" d="M22.32,203.43A181.111,181.111,0,1,1,203.43,384.541,181.111,181.111,0,0,1,22.32,203.43ZM203.43,1C91.631,1,1,91.631,1,203.43S91.631,405.861,203.43,405.861,405.861,315.23,405.861,203.43,315.23,1,203.43,1ZM177.9,219.619c-5.6,1.868-73.471,52.3-77.829,57.282l24.9,1.245c17.452,0,36.359.2,55.686.4,39.973.42,81.745.858,116.16-.4l10.585-.622c-2.491-3.736-68.49-54.169-76.584-57.9-3.736,2.075-11.346,9.685-17.849,16.188-3.251,3.252-6.226,6.227-8.3,8.094-4.875-1.874-10.652-8.039-16.245-14.007C184.737,225.952,181.122,222.1,177.9,219.619Zm135.733-81.565c-3.736,1.868-70.98,66-75.338,74.093l75.338,55.414c.843-24.453.545-57.186.264-87.952C313.766,164.94,313.636,150.718,313.636,138.054ZM133.073,174.167c-4.981-5.6-33-34.868-39.226-36.736l-.623,130.753c4.383-1.826,24.833-17.149,44.009-31.517,13.515-10.126,26.4-19.779,32.574-23.9-1.172-2.052-1.241-2.31-1.375-2.528-.15-.245-.383-.439-2.36-3.076Zm-12.585-25.334c2.167,2.006,4.408,4.081,6.981,6.655l76.584,75.961c2.675-2.676,5.419-5.351,8.185-8.049,5.6-5.464,11.3-11.021,16.72-16.856,8.717-8.1,18.057-16.811,25.528-24.906l37.981-37.358c1.163-1.163,2.3-2.246,3.394-3.288,4.171-3.974,7.708-7.344,9.681-12.277l-202.978.622c1.625,3.656,3.515,5.457,6.362,8.17,1.516,1.444,3.3,3.148,5.468,5.528C116.5,145.142,118.462,146.957,120.488,148.833Zm-1.735,139.275c-16.812,0-30.509,0-33.623-17.433-2.308-12.465-1.536-54.024-.982-83.817.193-10.39.36-19.348.36-25.144,0-43.731,4.922-43.661,43.643-43.107,4.832.069,10.189.146,16.129.146H288.108c16.189,0,30.509,0,33.622,18.056,2.317,12.044,1.531,54.419.977,84.3-.191,10.281-.354,19.083-.354,24.661,0,43.1-3.924,43.047-42.676,42.489-4.911-.071-10.381-.15-16.474-.15Z" fill="#54b329" fill-rule="evenodd"/>
    <path id="Path_13" data-name="Path 13" d="M100.074,276.9l-.109-.1-.2.224.3.015ZM177.9,219.619l.087-.114-.06-.047-.073.024Zm-52.924,58.527-.007.144h.007Zm55.686.4,0-.143Zm116.16-.4,0,.144h0Zm10.585-.622.008.143.251-.015-.139-.208Zm-76.584-57.9.061-.131-.067-.03-.064.035Zm-17.849,16.188.1.1Zm-8.3,8.094-.052.135.082.031.066-.059Zm-16.245-14.007.1-.1ZM238.3,212.147l-.127-.068-.059.11.1.074Zm75.338-74.093h.144v-.233l-.208.1Zm0,129.507-.085.116.22.162.009-.273Zm.264-87.952h0ZM93.847,137.431l.041-.137-.184-.056v.193Zm39.226,36.736-.108.095.006.006ZM93.225,268.184h-.144v.217l.2-.083Zm44.009-31.517.086.115Zm32.574-23.9.08.12.112-.075-.067-.117Zm-1.375-2.528.123-.075Zm-2.36-3.076.115-.086-.006-.008-.008-.008Zm-38.6-51.678-.1.1h0Zm-6.981-6.655.1-.1Zm83.565,82.616-.1.1.1.1.1-.1Zm8.185-8.049.1.1Zm16.72-16.856-.1-.106-.007.008Zm25.528-24.906-.1-.1,0,.005Zm37.981-37.358.1.1h0Zm3.394-3.288.1.1Zm9.681-12.277.134.053.079-.2h-.213Zm-202.978.622v-.144h-.221l.09.2Zm6.362,8.17-.1.1Zm5.468,5.528-.107.1,0,0ZM85.13,270.675l.142-.026h0Zm-.982-83.817-.144,0Zm44-68.251,0,.144Zm193.579,18.2-.141.024v0Zm.977,84.3-.144,0Zm-43.03,67.15,0-.144ZM203.43,22.176A181.254,181.254,0,0,0,22.176,203.43h.288A180.966,180.966,0,0,1,203.43,22.464ZM384.685,203.43A181.254,181.254,0,0,0,203.43,22.176v.288A180.966,180.966,0,0,1,384.4,203.43ZM203.43,384.685A181.254,181.254,0,0,0,384.685,203.43H384.4A180.966,180.966,0,0,1,203.43,384.4ZM22.176,203.43A181.254,181.254,0,0,0,203.43,384.685V384.4A180.966,180.966,0,0,1,22.464,203.43Zm-21.032,0C1.144,91.711,91.711,1.144,203.43,1.144V.856C91.552.856.856,91.552.856,203.43ZM203.43,405.717C91.711,405.717,1.144,315.15,1.144,203.43H.856c0,111.879,90.7,202.575,202.574,202.575ZM405.717,203.43c0,111.72-90.567,202.287-202.287,202.287v.288c111.879,0,202.575-90.7,202.575-202.575ZM203.43,1.144c111.72,0,202.287,90.567,202.287,202.286h.288C406.005,91.552,315.309.856,203.43.856ZM100.182,277a48.586,48.586,0,0,1,4.348-3.8c2.283-1.859,5.312-4.244,8.843-6.972,7.062-5.457,16.128-12.286,25.234-19.018s18.249-13.366,25.466-18.434c3.609-2.533,6.735-4.675,9.134-6.241,1.2-.784,2.216-1.422,3.019-1.894a11.193,11.193,0,0,1,1.722-.884l-.091-.273a11.363,11.363,0,0,0-1.777.909c-.809.475-1.829,1.116-3.03,1.9-2.4,1.568-5.532,3.712-9.142,6.247-7.22,5.069-16.366,11.705-25.472,18.438S120.261,260.539,113.2,266c-3.532,2.729-6.563,5.116-8.849,6.977a48.626,48.626,0,0,0-4.383,3.831Zm24.8,1.006-24.9-1.245-.015.288,24.906,1.245Zm55.681.4c-19.328-.2-38.235-.4-55.688-.4v.288c17.451,0,36.357.2,55.685.4ZM296.82,278c-34.412,1.259-76.179.821-116.153.4l0,.287c39.972.42,81.747.858,116.166-.4Zm10.581-.622L296.817,278l.017.287,10.584-.623Zm-76.635-57.631a51.118,51.118,0,0,1,5.492,3.4c2.583,1.742,5.833,4.032,9.515,6.688,7.363,5.311,16.449,12.081,25.359,18.852s17.647,13.541,24.31,18.852c3.331,2.655,6.144,4.945,8.2,6.688,1.029.871,1.868,1.6,2.488,2.178a9.153,9.153,0,0,1,1.159,1.2l.24-.159a9.289,9.289,0,0,0-1.2-1.251c-.624-.578-1.467-1.314-2.5-2.187-2.06-1.745-4.876-4.037-8.208-6.693-6.665-5.313-15.4-12.085-24.315-18.856s-18-13.544-25.365-18.857c-3.683-2.656-6.936-4.948-9.522-6.693a51.168,51.168,0,0,0-5.532-3.419Zm-17.687,16.16c3.252-3.252,6.779-6.778,9.959-9.751a50.079,50.079,0,0,1,7.858-6.413l-.14-.252a50.355,50.355,0,0,0-7.915,6.455c-3.184,2.976-6.714,6.506-9.965,9.757Zm-8.307,8.1c2.079-1.871,5.057-4.849,8.307-8.1l-.2-.2c-3.253,3.253-6.225,6.225-8.3,8.089Zm-16.446-14.015c2.8,2.983,5.642,6.02,8.4,8.546a27.379,27.379,0,0,0,7.9,5.5l.1-.269a27.12,27.12,0,0,1-7.807-5.44c-2.748-2.517-5.587-5.546-8.384-8.531Zm-10.511-10.26c3.208,2.468,6.814,6.314,10.511,10.26l.21-.2c-3.692-3.939-7.314-7.806-10.546-10.291Zm60.609-7.518a38.518,38.518,0,0,1,4.316-5.4c2.262-2.53,5.259-5.7,8.746-9.294,6.974-7.178,15.9-16.01,24.815-24.649s17.8-17.082,24.7-23.483c3.449-3.2,6.4-5.889,8.6-7.836,1.1-.974,2.017-1.761,2.714-2.334.348-.286.641-.518.876-.693a3.909,3.909,0,0,1,.511-.34l-.129-.258a4.274,4.274,0,0,0-.554.368c-.24.178-.537.413-.887.7-.7.576-1.618,1.366-2.721,2.34-2.206,1.95-5.157,4.64-8.606,7.841-6.9,6.4-15.792,14.848-24.7,23.487s-17.844,17.475-24.82,24.656c-3.489,3.59-6.489,6.768-8.754,9.3a38.5,38.5,0,0,0-4.355,5.459Zm75.3,55.231-75.338-55.415-.17.232,75.338,55.414Zm.035-87.836c.281,30.768.579,63.5-.264,87.946l.288.01c.843-24.457.545-57.193.264-87.958Zm-.264-41.556c0,12.665.13,26.888.264,41.556l.288,0c-.134-14.669-.264-28.89-.264-41.554Zm-219.686-.485a12.768,12.768,0,0,1,3.226,1.864c1.367.987,2.988,2.3,4.776,3.847,3.577,3.091,7.816,7.1,12.018,11.221,8.4,8.248,16.652,16.963,19.139,19.761l.216-.191c-2.494-2.8-10.746-11.524-19.153-19.776-4.2-4.125-8.448-8.136-12.031-11.233-1.792-1.548-3.42-2.869-4.8-3.862a13,13,0,0,0-3.312-1.906Zm-.437,130.616.623-130.753H93.7l-.623,130.752Zm43.779-31.633c-9.588,7.184-19.494,14.606-27.55,20.46-4.028,2.928-7.593,5.462-10.424,7.378a45.645,45.645,0,0,1-6,3.661l.111.266a45.692,45.692,0,0,0,6.054-3.688c2.835-1.919,6.4-4.456,10.432-7.384,8.059-5.856,17.966-13.279,27.554-20.463Zm32.581-23.9c-6.182,4.121-19.068,13.777-32.581,23.9l.173.23c13.517-10.128,26.395-19.777,32.568-23.892Zm-1.417-2.333c.063.1.106.208.293.568s.493.929,1.079,1.956l.25-.143c-.585-1.024-.9-1.6-1.074-1.946s-.233-.471-.3-.585Zm-2.354-3.064c.99,1.319,1.543,2.027,1.868,2.437s.417.515.486.627l.245-.15c-.081-.133-.187-.255-.505-.656s-.875-1.114-1.863-2.431Zm-32.986-32.985,33,33,.2-.2-33-33Zm-5.4-18.882c-2.576-2.576-4.819-4.652-6.985-6.658l-.2.211c2.167,2.006,4.406,4.079,6.978,6.651Zm76.583,75.961-76.583-75.961-.2.2,76.584,75.961Zm7.984-8.05c-2.766,2.7-5.511,5.374-8.187,8.05l.2.2c2.674-2.675,5.417-5.35,8.184-8.048Zm16.715-16.851c-5.416,5.832-11.111,11.386-16.715,16.851l.2.206c5.6-5.464,11.3-11.023,16.725-16.862Zm25.527-24.9c-7.467,8.089-16.8,16.8-25.52,24.9l.2.211c8.716-8.093,18.06-16.814,25.536-24.913Zm37.986-37.363-37.981,37.358.2.205,37.981-37.358Zm3.395-3.29c-1.093,1.041-2.231,2.126-3.4,3.291l.2.2c1.163-1.162,2.3-2.244,3.392-3.286Zm9.647-12.227c-1.959,4.9-5.472,8.249-9.647,12.227l.2.208c4.167-3.97,7.729-7.361,9.716-12.328Zm-202.843.82,202.977-.622v-.288l-202.978.622Zm6.46,7.921c-2.846-2.711-4.717-4.495-6.329-8.123l-.263.117c1.637,3.684,3.546,5.5,6.394,8.215Zm5.476,5.536c-2.168-2.384-3.959-4.09-5.476-5.536l-.2.209c1.516,1.444,3.3,3.145,5.461,5.521Zm6.085,5.79c-2.027-1.877-3.986-3.69-6.09-5.795l-.2.2c2.109,2.109,4.072,3.926,6.1,5.8ZM84.989,270.7a21.844,21.844,0,0,0,4.232,10.144,16.914,16.914,0,0,0,7.534,5.22c5.944,2.19,13.6,2.188,22,2.188v-.288c-8.415,0-16.013,0-21.9-2.17a16.621,16.621,0,0,1-7.41-5.131,21.559,21.559,0,0,1-4.173-10.014ZM84,186.855c-.277,14.9-.608,32.736-.582,48.41s.41,29.188,1.567,35.436l.283-.053c-1.151-6.216-1.536-19.707-1.562-35.384s.305-33.506.582-48.4Zm.36-25.141c0,5.794-.166,14.751-.36,25.141l.288.005c.193-10.388.36-19.349.36-25.146Zm43.789-43.251c-9.677-.138-17.254-.247-23.171.353s-10.2,1.91-13.269,4.63-4.9,6.832-5.973,12.981-1.376,14.354-1.376,25.287h.288c0-10.933.308-19.117,1.372-25.238S88.9,126.32,91.9,123.661s7.21-3.961,13.107-4.559,13.454-.49,23.138-.351Zm16.127.146c-5.938,0-11.295-.077-16.127-.146l0,.288c4.832.069,10.19.145,16.131.145Zm143.828,0H144.28v.287H288.108Zm33.764,18.175a22.532,22.532,0,0,0-4.32-10.5,17.394,17.394,0,0,0-7.679-5.4c-6.022-2.268-13.679-2.266-21.765-2.266v.287c8.1,0,15.7,0,21.664,2.248a17.108,17.108,0,0,1,7.556,5.316,22.26,22.26,0,0,1,4.261,10.373Zm.979,84.327c.277-14.94.612-33,.588-48.841s-.406-29.45-1.567-35.488l-.283.054c1.155,6.006,1.538,19.6,1.562,35.434s-.311,33.895-.588,48.836Zm-.354,24.658c0-5.576.163-14.377.354-24.658l-.288,0c-.191,10.28-.354,19.083-.354,24.663ZM279.675,288.4c9.685.139,17.206.248,23.033-.343s9.989-1.883,12.936-4.566,4.657-6.739,5.633-12.8,1.22-14.15,1.22-24.925h-.288c0,10.777-.245,18.844-1.217,24.879s-2.665,10.012-5.542,12.632-6.963,3.9-12.771,4.493-13.308.48-23,.341Zm-16.472-.15c6.092,0,11.561.079,16.472.15l0-.288c-4.911-.071-10.382-.15-16.476-.15Zm-144.45,0H263.2v-.288H118.753Z" fill="#54b329"/>
  </g>
</svg>
