<svg width="406" height="406" viewBox="0 0 406 406" fill="none" xmlns="http://www.w3.org/2000/svg">
<path fill-rule="evenodd" clip-rule="evenodd" d="M22.2446 203.355C22.2446 103.331 103.331 22.2446 203.355 22.2446C303.38 22.2446 384.466 103.331 384.466 203.355C384.466 303.38 303.38 384.466 203.355 384.466C103.331 384.466 22.2446 303.38 22.2446 203.355ZM203.355 0.924839C91.556 0.924839 0.924839 91.556 0.924839 203.355C0.924839 315.154 91.556 405.786 203.355 405.786C315.154 405.786 405.786 315.154 405.786 203.355C405.786 91.556 315.154 0.924839 203.355 0.924839ZM177.827 219.544C172.224 221.412 104.357 271.845 99.9984 276.826L124.904 278.071C142.356 278.071 161.263 278.269 180.59 278.472C220.563 278.892 262.334 279.33 296.75 278.071L307.335 277.448C304.844 273.713 238.845 223.279 230.751 219.544C227.015 221.619 219.405 229.229 212.902 235.732C209.651 238.984 206.676 241.958 204.601 243.826C199.726 241.952 193.949 235.787 188.356 229.819C184.661 225.877 181.047 222.021 177.827 219.544ZM313.561 137.979C309.825 139.847 242.581 203.978 238.223 212.072L313.561 267.486C314.404 243.033 314.106 210.3 313.825 179.534C313.691 164.865 313.561 150.643 313.561 137.979ZM132.998 174.092C128.017 168.488 99.9984 139.224 93.7721 137.356L93.1495 268.109C97.5322 266.283 117.982 250.96 137.158 236.592C150.673 226.465 163.555 216.813 169.733 212.695C168.561 210.643 168.492 210.385 168.358 210.167C168.208 209.922 167.975 209.727 165.997 207.091L132.998 174.092ZM120.413 148.758C122.579 150.764 124.821 152.839 127.394 155.413L203.978 231.374C206.653 228.698 209.397 226.023 212.163 223.325C217.767 217.861 223.464 212.304 228.883 206.468C237.6 198.374 246.939 189.657 254.411 181.563L292.392 144.205C293.555 143.042 294.692 141.958 295.785 140.917C299.957 136.943 303.494 133.573 305.467 128.639L102.489 129.262C104.114 132.918 106.004 134.719 108.851 137.431C110.367 138.876 112.155 140.58 114.319 142.96C116.425 145.066 118.386 146.882 120.413 148.758ZM118.677 288.033C101.866 288.033 88.1684 288.033 85.0553 270.599C82.747 258.135 83.5194 216.576 84.0731 186.783C84.2661 176.393 84.4326 167.434 84.4326 161.639C84.4326 117.907 89.3542 117.978 128.076 118.532C132.908 118.601 138.265 118.677 144.205 118.677H288.033C304.222 118.677 318.542 118.677 321.655 136.734C323.971 148.778 323.186 191.153 322.632 221.033C322.441 231.314 322.278 240.116 322.278 245.694C322.278 288.797 318.354 288.741 279.602 288.183C274.691 288.112 269.221 288.033 263.128 288.033H118.677Z" fill="#ffffff"/>
<path d="M99.9984 276.826L99.8901 276.731L99.6944 276.955L99.9912 276.97L99.9984 276.826ZM177.827 219.544L177.915 219.43L177.854 219.383L177.782 219.407L177.827 219.544ZM124.904 278.071L124.896 278.215H124.904V278.071ZM180.59 278.472L180.591 278.328L180.591 278.328L180.59 278.472ZM296.75 278.071L296.755 278.215L296.758 278.215L296.75 278.071ZM307.335 277.448L307.343 277.592L307.594 277.577L307.454 277.369L307.335 277.448ZM230.751 219.544L230.811 219.413L230.745 219.382L230.681 219.418L230.751 219.544ZM212.902 235.732L213.004 235.834L213.004 235.834L212.902 235.732ZM204.601 243.826L204.549 243.961L204.631 243.992L204.697 243.933L204.601 243.826ZM188.356 229.819L188.461 229.721L188.461 229.721L188.356 229.819ZM238.223 212.072L238.096 212.004L238.037 212.114L238.137 212.188L238.223 212.072ZM313.561 137.979H313.705V137.746L313.497 137.85L313.561 137.979ZM313.561 267.486L313.476 267.602L313.695 267.764L313.705 267.491L313.561 267.486ZM313.825 179.534L313.681 179.535L313.681 179.535L313.825 179.534ZM93.7721 137.356L93.8134 137.218L93.6291 137.163L93.6282 137.356L93.7721 137.356ZM132.998 174.092L132.89 174.187L132.896 174.193L132.998 174.092ZM93.1495 268.109L93.0056 268.108L93.0045 268.325L93.2048 268.242L93.1495 268.109ZM137.158 236.592L137.245 236.707L137.245 236.707L137.158 236.592ZM169.733 212.695L169.813 212.814L169.925 212.74L169.858 212.623L169.733 212.695ZM168.358 210.167L168.481 210.092L168.481 210.092L168.358 210.167ZM165.997 207.091L166.112 207.005L166.106 206.997L166.099 206.989L165.997 207.091ZM127.394 155.413L127.292 155.514L127.293 155.515L127.394 155.413ZM120.413 148.758L120.511 148.653L120.511 148.653L120.413 148.758ZM203.978 231.374L203.877 231.476L203.978 231.577L204.08 231.475L203.978 231.374ZM212.163 223.325L212.264 223.428L212.264 223.428L212.163 223.325ZM228.883 206.468L228.785 206.363L228.778 206.37L228.883 206.468ZM254.411 181.563L254.31 181.46L254.305 181.466L254.411 181.563ZM292.392 144.205L292.492 144.308L292.493 144.307L292.392 144.205ZM295.785 140.917L295.885 141.021L295.885 141.021L295.785 140.917ZM305.467 128.639L305.6 128.693L305.68 128.495L305.466 128.496L305.467 128.639ZM102.489 129.262L102.488 129.118L102.268 129.119L102.357 129.321L102.489 129.262ZM108.851 137.431L108.752 137.536L108.752 137.536L108.851 137.431ZM114.319 142.96L114.212 143.057L114.217 143.062L114.319 142.96ZM85.0553 270.599L85.1969 270.574L85.1968 270.573L85.0553 270.599ZM84.0731 186.783L83.9292 186.78L83.9292 186.78L84.0731 186.783ZM128.076 118.532L128.074 118.676L128.074 118.676L128.076 118.532ZM321.655 136.734L321.513 136.758L321.514 136.761L321.655 136.734ZM322.632 221.033L322.488 221.03L322.488 221.03L322.632 221.033ZM279.602 288.183L279.604 288.039L279.604 288.039L279.602 288.183ZM203.355 22.1007C103.251 22.1007 22.1007 103.251 22.1007 203.355H22.3885C22.3885 103.41 103.41 22.3885 203.355 22.3885V22.1007ZM384.61 203.355C384.61 103.251 303.459 22.1007 203.355 22.1007V22.3885C303.3 22.3885 384.322 103.41 384.322 203.355H384.61ZM203.355 384.61C303.459 384.61 384.61 303.459 384.61 203.355H384.322C384.322 303.3 303.3 384.322 203.355 384.322V384.61ZM22.1007 203.355C22.1007 303.459 103.251 384.61 203.355 384.61V384.322C103.41 384.322 22.3885 303.3 22.3885 203.355H22.1007ZM1.06875 203.355C1.06875 91.6355 91.6355 1.06875 203.355 1.06875V0.780929C91.4765 0.780929 0.780929 91.4765 0.780929 203.355H1.06875ZM203.355 405.642C91.6355 405.642 1.06875 315.075 1.06875 203.355H0.780929C0.780929 315.234 91.4765 405.93 203.355 405.93V405.642ZM405.642 203.355C405.642 315.075 315.075 405.642 203.355 405.642V405.93C315.234 405.93 405.93 315.234 405.93 203.355H405.642ZM203.355 1.06875C315.075 1.06875 405.642 91.6355 405.642 203.355H405.93C405.93 91.4765 315.234 0.780929 203.355 0.780929V1.06875ZM100.107 276.921C100.642 276.309 102.168 274.985 104.455 273.123C106.737 271.264 109.767 268.879 113.298 266.151C120.36 260.694 129.426 253.865 138.531 247.133C147.637 240.401 156.781 233.767 163.998 228.699C167.607 226.165 170.733 224.024 173.132 222.457C174.331 221.674 175.347 221.036 176.151 220.564C176.958 220.09 177.539 219.792 177.873 219.68L177.782 219.407C177.415 219.529 176.81 219.843 176.005 220.316C175.196 220.791 174.176 221.432 172.974 222.217C170.572 223.785 167.443 225.929 163.833 228.464C156.613 233.533 147.467 240.169 138.36 246.902C129.254 253.634 120.186 260.464 113.122 265.923C109.59 268.652 106.558 271.039 104.273 272.899C101.993 274.756 100.445 276.097 99.8901 276.731L100.107 276.921ZM124.911 277.927L100.006 276.682L99.9912 276.97L124.896 278.215L124.911 277.927ZM180.591 278.328C161.264 278.126 142.357 277.927 124.904 277.927V278.215C142.355 278.215 161.261 278.413 180.588 278.616L180.591 278.328ZM296.745 277.927C262.333 279.186 220.566 278.748 180.591 278.328L180.588 278.616C220.561 279.036 262.336 279.474 296.755 278.215L296.745 277.927ZM307.326 277.305L296.742 277.927L296.758 278.215L307.343 277.592L307.326 277.305ZM230.691 219.674C231.69 220.136 233.597 221.325 236.183 223.07C238.765 224.813 242.016 227.103 245.698 229.759C253.061 235.07 262.146 241.84 271.057 248.611C279.968 255.381 288.703 262.152 295.366 267.463C298.698 270.118 301.511 272.408 303.568 274.151C304.597 275.022 305.435 275.756 306.055 276.329C306.68 276.907 307.071 277.312 307.215 277.528L307.454 277.369C307.288 277.118 306.87 276.691 306.251 276.118C305.626 275.54 304.784 274.804 303.754 273.931C301.694 272.186 298.878 269.894 295.546 267.238C288.881 261.925 280.143 255.153 271.231 248.381C262.319 241.61 253.232 234.838 245.866 229.525C242.183 226.869 238.93 224.577 236.344 222.832C233.762 221.089 231.836 219.886 230.811 219.413L230.691 219.674ZM213.004 235.834C216.256 232.582 219.782 229.055 222.963 226.083C226.147 223.106 228.971 220.697 230.821 219.669L230.681 219.418C228.795 220.466 225.946 222.9 222.766 225.872C219.582 228.849 216.052 232.379 212.801 235.63L213.004 235.834ZM204.697 243.933C206.776 242.062 209.754 239.084 213.004 235.834L212.801 235.63C209.548 238.883 206.576 241.855 204.504 243.719L204.697 243.933ZM188.251 229.918C191.046 232.9 193.893 235.938 196.651 238.464C199.406 240.988 202.085 243.013 204.549 243.961L204.652 243.692C202.242 242.765 199.595 240.771 196.845 238.251C194.097 235.734 191.258 232.706 188.461 229.721L188.251 229.918ZM177.74 219.658C180.948 222.126 184.553 225.972 188.251 229.918L188.461 229.721C184.769 225.782 181.146 221.915 177.915 219.43L177.74 219.658ZM238.349 212.14C238.884 211.146 240.399 209.272 242.665 206.737C244.926 204.207 247.924 201.032 251.411 197.443C258.385 190.265 267.315 181.432 276.225 172.794C285.136 164.156 294.027 155.712 300.924 149.311C304.373 146.111 307.322 143.422 309.525 141.475C310.627 140.501 311.542 139.714 312.239 139.141C312.587 138.855 312.88 138.623 313.115 138.448C313.351 138.272 313.521 138.16 313.625 138.108L313.497 137.85C313.368 137.915 313.18 138.041 312.943 138.217C312.703 138.396 312.406 138.631 312.056 138.919C311.355 139.495 310.438 140.285 309.335 141.259C307.129 143.208 304.178 145.899 300.728 149.1C293.83 155.503 284.937 163.948 276.025 172.587C267.113 181.227 258.181 190.062 251.204 197.243C247.716 200.833 244.716 204.011 242.451 206.545C240.19 209.074 238.65 210.974 238.096 212.004L238.349 212.14ZM313.646 267.37L238.308 211.956L238.137 212.188L313.476 267.602L313.646 267.37ZM313.681 179.535C313.962 210.302 314.26 243.032 313.417 267.481L313.705 267.491C314.548 243.034 314.249 210.298 313.969 179.533L313.681 179.535ZM313.417 137.979C313.417 150.644 313.547 164.866 313.681 179.535L313.969 179.533C313.835 164.864 313.705 150.642 313.705 137.979H313.417ZM93.7307 137.494C94.4836 137.72 95.5852 138.368 96.9567 139.358C98.3236 140.344 99.9448 141.66 101.733 143.205C105.31 146.296 109.549 150.302 113.751 154.426C122.155 162.674 130.403 171.388 132.89 174.187L133.105 173.996C130.612 171.191 122.36 162.472 113.953 154.22C109.749 150.095 105.505 146.084 101.921 142.987C100.13 141.439 98.5017 140.118 97.1251 139.125C95.7532 138.134 94.6172 137.46 93.8134 137.218L93.7307 137.494ZM93.2934 268.11L93.916 137.357L93.6282 137.356L93.0056 268.108L93.2934 268.11ZM137.072 236.477C127.484 243.661 117.578 251.083 109.522 256.937C105.494 259.864 101.929 262.399 99.0975 264.315C96.2613 266.235 94.1739 267.526 93.0941 267.976L93.2048 268.242C94.3164 267.779 96.4287 266.469 99.2589 264.554C102.094 262.635 105.662 260.098 109.691 257.17C117.749 251.314 127.657 243.891 137.245 236.707L137.072 236.477ZM169.653 212.575C163.471 216.696 150.585 226.352 137.072 236.477L137.245 236.707C150.762 226.579 163.639 216.93 169.813 212.814L169.653 212.575ZM168.236 210.242C168.299 210.346 168.342 210.45 168.528 210.809C168.71 211.16 169.021 211.739 169.608 212.766L169.858 212.623C169.273 211.599 168.963 211.023 168.784 210.677C168.609 210.34 168.551 210.206 168.481 210.092L168.236 210.242ZM165.882 207.177C166.872 208.496 167.425 209.205 167.75 209.615C168.081 210.032 168.166 210.13 168.236 210.242L168.481 210.092C168.4 209.959 168.294 209.837 167.976 209.436C167.652 209.029 167.1 208.322 166.112 207.005L165.882 207.177ZM132.896 174.193L165.896 207.193L166.099 206.989L133.1 173.99L132.896 174.193ZM127.496 155.311C124.92 152.735 122.677 150.658 120.511 148.653L120.315 148.864C122.482 150.87 124.721 152.943 127.292 155.514L127.496 155.311ZM204.079 231.271L127.496 155.31L127.293 155.515L203.877 231.476L204.079 231.271ZM212.063 223.222C209.296 225.92 206.552 228.596 203.876 231.272L204.08 231.475C206.754 228.801 209.497 226.126 212.264 223.428L212.063 223.222ZM228.778 206.37C223.362 212.203 217.666 217.757 212.063 223.222L212.264 223.428C217.867 217.964 223.567 212.405 228.989 206.566L228.778 206.37ZM254.305 181.466C246.838 189.555 237.503 198.268 228.785 206.363L228.981 206.574C237.697 198.48 247.041 189.76 254.517 181.661L254.305 181.466ZM292.291 144.103L254.31 181.461L254.512 181.666L292.492 144.308L292.291 144.103ZM295.686 140.813C294.593 141.854 293.455 142.938 292.29 144.103L292.493 144.307C293.656 143.145 294.791 142.063 295.885 141.021L295.686 140.813ZM305.333 128.586C303.373 133.485 299.861 136.835 295.686 140.813L295.885 141.021C300.052 137.05 303.614 133.66 305.6 128.693L305.333 128.586ZM102.489 129.406L305.467 128.783L305.466 128.496L102.488 129.118L102.489 129.406ZM108.95 137.327C106.104 134.615 104.233 132.831 102.62 129.204L102.357 129.321C103.995 133.005 105.904 134.823 108.752 137.536L108.95 137.327ZM114.425 142.863C112.258 140.479 110.467 138.772 108.95 137.327L108.752 137.536C110.268 138.98 112.052 140.681 114.212 143.057L114.425 142.863ZM120.511 148.653C118.484 146.776 116.525 144.962 114.421 142.858L114.217 143.062C116.326 145.17 118.289 146.988 120.315 148.864L120.511 148.653ZM84.9136 270.625C85.6951 275.001 87.1429 278.294 89.1462 280.769C91.15 283.244 93.7027 284.892 96.6798 285.989C102.624 288.179 110.281 288.177 118.677 288.177V287.889C110.263 287.889 102.665 287.887 96.7793 285.719C93.8415 284.637 91.3353 283.016 89.3699 280.588C87.4039 278.159 85.972 274.915 85.1969 270.574L84.9136 270.625ZM83.9292 186.78C83.6523 201.676 83.3208 219.516 83.347 235.19C83.3733 250.857 83.7567 264.378 84.9138 270.626L85.1968 270.573C84.0455 264.357 83.6611 250.865 83.6348 235.189C83.6086 219.519 83.9401 201.682 84.2169 186.785L83.9292 186.78ZM84.2887 161.639C84.2887 167.433 84.1223 176.39 83.9292 186.78L84.2169 186.785C84.41 176.396 84.5765 167.436 84.5765 161.639H84.2887ZM128.078 118.388C118.401 118.249 110.823 118.141 104.907 118.741C98.9895 119.341 94.7074 120.651 91.6382 123.371C88.5677 126.092 86.7338 130.203 85.6649 136.352C84.5961 142.5 84.2887 150.706 84.2887 161.639H84.5765C84.5765 150.706 84.8844 142.522 85.9484 136.401C87.0124 130.281 88.829 126.245 91.8291 123.586C94.8305 120.926 99.0392 119.625 104.936 119.027C110.832 118.429 118.39 118.537 128.074 118.676L128.078 118.388ZM144.205 118.533C138.266 118.533 132.91 118.457 128.078 118.388L128.074 118.676C132.906 118.745 138.264 118.821 144.205 118.821V118.533ZM288.033 118.533H144.205V118.821H288.033V118.533ZM321.797 136.709C321.016 132.177 319.529 128.767 317.477 126.205C315.425 123.642 312.814 121.936 309.798 120.8C303.776 118.531 296.119 118.533 288.033 118.533V118.821C296.136 118.821 303.734 118.823 309.697 121.069C312.673 122.19 315.238 123.869 317.253 126.385C319.267 128.901 320.738 132.262 321.513 136.758L321.797 136.709ZM322.776 221.036C323.053 206.096 323.388 188.031 323.364 172.195C323.34 156.365 322.958 142.745 321.797 136.706L321.514 136.761C322.669 142.767 323.052 156.356 323.076 172.195C323.1 188.028 322.765 206.09 322.488 221.03L322.776 221.036ZM322.422 245.694C322.422 240.117 322.585 231.317 322.776 221.036L322.488 221.03C322.297 231.311 322.134 240.114 322.134 245.694H322.422ZM279.6 288.327C289.284 288.466 296.806 288.574 302.633 287.984C308.461 287.393 312.622 286.101 315.569 283.418C318.517 280.734 320.226 276.679 321.201 270.618C322.177 264.558 322.422 256.469 322.422 245.694H322.134C322.134 256.471 321.889 264.538 320.917 270.573C319.946 276.607 318.252 280.585 315.375 283.205C312.497 285.826 308.411 287.109 302.604 287.697C296.797 288.286 289.295 288.178 279.604 288.039L279.6 288.327ZM263.128 288.177C269.219 288.177 274.689 288.256 279.6 288.327L279.604 288.039C274.693 287.968 269.222 287.889 263.128 287.889V288.177ZM118.677 288.177H263.128V287.889H118.677V288.177Z" fill="#ffffff"/>
</svg>
