<svg width="407" height="407" viewBox="0 0 407 407" fill="none" xmlns="http://www.w3.org/2000/svg">
<path fill-rule="evenodd" clip-rule="evenodd" d="M22.3198 203.43C22.3198 103.406 103.406 22.3198 203.43 22.3198C303.455 22.3198 384.541 103.406 384.541 203.43C384.541 303.455 303.455 384.541 203.43 384.541C103.406 384.541 22.3198 303.455 22.3198 203.43ZM203.43 1C91.6312 1 1 91.6312 1 203.43C1 315.23 91.6312 405.861 203.43 405.861C315.23 405.861 405.861 315.23 405.861 203.43C405.861 91.6312 315.23 1 203.43 1ZM177.903 219.619C172.299 221.487 104.432 271.92 100.074 276.901L124.979 278.146C142.431 278.146 161.338 278.345 180.665 278.547C220.638 278.967 262.41 279.405 296.825 278.146L307.41 277.524C304.919 273.788 238.92 223.355 230.826 219.619C227.09 221.694 219.48 229.304 212.977 235.807C209.726 239.059 206.751 242.034 204.676 243.901C199.801 242.027 194.024 235.862 188.431 229.894C184.737 225.952 181.122 222.096 177.903 219.619ZM313.636 138.054C309.9 139.922 242.656 204.053 238.298 212.147L313.636 267.561C314.479 243.108 314.181 210.375 313.9 179.609C313.766 164.94 313.636 150.718 313.636 138.054ZM133.073 174.167C128.092 168.563 100.074 139.299 93.8473 137.431L93.2246 268.184C97.6073 266.358 118.058 251.035 137.234 236.667C150.749 226.541 163.631 216.888 169.808 212.77C168.636 210.718 168.567 210.46 168.433 210.242C168.283 209.997 168.05 209.803 166.073 207.166L133.073 174.167ZM120.488 148.833C122.655 150.839 124.896 152.914 127.469 155.488L204.053 231.449C206.728 228.773 209.472 226.098 212.238 223.4C217.842 217.936 223.54 212.379 228.958 206.544C237.675 198.449 247.015 189.733 254.486 181.638L292.467 144.28C293.63 143.117 294.767 142.034 295.861 140.992C300.032 137.018 303.569 133.648 305.542 128.715L102.564 129.337C104.189 132.993 106.079 134.794 108.926 137.507C110.442 138.951 112.23 140.655 114.394 143.035C116.501 145.142 118.462 146.957 120.488 148.833ZM118.753 288.108C101.941 288.108 88.2436 288.108 85.1304 270.675C82.8222 258.21 83.5945 216.651 84.1482 186.858C84.3413 176.468 84.5078 167.51 84.5078 161.714C84.5078 117.983 89.4293 118.053 128.151 118.607C132.983 118.676 138.34 118.753 144.28 118.753H288.108C304.297 118.753 318.617 118.753 321.73 136.809C324.047 148.853 323.261 191.228 322.707 221.108C322.516 231.389 322.353 240.191 322.353 245.769C322.353 288.872 318.429 288.816 279.677 288.258C274.766 288.187 269.296 288.108 263.203 288.108H118.753Z" fill="#0296D2"/>
<path d="M100.074 276.901L99.9653 276.806L99.7696 277.03L100.066 277.045L100.074 276.901ZM177.903 219.619L177.99 219.505L177.93 219.458L177.857 219.482L177.903 219.619ZM124.979 278.146L124.972 278.29H124.979V278.146ZM180.665 278.547L180.667 278.404L180.665 278.547ZM296.825 278.146L296.83 278.29L296.834 278.29L296.825 278.146ZM307.41 277.524L307.418 277.667L307.669 277.652L307.53 277.444L307.41 277.524ZM230.826 219.619L230.887 219.488L230.82 219.458L230.756 219.493L230.826 219.619ZM212.977 235.807L213.079 235.909L212.977 235.807ZM204.676 243.901L204.624 244.036L204.706 244.067L204.772 244.008L204.676 243.901ZM188.431 229.894L188.536 229.796L188.431 229.894ZM238.298 212.147L238.171 212.079L238.112 212.189L238.213 212.263L238.298 212.147ZM313.636 138.054H313.78V137.821L313.572 137.925L313.636 138.054ZM313.636 267.561L313.551 267.677L313.771 267.839L313.78 267.566L313.636 267.561ZM313.9 179.609L313.756 179.61L313.9 179.609ZM93.8473 137.431L93.8886 137.294L93.7043 137.238L93.7034 137.431L93.8473 137.431ZM133.073 174.167L132.965 174.262L132.971 174.268L133.073 174.167ZM93.2246 268.184L93.0807 268.183L93.0797 268.4L93.28 268.317L93.2246 268.184ZM137.234 236.667L137.32 236.782L137.234 236.667ZM169.808 212.77L169.888 212.89L170 212.815L169.933 212.698L169.808 212.77ZM168.433 210.242L168.556 210.167L168.433 210.242ZM166.073 207.166L166.188 207.08L166.182 207.072L166.174 207.064L166.073 207.166ZM127.469 155.488L127.368 155.59L127.368 155.59L127.469 155.488ZM120.488 148.833L120.586 148.728L120.488 148.833ZM204.053 231.449L203.952 231.551L204.053 231.652L204.155 231.551L204.053 231.449ZM212.238 223.4L212.339 223.503L212.238 223.4ZM228.958 206.544L228.86 206.438L228.853 206.446L228.958 206.544ZM254.486 181.638L254.385 181.536L254.38 181.541L254.486 181.638ZM292.467 144.28L292.568 144.383L292.568 144.382L292.467 144.28ZM295.861 140.992L295.96 141.096L295.861 140.992ZM305.542 128.715L305.676 128.768L305.755 128.57L305.542 128.571L305.542 128.715ZM102.564 129.337L102.564 129.193L102.343 129.194L102.433 129.396L102.564 129.337ZM108.926 137.507L108.827 137.611L108.926 137.507ZM114.394 143.035L114.287 143.132L114.292 143.137L114.394 143.035ZM85.1304 270.675L85.2721 270.649L85.2719 270.648L85.1304 270.675ZM84.1482 186.858L84.0043 186.855L84.1482 186.858ZM128.151 118.607L128.149 118.751L128.151 118.607ZM321.73 136.809L321.589 136.833L321.589 136.836L321.73 136.809ZM322.707 221.108L322.563 221.106L322.707 221.108ZM279.677 288.258L279.679 288.114L279.677 288.258ZM203.43 22.1759C103.326 22.1759 22.1759 103.326 22.1759 203.43H22.4637C22.4637 103.485 103.485 22.4637 203.43 22.4637V22.1759ZM384.685 203.43C384.685 103.326 303.535 22.1759 203.43 22.1759V22.4637C303.376 22.4637 384.397 103.485 384.397 203.43H384.685ZM203.43 384.685C303.535 384.685 384.685 303.535 384.685 203.43H384.397C384.397 303.376 303.376 384.397 203.43 384.397V384.685ZM22.1759 203.43C22.1759 303.535 103.326 384.685 203.43 384.685V384.397C103.485 384.397 22.4637 303.376 22.4637 203.43H22.1759ZM1.14391 203.43C1.14391 91.7107 91.7107 1.14391 203.43 1.14391V0.85609C91.5517 0.85609 0.85609 91.5517 0.85609 203.43H1.14391ZM203.43 405.717C91.7107 405.717 1.14391 315.15 1.14391 203.43H0.85609C0.85609 315.309 91.5517 406.005 203.43 406.005V405.717ZM405.717 203.43C405.717 315.15 315.15 405.717 203.43 405.717V406.005C315.309 406.005 406.005 315.309 406.005 203.43H405.717ZM203.43 1.14391C315.15 1.14391 405.717 91.7107 405.717 203.43H406.005C406.005 91.5517 315.309 0.85609 203.43 0.85609V1.14391ZM100.182 276.996C100.717 276.384 102.243 275.06 104.53 273.198C106.813 271.339 109.842 268.954 113.373 266.226C120.435 260.769 129.501 253.94 138.607 247.208C147.712 240.476 156.856 233.842 164.073 228.774C167.682 226.241 170.808 224.099 173.207 222.533C174.406 221.749 175.423 221.111 176.226 220.639C177.033 220.165 177.614 219.867 177.948 219.755L177.857 219.482C177.49 219.604 176.885 219.919 176.08 220.391C175.271 220.866 174.251 221.507 173.05 222.292C170.647 223.86 167.518 226.004 163.908 228.539C156.688 233.608 147.542 240.244 138.436 246.977C129.329 253.709 120.261 260.539 113.197 265.998C109.665 268.727 106.634 271.114 104.348 272.975C102.068 274.831 100.52 276.172 99.9653 276.806L100.182 276.996ZM124.986 278.002L100.081 276.757L100.066 277.045L124.972 278.29L124.986 278.002ZM180.667 278.404C161.339 278.201 142.432 278.002 124.979 278.002V278.29C142.43 278.29 161.336 278.488 180.664 278.691L180.667 278.404ZM296.82 278.002C262.408 279.261 220.641 278.823 180.667 278.404L180.664 278.691C220.636 279.111 262.411 279.549 296.83 278.29L296.82 278.002ZM307.401 277.38L296.817 278.003L296.834 278.29L307.418 277.667L307.401 277.38ZM230.766 219.749C231.765 220.211 233.672 221.4 236.258 223.146C238.841 224.888 242.091 227.178 245.773 229.834C253.136 235.145 262.222 241.915 271.132 248.686C280.043 255.456 288.779 262.227 295.442 267.538C298.773 270.193 301.586 272.483 303.643 274.226C304.672 275.097 305.511 275.831 306.131 276.404C306.756 276.982 307.146 277.387 307.29 277.603L307.53 277.444C307.363 277.193 306.945 276.766 306.326 276.193C305.702 275.615 304.859 274.879 303.829 274.006C301.769 272.261 298.953 269.969 295.621 267.313C288.956 262 280.219 255.228 271.306 248.457C262.394 241.685 253.307 234.913 245.941 229.6C242.258 226.944 239.005 224.652 236.419 222.907C233.837 221.164 231.911 219.961 230.887 219.488L230.766 219.749ZM213.079 235.909C216.331 232.657 219.858 229.131 223.038 226.158C226.222 223.181 229.046 220.772 230.896 219.745L230.756 219.493C228.87 220.541 226.021 222.975 222.841 225.948C219.657 228.924 216.127 232.454 212.876 235.705L213.079 235.909ZM204.772 244.008C206.851 242.137 209.829 239.159 213.079 235.909L212.876 235.705C209.623 238.958 206.651 241.93 204.579 243.794L204.772 244.008ZM188.326 229.993C191.122 232.976 193.968 236.013 196.726 238.539C199.481 241.063 202.16 243.088 204.624 244.036L204.727 243.767C202.317 242.84 199.67 240.846 196.92 238.327C194.172 235.81 191.333 232.781 188.536 229.796L188.326 229.993ZM177.815 219.733C181.023 222.201 184.629 226.047 188.326 229.993L188.536 229.796C184.844 225.857 181.222 221.99 177.99 219.505L177.815 219.733ZM238.424 212.215C238.96 211.222 240.474 209.347 242.74 206.812C245.002 204.282 247.999 201.108 251.486 197.518C258.46 190.34 267.39 181.508 276.301 172.869C285.211 164.231 294.103 155.787 300.999 149.386C304.448 146.186 307.397 143.497 309.6 141.55C310.702 140.576 311.617 139.789 312.314 139.216C312.662 138.93 312.955 138.698 313.19 138.523C313.426 138.347 313.596 138.235 313.701 138.183L313.572 137.925C313.443 137.99 313.255 138.116 313.018 138.293C312.778 138.471 312.481 138.706 312.131 138.994C311.43 139.57 310.513 140.36 309.41 141.334C307.204 143.284 304.253 145.974 300.804 149.175C293.905 155.578 285.012 164.023 276.1 172.662C267.188 181.302 258.256 190.137 251.28 197.318C247.791 200.908 244.791 204.086 242.526 206.62C240.266 209.149 238.725 211.049 238.171 212.079L238.424 212.215ZM313.721 267.446L238.383 212.031L238.213 212.263L313.551 267.677L313.721 267.446ZM313.756 179.61C314.037 210.378 314.335 243.107 313.492 267.556L313.78 267.566C314.623 243.109 314.325 210.373 314.044 179.608L313.756 179.61ZM313.492 138.054C313.492 150.719 313.622 164.942 313.756 179.61L314.044 179.608C313.91 164.939 313.78 150.718 313.78 138.054H313.492ZM93.8059 137.569C94.5588 137.795 95.6603 138.443 97.0319 139.433C98.3988 140.42 100.02 141.735 101.808 143.28C105.385 146.371 109.624 150.377 113.826 154.501C122.23 162.749 130.478 171.464 132.965 174.262L133.181 174.071C130.687 171.266 122.435 162.547 114.028 154.295C109.824 150.17 105.58 146.159 101.997 143.062C100.205 141.514 98.5768 140.193 97.2003 139.2C95.8283 138.21 94.6923 137.535 93.8886 137.294L93.8059 137.569ZM93.3685 268.185L93.9912 137.432L93.7034 137.431L93.0807 268.183L93.3685 268.185ZM137.147 236.552C127.559 243.736 117.653 251.158 109.597 257.012C105.569 259.94 102.004 262.474 99.1727 264.39C96.3365 266.31 94.249 267.601 93.1693 268.051L93.28 268.317C94.3916 267.854 96.5039 266.545 99.334 264.629C102.169 262.71 105.737 260.173 109.766 257.245C117.825 251.389 127.732 243.966 137.32 236.782L137.147 236.552ZM169.728 212.65C163.546 216.771 150.66 226.427 137.147 236.552L137.32 236.782C150.837 226.654 163.715 217.005 169.888 212.89L169.728 212.65ZM168.311 210.317C168.374 210.421 168.417 210.525 168.604 210.885C168.785 211.235 169.097 211.814 169.683 212.841L169.933 212.698C169.348 211.674 169.038 211.098 168.859 210.752C168.685 210.415 168.626 210.281 168.556 210.167L168.311 210.317ZM165.957 207.253C166.947 208.572 167.5 209.28 167.825 209.69C168.156 210.107 168.242 210.205 168.311 210.317L168.556 210.167C168.475 210.034 168.369 209.912 168.051 209.511C167.727 209.104 167.176 208.397 166.188 207.08L165.957 207.253ZM132.971 174.268L165.971 207.268L166.174 207.064L133.175 174.065L132.971 174.268ZM127.571 155.386C124.995 152.81 122.752 150.734 120.586 148.728L120.39 148.939C122.557 150.945 124.796 153.018 127.368 155.59L127.571 155.386ZM204.154 231.347L127.571 155.386L127.368 155.59L203.952 231.551L204.154 231.347ZM212.138 223.297C209.372 225.995 206.627 228.671 203.951 231.347L204.155 231.551C206.829 228.876 209.572 226.201 212.339 223.503L212.138 223.297ZM228.853 206.446C223.437 212.278 217.742 217.832 212.138 223.297L212.339 223.503C217.942 218.039 223.642 212.48 229.064 206.641L228.853 206.446ZM254.38 181.541C246.913 189.63 237.578 198.343 228.86 206.438L229.056 206.649C237.772 198.556 247.116 189.835 254.592 181.736L254.38 181.541ZM292.366 144.178L254.385 181.536L254.587 181.741L292.568 144.383L292.366 144.178ZM295.761 140.888C294.668 141.929 293.53 143.014 292.365 144.179L292.568 144.382C293.731 143.22 294.866 142.138 295.96 141.096L295.761 140.888ZM305.408 128.661C303.449 133.561 299.936 136.91 295.761 140.888L295.96 141.096C300.127 137.126 303.689 133.735 305.676 128.768L305.408 128.661ZM102.565 129.481L305.542 128.859L305.542 128.571L102.564 129.193L102.565 129.481ZM109.025 137.402C106.179 134.691 104.308 132.907 102.696 129.279L102.433 129.396C104.07 133.08 105.979 134.898 108.827 137.611L109.025 137.402ZM114.501 142.938C112.333 140.554 110.542 138.848 109.025 137.402L108.827 137.611C110.343 139.055 112.127 140.756 114.288 143.132L114.501 142.938ZM120.586 148.728C118.559 146.851 116.6 145.038 114.496 142.933L114.292 143.137C116.401 145.246 118.364 147.063 120.39 148.939L120.586 148.728ZM84.9888 270.7C85.7703 275.076 87.218 278.369 89.2213 280.844C91.2251 283.319 93.7778 284.967 96.755 286.064C102.699 288.254 110.356 288.252 118.753 288.252V287.964C110.338 287.964 102.74 287.962 96.8545 285.794C93.9167 284.712 91.4105 283.091 89.445 280.663C87.4791 278.234 86.0472 274.99 85.2721 270.649L84.9888 270.7ZM84.0043 186.855C83.7275 201.752 83.3959 219.591 83.4222 235.265C83.4484 250.932 83.8319 264.453 84.9889 270.701L85.2719 270.648C84.1207 264.432 83.7362 250.941 83.71 235.264C83.6838 219.594 84.0152 201.758 84.2921 186.86L84.0043 186.855ZM84.3639 161.714C84.3639 167.508 84.1974 176.465 84.0043 186.855L84.2921 186.86C84.4852 176.472 84.6517 167.511 84.6517 161.714H84.3639ZM128.153 118.463C118.476 118.325 110.899 118.216 104.982 118.816C99.0647 119.416 94.7826 120.726 91.7134 123.446C88.6428 126.167 86.8089 130.278 85.74 136.427C84.6712 142.575 84.3639 150.781 84.3639 161.714H84.6517C84.6517 150.781 84.9595 142.597 86.0236 136.476C87.0876 130.356 88.9042 126.32 91.9043 123.661C94.9057 121.001 99.1144 119.7 105.011 119.102C110.907 118.504 118.465 118.612 128.149 118.751L128.153 118.463ZM144.28 118.609C138.342 118.609 132.985 118.532 128.153 118.463L128.149 118.751C132.981 118.82 138.339 118.896 144.28 118.896V118.609ZM288.108 118.609H144.28V118.896H288.108V118.609ZM321.872 136.784C321.091 132.252 319.604 128.842 317.552 126.28C315.5 123.717 312.889 122.011 309.873 120.875C303.851 118.607 296.194 118.609 288.108 118.609V118.896C296.211 118.896 303.809 118.898 309.772 121.144C312.749 122.265 315.313 123.944 317.328 126.46C319.343 128.976 320.813 132.337 321.589 136.833L321.872 136.784ZM322.851 221.111C323.128 206.171 323.463 188.106 323.439 172.27C323.415 156.44 323.033 142.82 321.872 136.782L321.589 136.836C322.744 142.842 323.127 156.431 323.151 172.27C323.175 188.103 322.84 206.165 322.563 221.106L322.851 221.111ZM322.497 245.769C322.497 240.193 322.66 231.392 322.851 221.111L322.563 221.106C322.372 231.386 322.209 240.189 322.209 245.769H322.497ZM279.675 288.402C289.36 288.541 296.881 288.65 302.708 288.059C308.536 287.468 312.697 286.176 315.644 283.493C318.592 280.809 320.301 276.754 321.277 270.694C322.252 264.633 322.497 256.544 322.497 245.769H322.209C322.209 256.546 321.964 264.613 320.992 270.648C320.021 276.682 318.327 280.66 315.45 283.28C312.572 285.901 308.487 287.184 302.679 287.773C296.872 288.361 289.371 288.253 279.679 288.114L279.675 288.402ZM263.203 288.252C269.295 288.252 274.764 288.331 279.675 288.402L279.679 288.114C274.768 288.043 269.297 287.964 263.203 287.964V288.252ZM118.753 288.252H263.203V287.964H118.753V288.252Z" fill="#0296D2"/>
</svg>
