<svg width="407" height="407" viewBox="0 0 407 407" fill="none" xmlns="http://www.w3.org/2000/svg">
<path fill-rule="evenodd" clip-rule="evenodd" d="M22.2789 203.667C22.2789 103.489 103.489 22.2789 203.667 22.2789C303.844 22.2789 385.054 103.489 385.054 203.667C385.054 303.844 303.844 385.054 203.667 385.054C103.489 385.054 22.2789 303.844 22.2789 203.667ZM203.667 0.930394C91.6985 0.930394 0.930394 91.6985 0.930394 203.667C0.930394 315.635 91.6985 406.403 203.667 406.403C315.635 406.403 406.403 315.635 406.403 203.667C406.403 91.6985 315.635 0.930394 203.667 0.930394ZM215.346 121.571C193.236 121.209 161.638 120.691 151.232 122.953C121.682 129.773 121.732 153.584 121.772 173.239C121.774 173.961 121.775 174.678 121.775 175.388C121.775 179.886 121.632 186.207 121.469 193.4C120.972 215.411 120.289 245.589 122.953 256.69C125.31 267.884 132.969 276.132 140.039 280.256C149.716 285.858 159.833 285.737 171.151 285.601C172.926 285.58 174.729 285.558 176.566 285.558C180.48 285.558 186.127 285.651 192.676 285.758C214.712 286.12 246.968 286.651 257.868 284.38C268.473 281.434 276.132 274.364 280.256 267.294C285.85 257.631 285.737 248.407 285.602 237.348C285.58 235.597 285.558 233.799 285.558 231.946C285.558 229.345 285.58 225.073 285.606 219.809C285.719 197.646 285.921 157.897 284.969 151.232C278.488 121.775 251.977 121.775 231.946 121.775C227.844 121.775 222.028 121.68 215.346 121.571ZM267.294 155.357C273.186 140.628 251.387 134.147 246.085 146.519C240.194 161.837 262.581 167.139 267.294 155.357ZM168.907 195.419C158.891 240.783 226.643 258.457 238.426 211.325C243.729 190.116 227.822 173.031 211.325 169.496C190.116 164.783 173.031 179.512 168.907 195.419ZM210.147 150.054C236.659 153.589 261.403 178.333 257.868 209.558C254.333 237.248 230.178 260.814 197.775 257.279C170.085 254.333 146.519 229 150.643 197.186C153.589 170.085 178.922 146.519 210.147 150.054ZM104.69 157.124C105.868 129.434 125.899 108.814 151.822 105.279C159.481 104.101 236.659 104.69 250.209 105.279C277.31 105.868 298.519 125.899 302.054 151.232C303.232 160.07 303.232 237.248 302.643 250.209C301.465 277.31 281.434 299.108 256.101 302.054C246.674 303.232 169.496 303.232 157.124 302.643C130.023 301.465 108.814 281.434 105.279 256.101C104.308 249.301 104.537 195.262 104.648 169.226C104.672 163.677 104.69 159.401 104.69 157.124Z" fill="#ffffff"/>
</svg>
