<svg width="406" height="406" viewBox="0 0 406 406" fill="none" xmlns="http://www.w3.org/2000/svg">
<path fill-rule="evenodd" clip-rule="evenodd" d="M21.3892 202.667C21.3892 102.55 102.55 21.3892 202.667 21.3892C302.783 21.3892 383.944 102.55 383.944 202.667C383.944 302.783 302.783 383.944 202.667 383.944C102.55 383.944 21.3892 302.783 21.3892 202.667ZM202.667 0.0570164C90.7684 0.0570164 0.0570011 90.7684 0.0570011 202.667C0.0570011 314.565 90.7684 405.276 202.667 405.276C314.565 405.276 405.276 314.565 405.276 202.667C405.276 90.7684 314.565 0.0570164 202.667 0.0570164ZM208.411 253.497C208.726 267.314 209.077 282.692 207.909 293.455L172.88 293.694L172.404 172.88L208.028 172.761L208.147 188.012C210.203 186.864 211.587 185.41 213.139 183.78C215.455 181.347 218.144 178.522 223.994 175.74C242.58 166.804 273.201 170.14 285.83 189.203C293.569 201.163 293.339 214.48 293.077 229.583C293.028 232.383 292.979 235.246 292.979 238.172C292.979 241.781 293.101 246.661 293.236 252.086C293.602 266.721 294.067 285.317 292.502 293.575H257.593C256.372 281.803 256.746 265.947 257.082 251.752C257.205 246.551 257.322 241.573 257.354 237.1C257.354 218.632 252.231 203.262 232.691 203.977C223.755 204.335 217.202 209.22 213.628 213.747C208.028 220.777 208.028 226.853 208.147 237.1C208.147 241.956 208.276 247.584 208.411 253.497ZM111.997 136.898C115.452 164.421 159.059 158.94 154.651 129.749C150.481 103.061 108.065 106.278 111.997 136.898ZM151.315 293.455L115.809 293.694L115.214 172.761H151.196L151.315 293.455Z" fill="#6B6767"/>
</svg>
