<svg width="407" height="407" viewBox="0 0 407 407" fill="none" xmlns="http://www.w3.org/2000/svg">
<path fill-rule="evenodd" clip-rule="evenodd" d="M203.667 22.2469C103.471 22.2469 22.2469 103.471 22.2469 203.667C22.2469 303.862 103.471 385.086 203.667 385.086C303.862 385.086 385.086 303.862 385.086 203.667C385.086 103.471 303.862 22.2469 203.667 22.2469ZM0.917011 203.667C0.917011 91.691 91.6911 0.91695 203.667 0.91695C315.642 0.91695 406.416 91.691 406.416 203.667C406.416 315.642 315.642 406.416 203.667 406.416C91.6911 406.416 0.917011 315.642 0.917011 203.667ZM203.207 295.683C202.746 293.843 166.63 232.652 163.869 228.051C163.502 227.422 163.147 226.816 162.801 226.226C161.63 224.23 160.564 222.413 159.499 220.46C158.745 219.16 157.98 217.852 157.209 216.534L157.208 216.533C148.563 201.755 139.255 185.845 139.255 169.16C139.255 154.898 143.396 143.166 150.067 132.354C151.907 129.593 153.748 127.422 155.588 125.25C156.048 124.707 156.508 124.164 156.968 123.612C158.053 122.218 158.824 121.658 159.704 121.02C160.131 120.71 160.583 120.382 161.109 119.931C164.79 116.021 170.311 112.57 175.141 110.27C196.765 99.4578 221.61 102.218 241.393 115.791C241.598 115.937 241.799 116.079 241.996 116.219C243.354 117.182 244.559 118.036 245.764 119.241C246.404 119.882 247.008 120.376 247.576 120.841C248.436 121.546 249.212 122.182 249.905 123.152C251.343 124.962 252.492 126.36 253.454 127.531L253.454 127.531C257.261 132.165 258.15 133.247 262.557 142.245C265.548 148.227 267.848 159.039 267.848 168.01C267.848 185.298 260.47 198.256 252.811 211.704C251.299 214.361 249.775 217.037 248.295 219.769C242.534 230.257 235.351 242.262 228.389 253.896C224.509 260.381 220.697 266.751 217.239 272.679C216.791 273.463 215.812 275.106 214.579 277.172C210.749 283.596 204.475 294.117 204.127 295.683H203.207ZM123.382 169.16C123.382 178.362 125.222 186.413 127.753 193.545C132.081 206.837 154.79 244.949 173.412 276.203L173.413 276.205C182.507 291.467 190.626 305.094 195.155 313.396C199.986 321.678 207.347 321.678 211.948 313.626L270.149 213.328C284.411 189.864 289.012 161.799 277.28 135.574C269.919 119.471 258.647 107.279 243.694 98.3076C220.23 84.275 187.104 84.045 164.33 97.8475C152.597 104.979 142.706 113.49 135.574 125.222C135.039 126.159 134.617 126.887 134.263 127.498C132.791 130.036 132.509 130.522 130.283 135.344C126.143 144.086 123.382 156.508 123.382 169.16ZM218.389 180.892C233.342 167.32 223.22 142.936 203.667 142.936C183.883 142.936 173.071 168.24 190.324 182.273C197.916 188.484 210.338 188.254 218.389 180.892ZM229.891 191.934C206.197 215.859 165.48 197.916 165.48 164.56C165.48 159.269 167.55 152.367 169.16 148.917C175.832 135.574 188.254 126.833 203.667 126.833C235.642 126.833 255.656 165.94 229.891 191.934Z" fill="#ffffff"/>
</svg>
