<svg width="406" height="406" viewBox="0 0 406 406" fill="none" xmlns="http://www.w3.org/2000/svg">
<path fill-rule="evenodd" clip-rule="evenodd" d="M21.3265 202.889C21.3265 102.615 102.615 21.3265 202.889 21.3265C303.164 21.3265 384.452 102.615 384.452 202.889C384.452 303.164 303.164 384.452 202.889 384.452C102.615 384.452 21.3265 303.164 21.3265 202.889ZM202.889 0C90.8367 0 0 90.8367 0 202.889C0 314.942 90.8367 405.779 202.889 405.779C314.942 405.779 405.779 314.942 405.779 202.889C405.779 90.8367 314.942 0 202.889 0ZM121.823 147.617C145.774 166.041 165.427 178.324 201.047 178.938C196.134 122.437 252.021 108.312 279.043 132.263C285.601 138.001 289.697 135.807 297.355 131.704C301.172 129.659 305.874 127.141 312.207 124.893C309.662 135.07 303.324 141.031 297.383 146.618C296.153 147.775 294.941 148.915 293.782 150.073C299.199 150.073 304.333 148.377 309.376 146.711C311.766 145.921 314.136 145.138 316.506 144.546C312.966 154.722 304.008 160.754 298.817 164.25C296.802 165.607 295.354 166.582 295.011 167.269C295.011 229.297 270.445 264.304 232.982 287.641C213.944 299.924 188.15 307.908 161.128 307.908C139.633 307.908 100.942 299.31 89.2733 288.255C112.611 287.027 145.774 283.342 154.372 267.988C132.877 266.146 117.524 252.021 111.997 235.439C121.209 236.667 123.665 236.667 131.649 234.211C130.024 232.788 127.928 231.904 125.472 230.868C120.506 228.772 114.07 226.056 107.083 217.015C102.17 210.873 95.4147 197.976 97.2571 187.536C99.7137 191.221 110.768 194.291 118.138 193.063C116.022 190.594 113.956 188.581 111.97 186.646C107.041 181.841 102.602 177.515 99.0996 167.883C94.1485 154.516 96.7811 146.736 99.9183 137.465C100.673 135.236 101.456 132.921 102.17 130.421C105.729 131.844 109.701 135.949 113.607 139.986C116.441 142.915 119.24 145.809 121.823 147.617Z" fill="#ffffff"/>
</svg>
