<?xml version="1.0" encoding="UTF-8"?>
<!DOCTYPE svg PUBLIC "-//W3C//DTD SVG 1.1//EN" "http://www.w3.org/Graphics/SVG/1.1/DTD/svg11.dtd">
<!-- Creator: CorelDRAW X7 -->
<svg xmlns="http://www.w3.org/2000/svg" xml:space="preserve" width="3.49999in" height="3.49906in" version="1.1" style="shape-rendering:geometricPrecision; text-rendering:geometricPrecision; image-rendering:optimizeQuality; fill-rule:evenodd; clip-rule:evenodd"
viewBox="0 0 466 466"
 xmlns:xlink="http://www.w3.org/1999/xlink">
 <defs>
  <style type="text/css">
   <![CDATA[
    .fil0 {fill:#6B6767}
   ]]>
  </style>
 </defs>
 <g id="Layer_x0020_1">
  <metadata id="CorelCorpID_0Corel-Layer"/>
  <path class="fil0" d="M59 418c2,-25 15,-71 5,-90 -72,-127 17,-281 157,-289 112,-7 206,80 207,193 1,111 -91,200 -202,196 -34,-1 -52,-9 -79,-20 -17,-7 -66,8 -88,10zm114 -213c8,-11 23,-17 14,-41 -5,-13 -12,-38 -23,-41 -15,-3 -55,28 -42,74 18,63 64,110 115,135 36,18 65,28 90,3 8,-8 25,-24 13,-37 -4,-5 -30,-25 -39,-25 -14,1 -26,24 -35,27 -10,3 -33,-16 -40,-22 -16,-13 -48,-43 -53,-73zm-162 261c34,-4 72,-12 105,-18 27,-5 25,1 48,8 17,5 34,8 52,10 75,5 141,-26 177,-64 20,-20 37,-38 52,-70 13,-30 21,-61 21,-98 1,-76 -33,-132 -71,-169 -157,-150 -421,-22 -393,198 7,59 28,65 23,96 -5,34 -12,73 -14,107z"/>
 </g>
</svg>
