<svg width="406" height="406" viewBox="0 0 406 406" fill="none" xmlns="http://www.w3.org/2000/svg">
<path d="M202.667 0C258.651 0 309.344 22.6479 345.962 59.3712C382.685 95.9888 405.333 146.682 405.333 202.667C405.333 258.651 382.685 309.344 345.962 345.962C309.344 382.685 258.651 405.333 202.667 405.333C184.04 405.333 166.049 402.793 148.904 398.137L165.52 386.601L165.943 380.251C177.796 382.685 190.073 384.061 202.667 384.061C252.725 384.061 298.126 363.741 330.934 330.934C363.741 298.126 384.061 252.725 384.061 202.667C384.061 152.608 363.741 107.313 330.934 74.3993C298.126 41.5916 252.725 21.3779 202.667 21.3779C152.608 21.3779 107.313 41.5916 74.3993 74.3993C41.5916 107.313 21.3779 152.608 21.3779 202.667C21.3779 232.511 28.5744 260.662 41.2741 285.532L25.2936 300.878C9.20731 271.774 0 238.332 0 202.667C0 146.682 22.6479 95.9888 59.3712 59.3712C95.9888 22.6479 146.682 0 202.667 0Z" fill="#05B6FF"/>
<path fill-rule="evenodd" clip-rule="evenodd" d="M52.8098 361.731C54.5031 340.67 66.1445 301.089 56.8314 284.686C-4.76231 175.362 71.6477 42.4383 192.189 35.3476C288.178 29.6327 369.88 104.773 370.409 201.714C371.044 297.068 291.988 373.478 196.528 370.197C167.637 369.139 151.762 362.472 128.691 352.947C114.086 346.914 71.8594 359.614 52.8098 361.731ZM150.704 178.749C157.794 169.436 170.917 164.25 163.192 142.978C159.064 131.654 152.82 110.488 143.295 108.265C130.49 105.408 95.8831 131.654 107.207 171.658C122.341 225.526 162.451 265.954 206.371 287.755C237.168 303.1 262.144 311.778 283.204 290.612C289.977 283.839 304.794 269.975 294.528 258.334C290.93 254.206 268.388 237.062 261.297 237.379C248.809 238.014 238.543 257.381 230.924 259.815C222.034 262.673 202.984 246.586 196.423 241.401C182.559 230.5 154.937 204.677 150.704 178.749ZM11.7473 403.005C41.0626 399.195 73.5527 392.951 102.233 387.659C124.987 383.426 123.822 388.823 143.401 394.75C157.688 398.983 172.293 401.629 187.85 402.687C252.513 407.132 308.921 380.674 340.565 348.078C357.392 330.934 372.314 315.165 384.696 287.649C396.232 261.932 403.111 235.686 403.217 203.831C403.64 137.792 374.431 89.6389 341.835 58.3129C207.112 -71.3302 -20.002 39.475 3.81 228.701C10.1599 278.759 27.622 284.156 23.7063 311.143C19.5788 340.353 13.5465 374.113 11.7473 403.005Z" fill="#0296D2"/>
</svg>
