<svg xmlns="http://www.w3.org/2000/svg" width="1509.938" height="375.688" viewBox="0 0 1509.938 375.688">
  <g id="Layer_x0020_1" transform="translate(-0.062 0.688)">
    <g id="_2475257882160">
      <g id="Group_1" data-name="Group 1">
        <path id="Path_1" data-name="Path 1" d="M451,19a31.591,31.591,0,0,0-32,32c0,16,15,30,32,30a31.156,31.156,0,0,0,31-31C482,33,469,19,451,19Zm25,108v-5c0-18-11-29-26-29-16,0-26,11-27,29V254c0,20-4,32-12,38l-10,6c-9,6-13,13-13,22,0,15,13,26,31,26,23,0,47-20,54-46,3-9,3-12,3-34V127Zm104,93,88-38c15-7,21-14,21-26,0-34-40-65-82-65-52,0-96,44-96,96,0,53,45,98,98,98,19,0,39-6,53-17,14-9,20-18,20-29,0-14-12-25-27-25-6,0-10,1-16,6-11,8-20,11-30,11C597,231,589,228,580,220Zm52-67-67,29c2-23,21-40,44-40C619,142,627,145,632,153Zm204,95v6c0,18,10,29,26,29,15,0,25-11,26-29V184c0-21-4-39-12-51-15-26-44-42-73-42-25,0-49,12-65,31-13,17-19,35-19,60v72c0,18,11,29,26,29,16,0,26-11,27-29V177c0-19,13-34,31-34a32.9,32.9,0,0,1,29,18c3,7,4,12,4,27Z" fill="#54b329"/>
        <path id="Path_2" data-name="Path 2" d="M921,187c0,54,43,98,97,98,37,0,76-24,76-47a25.819,25.819,0,0,0-26-26c-6,0-10,1-16,5-7,6-12,9-14,10-5,3-12,5-20,5a44.5,44.5,0,0,1,1-89c11,0,19,3,30,12,7,6,10,7,17,7a25.819,25.819,0,0,0,26-26c0-11-4-18-19-28a99.867,99.867,0,0,0-56-17C964,91,921,135,921,187Zm261,33,87-38c16-7,22-14,22-26,0-34-40-65-83-65-51,0-95,44-95,96,0,53,44,98,97,98,19,0,39-6,53-17,14-9,20-18,20-29,0-14-11-25-26-25-6,0-10,1-17,6-10,8-19,11-30,11S1190,228,1182,220Zm51-67-67,29c2-23,21-40,44-40C1221,142,1228,145,1233,153Zm174-62c-55,0-98,43-98,99,0,51,44,95,98,95,53,0,97-44,97-97A96.457,96.457,0,0,0,1407,91Zm0,52c24,0,44,20,44,45a44.391,44.391,0,0,1-44,44c-25,0-45-20-45-43C1362,163,1382,143,1407,143Z" fill="#fcc603"/>
      </g>
      <path id="Path_3" data-name="Path 3" d="M535,317h50v14H568v43H551V331H535Zm155,57V317h28c5,0,9,0,11,1,3,1,5,3,7,5,2,3,2,6,2,10,0,3,0,6-1,8-2,2-3,4-6,5q-1.5,1.5-6,3a7.638,7.638,0,0,1,5,2,12.376,12.376,0,0,1,2,3c2,1,2,3,3,3l8,17H724l-9-18a13.8,13.8,0,0,0-3-4c-1-1-2-1-4-1h-1v23Zm17-34h7a9.965,9.965,0,0,0,4-1c1,0,2-1,3-2,0-1,1-2,1-3a5.2,5.2,0,0,0-2-4,8.454,8.454,0,0,0-6-2h-7Zm172,24H860l-3,10H840l20-57h19l20,57H881Zm-4-12-6-20-6,20Zm127-35h24c5,0,9,0,12,2,3,1,5,3,7,6s4,6,5,9a41.02,41.02,0,0,1,1,11,46.357,46.357,0,0,1-2,14,19.336,19.336,0,0,1-5,9c-3,2-5,4-8,4a35.53,35.53,0,0,1-10,2h-24Zm16,13v31h4c4,0,6-1,8-1a21.859,21.859,0,0,0,3-5c1-2,1-5,1-10,0-6-1-10-2-12-2-2-5-3-10-3Zm139-13h45v12h-28v9h26v12h-26v11h28v13h-45Zm152,57V317h28c5,0,9,0,11,1,3,1,5,3,7,5,2,3,2,6,2,10,0,3,0,6-1,8-2,2-3,4-6,5q-1.5,1.5-6,3a7.638,7.638,0,0,1,5,2,12.376,12.376,0,0,1,2,3c2,1,2,3,3,3l8,17h-19l-9-18a13.8,13.8,0,0,0-3-4c-1-1-2-1-4-1h-1v23Zm17-34h7a9.965,9.965,0,0,0,4-1c1,0,2-1,3-2,0-1,1-2,1-3a5.2,5.2,0,0,0-2-4,8.454,8.454,0,0,0-6-2h-7Zm136,15,16-1a10.088,10.088,0,0,0,9,10,7.638,7.638,0,0,0,5-2,3.992,3.992,0,0,0,2-4c0-2,0-3-2-4-1-1-4-2-8-4a35.646,35.646,0,0,1-15-6c-4-3-5-7-5-11,0-3,1-6,2-9a43.494,43.494,0,0,1,7-6,52.124,52.124,0,0,1,14-2c6,0,12,1,15,4,4,3,6,7,7,13l-16,1q0-4.5-3-6a7.638,7.638,0,0,0-5-2,5.2,5.2,0,0,0-4,2c-1,1-2,2-2,3a3.491,3.491,0,0,0,1,2,8.454,8.454,0,0,0,6,2q10.5,3,15,6c4,1,6,3,7,6,2,2,2,5,2,8a29.585,29.585,0,0,1-2,10,13.375,13.375,0,0,1-8,7,27.681,27.681,0,0,1-13,3c-9,0-16-2-19-6C1464,366,1462,361,1462,355Z" fill="#6b6767"/>
      <path id="Path_4" data-name="Path 4" d="M150,18a75.779,75.779,0,0,0-50,71c0,21,9,40,22,54,14,13,33,22,54,22s40-9,54-22c13-14,22-33,22-54a77.72,77.72,0,0,0-2-16c-1-4-2-7-3-11l-1,1V61a12.683,12.683,0,0,1-6,1,44.845,44.845,0,0,1-11,1,89.2,89.2,0,0,1-47-13c-13-8-23-19-31-32l-1,1ZM105,36c11-15,28-27,46-32l6-2V3h1l3,5c6,12,16,23,28,31,11,7,25,11,40,11h9c3-1,6-1,10-2l5-2v1h1l3,5,6,18a122.523,122.523,0,0,1,2,19,88.771,88.771,0,0,1-89,89,90.11,90.11,0,0,1-63-26A88.334,88.334,0,0,1,87,89C87,69,94,51,105,36Z" fill="#fcc603" stroke="#fcc603" stroke-width="3.875"/>
      <path id="Path_5" data-name="Path 5" d="M349,239a75.768,75.768,0,0,0-15-40c-9-12-23-22-39-27a77.251,77.251,0,0,0-58,6c-17,9-30,25-36,45s-3,40,6,58c9,17,25,30,45,36a45.292,45.292,0,0,0,16,3h11v-1h1c0-2,1-4,1-6,1-4,1-7,2-11,5-16,15-30,27-41a82.381,82.381,0,0,1,38-20l1-1Zm-4-47a90.482,90.482,0,0,1,17,53v6h-1v1l-5,1a70.8,70.8,0,0,0-38,18,75.02,75.02,0,0,0-22,35c-1,3-2,6-2,9-1,3-1,7-1,10v5h-1v1l-6,1c-6,1-12,1-19,1a162.472,162.472,0,0,1-19-4c-23-7-42-22-52-42-11-20-14-44-8-68a91.239,91.239,0,0,1,43-53c20-10,44-14,68-7A91.427,91.427,0,0,1,345,192Z" fill="#6b6767" stroke="#6b6767" stroke-width="3.875"/>
      <path id="Path_6" data-name="Path 6" d="M2,251c0-20,6-39,17-54s27-26,46-32c24-7,48-4,68,7s36,29,43,53c7,23,3,47-7,67a91.239,91.239,0,0,1-53,43c-6,2-13,3-19,4-6,0-13,0-19-1l-6-1v-1h0l-1-6a27.686,27.686,0,0,0-1-9c0-3-1-6-2-10a75.02,75.02,0,0,0-22-35A89.129,89.129,0,0,0,8,258l-5-1v-1H2Zm28-46c-9,11-14,25-15,40h1v2c14,3,27,10,39,20s21,24,26,41a35.949,35.949,0,0,1,2,11c0,2,1,4,1,5l1,1v1H96c5-1,11-2,16-3a75.948,75.948,0,0,0,45-37c10-17,12-38,6-58s-19-35-36-45a77.251,77.251,0,0,0-58-6C53,182,39,192,30,205Z" fill="#54b329" stroke="#54b329" stroke-width="3.875"/>
    </g>
  </g>
</svg>
