<svg width="549" height="152" viewBox="0 0 549 152" fill="none" xmlns="http://www.w3.org/2000/svg">
<path d="M170.362 17.2443C164.118 17.2443 159.361 22.0013 159.361 28.2449C159.361 33.8939 164.118 38.651 170.064 38.651C176.011 38.651 181.065 33.8939 181.065 27.9476C181.065 22.0013 176.308 17.2443 170.362 17.2443ZM178.687 54.706V52.6248C178.687 46.6785 175.119 42.5161 169.767 42.5161C164.415 42.5161 160.848 46.6785 160.848 52.6248V54.706V98.4113C160.848 105.25 159.361 109.412 156.388 111.196L152.82 113.574C149.847 115.358 148.658 117.737 148.658 121.007C148.658 126.062 152.82 129.927 159.064 129.927C167.091 129.927 175.416 122.791 177.795 114.169C178.687 111.196 178.687 110.007 178.687 102.276V97.5194V54.706Z" fill="#02ACF2"/>
<path d="M214.662 86.5187L244.691 73.4369C250.042 71.0583 252.123 68.3825 252.123 64.5174C252.123 52.9221 238.447 42.2188 223.878 42.2188C206.04 42.2188 190.876 57.3818 190.876 75.2207C190.876 93.357 206.337 108.817 224.473 108.817C231.014 108.817 237.852 106.736 242.907 103.168C247.664 99.8979 249.745 96.9248 249.745 93.0597C249.745 88.3026 245.582 84.1402 240.528 84.1402C238.447 84.1402 236.96 84.7348 234.879 86.5187C231.311 89.1946 228.041 90.0865 224.473 90.0865C220.608 90.0865 217.635 89.1946 214.662 86.5187ZM232.501 63.6254L209.607 73.4369C210.202 65.7067 216.743 59.7604 224.473 59.7604C228.041 59.7604 230.717 60.6523 232.501 63.6254Z" fill="#02ACF2"/>
<path d="M302.667 96.3301V98.4113C302.667 104.358 306.235 108.223 311.587 108.223C316.938 108.223 320.506 104.358 320.506 98.4113V96.3301V74.0315C320.506 66.8959 319.317 60.6523 316.641 56.4899C311.289 47.5704 301.478 42.2188 291.369 42.2188C282.747 42.2188 274.422 46.0838 269.07 52.9221C264.611 58.5711 262.53 64.8147 262.53 73.4369V96.3301V98.4113C262.53 104.358 266.395 108.223 271.449 108.223C276.801 108.223 280.368 104.358 280.666 98.4113V96.3301V75.2207V71.653C280.666 65.112 285.423 60.0577 291.369 60.0577C295.829 60.0577 299.694 62.7335 301.478 66.3013C302.37 68.6798 302.667 70.1664 302.667 75.5181V96.3301Z" fill="#02ACF2"/>
<path d="M331.804 75.2208C331.804 93.6543 346.967 108.817 365.401 108.817C378.185 108.817 391.564 100.493 391.564 92.7624C391.564 87.708 387.699 83.5456 382.645 83.5456C380.564 83.5456 379.077 84.1402 376.996 85.6268C374.617 87.4107 372.833 88.5999 372.536 88.8973C370.455 90.0865 368.076 90.6811 365.401 90.6811C357.076 90.6811 350.237 83.8429 350.237 75.5181C350.237 66.8959 357.076 60.0577 365.698 60.0577C369.563 60.0577 372.239 61.2469 376.104 64.2201C378.482 66.3013 379.672 66.5986 381.753 66.5986C386.807 66.5986 390.97 62.7335 390.97 57.6792C390.97 53.8141 389.186 51.4355 384.429 48.1651C378.78 44.3 371.644 41.9214 365.103 41.9214C346.967 41.9214 331.804 57.0845 331.804 75.2208Z" fill="#FCC603"/>
<path d="M421.593 86.5187L451.622 73.4369C457.271 71.0583 459.055 68.3825 459.055 64.5174C459.055 52.9221 445.378 42.2188 430.81 42.2188C412.971 42.2188 398.105 57.3818 398.105 75.2207C398.105 93.357 413.268 108.817 431.405 108.817C437.945 108.817 444.784 106.736 449.838 103.168C454.595 99.8979 456.676 96.9248 456.676 93.0597C456.676 88.3026 452.811 84.1402 447.46 84.1402C445.378 84.1402 443.892 84.7348 441.811 86.5187C438.243 89.1946 434.972 90.0865 431.405 90.0865C427.539 90.0865 424.566 89.1946 421.593 86.5187ZM439.432 63.6254L416.539 73.4369C417.133 65.7067 423.674 59.7604 431.405 59.7604C434.972 59.7604 437.648 60.6523 439.432 63.6254Z" fill="#FCC603"/>
<path d="M499.192 42.2188C480.461 42.2188 465.596 57.0845 465.596 76.1127C465.596 93.9516 480.759 108.817 499.192 108.817C517.626 108.817 532.789 93.6543 532.789 75.5181C532.789 57.0845 517.923 42.2188 499.192 42.2188ZM499.192 60.0577C507.517 60.0577 514.355 66.8959 514.355 75.5181C514.355 83.8429 507.517 90.3838 499.192 90.3838C490.867 90.3838 484.029 83.8429 484.029 75.8154C484.029 66.8959 490.57 60.0577 499.192 60.0577Z" fill="#FCC603"/>
<path d="M200.391 119.818H206.04V126.656H212.283V119.818H217.932V139.441H212.283V131.413H206.04V139.441H200.391V119.818Z" fill="#6B6767"/>
<path d="M243.204 129.629C243.204 126.359 243.799 123.98 245.583 122.197C247.367 120.413 249.448 119.521 252.718 119.521C255.691 119.521 258.07 120.413 259.556 122.197C261.34 123.98 262.232 126.359 262.232 129.629C262.232 131.711 261.935 133.792 261.043 135.278C260.448 136.765 259.259 137.657 258.07 138.549C256.583 139.441 254.799 139.738 252.718 139.738C250.637 139.738 249.15 139.441 247.664 138.846C246.177 137.954 245.285 137.062 244.393 135.278C243.501 133.792 243.204 132.008 243.204 129.629ZM248.853 129.629C248.853 131.711 249.15 133.197 249.745 134.089C250.637 134.684 251.529 135.278 252.718 135.278C253.907 135.278 254.799 134.981 255.394 134.089C256.286 133.197 256.583 131.711 256.583 129.332C256.583 127.548 255.989 126.359 255.394 125.467C254.799 124.575 253.907 123.98 252.718 123.98C251.529 123.98 250.637 124.575 249.745 125.467C249.15 126.359 248.853 127.548 248.853 129.629Z" fill="#6B6767"/>
<path d="M287.207 119.818H294.639L297.613 131.711L300.586 119.818H308.019V139.441H303.262V124.575L299.694 139.441H295.531L291.964 124.575V139.441H287.207V119.818Z" fill="#6B6767"/>
<path d="M342.21 119.818H357.373V123.98H347.859V127.251H356.778V131.116H347.859V134.981H357.67V139.441H342.21V119.818Z" fill="#6B6767"/>
<path d="M395.132 131.413L400.186 132.9C399.889 134.684 399.294 135.873 398.7 136.765C397.808 137.657 396.916 138.549 396.024 139.143C394.835 139.441 393.348 139.738 391.861 139.738C389.78 139.738 388.294 139.441 386.807 138.846C385.618 138.252 384.429 137.062 383.537 135.576C382.645 134.089 382.347 132.008 382.347 129.629C382.347 126.359 382.942 123.98 384.726 122.197C386.213 120.413 388.591 119.521 391.564 119.521C393.943 119.521 395.727 120.115 396.916 121.007C398.402 121.899 399.294 123.683 399.889 125.467L395.132 126.656C394.835 126.062 394.537 125.764 394.537 125.467C394.24 125.17 393.645 124.575 393.348 124.575C392.753 124.278 392.159 123.98 391.564 123.98C390.375 123.98 389.483 124.575 388.591 125.764C388.294 126.656 387.996 127.846 387.996 129.629C387.996 131.711 388.294 133.197 388.888 134.089C389.483 134.981 390.375 135.278 391.564 135.278C392.456 135.278 393.348 134.981 393.943 134.386C394.537 133.495 394.835 132.603 395.132 131.413Z" fill="#6B6767"/>
<path d="M436.459 136.17H429.918L429.026 139.441H423.08L430.215 119.818H436.459L443.297 139.441H437.351L436.459 136.17ZM435.27 132.008L433.188 124.872L431.107 132.008H435.27Z" fill="#6B6767"/>
<path d="M467.082 139.441V119.818H476.596C478.38 119.818 479.867 120.115 480.759 120.413C481.651 120.71 482.245 121.305 482.84 122.197C483.435 123.088 483.732 123.98 483.732 125.17C483.732 126.359 483.732 127.251 483.137 128.143C482.84 129.035 482.245 129.629 481.353 129.927C480.759 130.224 480.164 130.521 479.272 130.819C480.164 131.116 480.461 131.413 480.759 131.413C481.056 131.711 481.353 132.008 481.651 132.603C482.245 133.197 482.543 133.494 482.543 133.792L485.219 139.441H478.975L475.704 133.494C475.407 132.603 475.11 132.305 474.812 132.008C474.515 131.711 473.921 131.413 473.326 131.413H473.029V139.441H467.082ZM473.029 127.846H475.407C475.704 127.846 476.002 127.846 476.894 127.548C477.191 127.548 477.488 127.251 477.786 126.954C478.083 126.656 478.083 126.359 478.083 125.764C478.083 125.17 477.786 124.575 477.488 124.278C477.191 123.98 476.299 123.683 475.407 123.683H473.029V127.846Z" fill="#6B6767"/>
<path d="M509.301 119.818H524.464V123.98H514.95V127.251H523.869V131.116H514.95V134.981H524.761V139.441H509.301V119.818Z" fill="#6B6767"/>
<path d="M66.5988 16.947C61.8418 18.7308 57.6794 21.704 54.7062 25.8664C51.4358 30.0288 49.6519 35.6778 49.6519 41.3268C49.6519 48.7597 52.3277 55.3006 57.0847 59.7603C61.8418 64.5174 68.3827 67.4905 75.5183 67.4905C82.9512 67.4905 89.1948 64.5174 93.9518 59.7603C98.7089 55.3006 101.682 48.7597 101.682 41.3268C101.682 39.5429 101.385 37.759 101.087 35.9751C100.79 34.4885 100.493 33.2993 99.8981 32.11L99.6008 32.4073V31.8127C99.0062 32.11 98.1143 32.11 97.5196 32.11C96.3304 32.4073 94.8438 32.4073 93.6545 32.4073C87.7082 32.4073 82.3565 30.9208 77.5995 27.9476C73.1398 25.2718 69.572 21.4067 67.1935 16.947L66.5988 17.2443V16.947ZM51.1384 23.1906C55.0035 17.8389 60.6525 13.9738 67.1935 12.1899L68.9774 11.5953V11.8926H69.572L70.1666 13.3792C72.5451 17.8389 75.8156 21.4067 79.978 24.0825C83.8431 26.7584 88.6002 27.9476 93.6545 27.9476C94.8438 27.9476 96.033 27.9476 96.925 27.9476C98.1143 27.6503 99.3035 27.6503 100.195 27.353L101.979 26.7584V27.0557H102.574L103.466 28.5422C104.358 30.6235 104.953 32.7047 105.547 34.7859C105.844 36.8671 106.142 39.2456 106.142 41.3268C106.142 49.9489 102.871 57.3818 97.2223 63.0308C91.5733 68.6798 84.1404 71.9503 75.5183 71.9503C67.1935 71.9503 59.4633 68.6798 54.1116 63.0308C48.4626 57.3818 45.1921 49.9489 45.1921 41.3268C45.1921 34.4885 47.2733 28.2449 51.1384 23.1906Z" fill="#FCC603" stroke="#FCC603" stroke-width="1.33365"/>
<path d="M135.278 93.0596C134.981 88.3026 133.197 83.2482 130.224 79.3831C126.954 74.9234 122.197 71.6529 116.548 69.869C109.709 67.7878 102.574 68.6798 96.6275 71.9503C90.9785 75.2207 86.2214 80.5724 84.1402 87.4106C82.059 94.5462 82.951 101.384 86.2214 107.331C89.4919 113.277 94.8436 117.737 101.682 119.818C103.466 120.413 105.547 120.71 107.331 121.007C108.52 121.007 109.709 121.007 110.899 121.007V120.71L111.493 120.413C111.493 119.818 111.493 119.223 111.791 118.629C111.791 117.439 112.088 115.953 112.682 114.764C114.169 109.115 117.44 104.358 121.602 100.79C125.467 97.222 129.927 94.8435 134.981 93.6543V93.3569L135.278 93.0596ZM133.792 76.7073C137.657 82.059 139.738 88.3026 139.738 95.1408V96.9247L139.441 97.222L139.144 97.5194L137.36 97.8167C132.603 98.7086 128.143 100.79 124.575 104.06C121.007 107.033 118.331 111.196 116.845 115.953C116.548 117.142 116.25 118.331 116.25 119.223C115.953 120.413 115.953 121.602 115.656 122.494V124.278H115.358V124.872L113.574 125.17C111.493 125.467 109.115 125.467 107.033 125.467C104.952 125.17 102.574 124.872 100.493 124.278C92.4651 121.899 85.9241 116.25 82.3563 109.412C78.4912 102.574 77.5993 94.2489 79.9778 86.2214C82.3563 78.1939 87.708 71.9503 94.5463 68.0852C101.385 64.2201 109.709 63.3281 117.737 65.7066C124.575 67.4905 129.927 71.6529 133.792 76.7073Z" fill="#6B6767" stroke="#6B6767" stroke-width="1.33365"/>
<path d="M15.7578 96.9248C15.7578 90.3838 17.839 83.8429 21.7041 78.7885C25.5692 73.4369 30.9209 69.5718 37.4618 67.4906C45.4893 65.112 53.8142 66.3013 60.6524 69.8691C67.4907 73.7342 73.1397 79.9778 75.5182 88.3026C77.8967 96.3301 76.7074 104.655 73.1397 111.493C69.2746 118.331 63.0309 123.683 55.0034 126.062C52.6249 126.656 50.5437 127.251 48.4625 127.251C46.084 127.548 44.0028 127.251 41.9216 126.954L39.8403 126.656V126.359H39.543V124.575C39.543 123.386 39.543 122.197 39.2457 121.305C38.9484 120.115 38.9484 118.926 38.6511 118.034C37.1645 113.277 34.4887 109.115 30.9209 105.844C27.3531 102.574 22.5961 100.493 17.839 99.6006L16.0551 99.3033V99.006H15.7578V96.9248ZM25.2719 81.1671C22.2987 85.3295 20.5149 90.0865 20.2175 95.1409H20.5149V95.7355C25.2719 96.9248 30.0289 99.3033 33.894 102.574C38.0565 106.142 41.0296 111.196 42.8135 116.845C43.1108 118.034 43.4081 119.223 43.7054 120.413C43.7054 121.007 43.7054 121.899 44.0028 122.494H44.3001V122.791C45.4893 123.089 46.9759 123.089 48.1652 122.791C49.9491 122.791 51.733 122.494 53.5168 121.899C60.6524 119.818 66.0041 115.061 69.2746 109.412C72.2477 103.466 73.1397 96.3301 71.3558 89.4919C69.2746 82.6536 64.5175 77.0046 58.5712 74.0315C52.9222 70.761 45.7867 69.8691 38.6511 71.9503C33.2994 73.4369 28.5424 77.0046 25.2719 81.1671Z" fill="#02ACF2" stroke="#02ACF2" stroke-width="1.33365"/>
</svg>
