<svg width="100" height="100" viewBox="0 0 100 100" fill="none" xmlns="http://www.w3.org/2000/svg">
<path fill-rule="evenodd" clip-rule="evenodd" d="M98 50C98 76.5097 76.5097 98 50 98C23.4903 98 2 76.5097 2 50C2 23.4903 23.4903 2 50 2C76.5097 2 98 23.4903 98 50ZM100 50C100 77.6142 77.6142 100 50 100C22.3858 100 0 77.6142 0 50C0 22.3858 22.3858 0 50 0C77.6142 0 100 22.3858 100 50ZM58.3431 77.5219H39.2349C39.1504 77.4938 39.0659 77.4797 38.9533 77.4656L38.9266 77.4616C38.6443 77.4196 38.2155 77.3557 37.6015 77.0009C36.9819 76.6348 36.5032 76.0857 36.1934 75.4661C35.9118 74.8747 35.7569 74.2129 35.7709 73.551C35.785 72.9033 35.9681 72.2415 36.306 71.6642C36.6581 71.0727 37.1931 70.5517 37.9254 70.1856C38.2211 70.0448 38.4886 69.9603 38.7562 69.904C39.0519 69.8618 39.3757 69.8477 39.7559 69.8336L51.2603 69.5097C51.2884 69.5379 51.4433 69.7069 51.556 69.8336L51.6686 69.9463L53.4429 71.7205L53.471 71.7486L53.5555 71.8191C53.9639 72.1711 54.4567 72.5794 55.2452 72.6498C56.2191 72.7333 56.7393 72.1571 57.1319 71.7222L57.1462 71.7064C57.1744 71.6782 57.2025 71.6501 57.2589 71.5797L58.7937 69.8618C58.8334 69.8221 58.8641 69.7869 58.8909 69.7562C58.9117 69.7324 58.9302 69.7112 58.9486 69.6928C59.0237 69.601 59.0989 69.5141 59.1799 69.4204C59.2355 69.3561 59.2939 69.2886 59.357 69.214C59.3668 69.1944 59.3834 69.1816 59.3974 69.1709C59.4035 69.1662 59.409 69.162 59.4133 69.1577C59.4172 69.1538 59.4212 69.1487 59.4258 69.1428C59.4375 69.1278 59.4533 69.1076 59.4837 69.0873V69.0732L61.5677 66.7076C61.7367 66.5386 62.0042 66.2429 62.2577 65.9331L62.2578 65.933C62.5112 65.6373 62.7646 65.3417 62.9477 65.1586C62.9873 65.119 63.0181 65.0838 63.0449 65.053C63.0657 65.0292 63.0841 65.0081 63.1026 64.9897C63.1307 64.9474 63.173 64.8911 63.2293 64.8489C63.2505 64.8234 63.2807 64.789 63.3164 64.7483C63.399 64.654 63.5111 64.5261 63.6095 64.3983C63.7221 64.2715 63.8066 64.1307 63.8348 64.0322C63.9193 63.7646 63.8911 63.5111 63.7925 63.314C63.6799 63.0746 63.4687 62.8916 63.2434 62.8071C62.6097 62.5818 62.2999 62.9479 62.0887 63.2154C62.0605 63.2436 62.0465 63.2577 62.0324 63.2577L60.92 64.525L60.9059 64.5391C60.8777 64.5743 60.846 64.6095 60.8144 64.6447C60.7827 64.6799 60.751 64.7151 60.7228 64.7503L60.6524 64.8348H60.6383L55.6536 70.4813C55.64 70.4949 55.6264 70.51 55.6123 70.5256C55.5827 70.5584 55.551 70.5935 55.5128 70.6221C55.5043 70.6307 55.4944 70.6392 55.4837 70.6485C55.459 70.67 55.4296 70.6955 55.4001 70.7348C54.9214 70.5377 54.3018 69.8758 53.7808 69.3126C53.6925 69.2243 53.6118 69.1398 53.5348 69.0591C53.4646 68.9855 53.3974 68.9151 53.3302 68.8479C53.2598 68.7775 53.1859 68.7072 53.112 68.6368C53.0381 68.5663 52.9641 68.4959 52.8937 68.4255C52.8233 68.3551 52.7529 68.2862 52.6825 68.2174C52.5417 68.0797 52.4009 67.942 52.26 67.7918C52.3653 67.2656 52.876 66.6166 53.2757 66.1087C53.3039 66.0729 53.3315 66.0378 53.3584 66.0035C53.4186 65.9433 53.4682 65.8779 53.5171 65.8136C53.5482 65.7726 53.5789 65.7321 53.6118 65.6937C53.8789 65.3503 54.1253 65.0276 54.3645 64.7144C54.5666 64.4496 54.7637 64.1916 54.9636 63.9336C56.2169 62.2861 57.4982 60.6104 58.7374 59.0756L60.0469 57.4985C60.3567 57.1324 60.6383 56.8085 60.9481 56.4565C61.2438 56.1326 61.5536 55.8087 61.8916 55.4708L62.0183 55.344C62.0292 55.3331 62.0401 55.3201 62.0535 55.3042C62.0746 55.2789 62.1019 55.2464 62.145 55.2032C62.2436 55.1047 62.4267 54.9498 62.6379 54.7808C62.9336 54.5555 63.2575 54.3302 63.4546 54.2035C64.046 53.8233 64.8064 53.4712 65.609 53.2037C66.1863 53.0206 66.7918 52.8798 67.341 52.8376C67.3621 54.9915 67.3595 57.1612 67.3568 59.3349C67.356 60.0602 67.3551 60.7859 67.3551 61.5116C67.3551 62.518 67.3504 63.5336 67.3464 64.3943C67.3435 65.0269 67.341 65.5757 67.341 65.9754C67.341 66.2288 67.341 66.4119 67.3269 66.609C67.3265 66.6387 67.326 66.6685 67.3255 66.6985C67.3114 67.6064 67.2955 68.6306 67.6226 69.2985C67.7257 69.5176 67.8288 69.6541 67.9103 69.7621C67.9179 69.7721 67.9252 69.7818 67.9324 69.7914L63.7503 74.1847V74.1988C63.4405 74.5367 63.0462 74.9592 62.6379 75.3675C62.2436 75.7618 61.8352 76.142 61.4973 76.3814C61.1734 76.6067 60.8214 76.8179 60.4412 76.9869C60.0751 77.1558 59.6949 77.2826 59.3006 77.3671C59.2304 77.3811 59.048 77.4092 58.8653 77.4373L58.8641 77.4375C58.667 77.4656 58.4698 77.4938 58.3431 77.5219ZM79.2537 51.6689V68.1861L79.2115 68.3551C79.1974 68.4114 79.1833 68.4677 79.1551 68.524C79.0284 68.7212 78.8876 68.8198 78.7327 68.862C78.5496 68.9183 78.3103 68.9183 78.0568 68.9183V68.9324H70.115C69.7911 68.9324 69.5658 68.8479 69.4109 68.693C69.2701 68.5381 69.1997 68.2847 69.1997 67.9608V67.9467V52.0631C69.1997 51.8519 69.1997 51.6829 69.2279 51.5421C69.242 51.4436 69.2842 51.345 69.3687 51.2464C69.4532 51.1619 69.5377 51.0915 69.6362 51.0493C69.7348 50.993 69.8615 50.9648 70.0305 50.9648H77.9582H78.099C78.5215 50.9507 78.8735 50.9507 79.127 51.3168C79.1692 51.3872 79.1833 51.4436 79.1974 51.4999C79.2115 51.5562 79.2255 51.6125 79.2537 51.6689ZM80 68.2424V51.5984L79.9578 51.4295C79.9437 51.4013 79.9296 51.3591 79.9155 51.3027C79.907 51.2801 79.8991 51.2568 79.8909 51.2328C79.8585 51.1379 79.8224 51.0322 79.7325 50.9085C79.2537 50.2185 78.7327 50.2185 78.099 50.2185H77.9582H70.0305C69.7348 50.2326 69.4954 50.2889 69.2983 50.3875C69.1012 50.472 68.9603 50.6128 68.8195 50.7677C68.6365 50.9648 68.552 51.1619 68.4957 51.4013C68.4534 51.5984 68.4534 51.8097 68.4534 52.0631V67.9467V67.9608C68.4534 68.4818 68.5942 68.9042 68.8759 69.2C69.1716 69.4957 69.5799 69.6646 70.115 69.6646H78.0568C78.3666 69.6646 78.6623 69.6646 78.958 69.5661C79.2819 69.4816 79.5635 69.2844 79.7888 68.9042C79.8711 68.7631 79.8945 68.6612 79.9164 68.5658C79.9207 68.547 79.925 68.5285 79.9296 68.51C79.9366 68.4888 79.9437 68.4642 79.9507 68.4396C79.9578 68.4149 79.9648 68.3903 79.9718 68.3692L80 68.2424ZM20.7463 55.5834V55.344C20.8026 55.2173 20.8167 55.1469 20.8308 55.0765C20.8449 55.0483 20.859 55.0202 21.1265 54.7526L21.1828 54.6963C21.2743 54.5977 21.3659 54.5062 21.4574 54.4147C21.5489 54.3232 21.6405 54.2316 21.732 54.1331L25.4494 50.4297H25.4353C25.6465 50.2326 25.8436 50.0355 26.0408 49.8384L26.0408 49.8383L26.6745 49.2046C26.6827 49.1964 26.6921 49.1859 26.7027 49.1739C26.7284 49.1449 26.7613 49.1079 26.8012 49.0779C26.928 48.9371 27.0547 48.7963 27.2377 48.7259C27.7306 48.5287 28.0967 48.8949 28.3924 49.2046L28.505 49.3173C28.6453 49.4482 28.7669 49.5729 28.8905 49.6996C28.9531 49.7637 29.0161 49.8284 29.0824 49.8946L29.1246 49.9369L35.3063 56.1326C35.7569 56.5832 36.1934 57.0197 36.644 57.4562L37.7846 58.5968L39.6292 60.4414C39.8122 60.6245 39.8967 60.8357 39.8967 61.0469C39.8967 61.2582 39.8122 61.4835 39.6292 61.6665C38.6013 62.7367 37.5029 63.8209 36.4046 64.8911L34.0812 67.2145C34.0523 67.2337 34.03 67.2596 34.0098 67.283C34.0005 67.2938 33.9916 67.3041 33.9826 67.3131C33.9738 67.3219 33.9647 67.331 33.9555 67.3403C33.7014 67.5954 33.3166 67.9816 32.8139 67.7777C32.5659 67.6675 31.4688 66.5464 30.8148 65.8782L30.7721 65.8345L30.3778 65.4403C29.9343 64.9967 29.4907 64.5496 29.0472 64.1026C28.6036 63.6555 28.1601 63.2084 27.7165 62.7648C27.2101 62.2678 26.71 61.7646 26.2078 61.2592C25.9558 61.0058 25.7034 60.7518 25.4494 60.4978L25.21 60.2584C24.2666 59.3431 21.042 56.1326 20.873 55.9073C20.8651 55.8836 20.8528 55.8554 20.8385 55.8228C20.8273 55.7974 20.815 55.7692 20.8026 55.7383C20.7956 55.7102 20.785 55.6855 20.7745 55.6609C20.7639 55.6362 20.7533 55.6116 20.7463 55.5834ZM20 55.2455V55.6679L20.0563 55.851C20.0704 55.8791 20.0986 55.9355 20.1126 55.9918L20.1127 55.9918C20.1549 56.1045 20.1971 56.2171 20.2675 56.3157C20.4441 56.5628 22.7548 58.8654 24.0598 60.1659C24.3164 60.4216 24.5341 60.6385 24.689 60.7935L24.9284 61.0188C25.3104 61.4007 25.6888 61.7827 26.0655 62.1629C26.4386 62.5395 26.81 62.9144 27.1814 63.2858C27.7827 63.8778 28.3778 64.476 28.9707 65.072C29.2664 65.3693 29.5616 65.6661 29.8568 65.9613L30.237 66.3415C30.2789 66.3841 30.3226 66.4288 30.3678 66.475C31.0692 67.1918 32.1487 68.2949 32.5323 68.4536C33.5044 68.8703 34.1067 68.246 34.5013 67.837L34.5177 67.82L34.6022 67.7355L36.9256 65.4121L36.9268 65.4109C38.0247 64.3271 39.1227 63.2432 40.1643 62.1734C40.4741 61.8496 40.629 61.4553 40.629 61.0469C40.643 60.6527 40.4741 60.2443 40.1643 59.9204H40.1502L38.3056 58.0758L37.165 56.9352C37.02 56.7903 36.8735 56.6453 36.7265 56.4998C36.4307 56.2072 36.1329 55.9126 35.8414 55.6116V55.5975L29.6456 49.4159L29.6034 49.3736L29.0261 48.7963L28.9134 48.6836C28.4628 48.219 27.8996 47.6698 26.9561 48.05C26.6322 48.1767 26.4492 48.3739 26.2661 48.571L26.1535 48.6836L25.5198 49.3173C25.3227 49.5144 25.1256 49.7116 24.9143 49.9087L21.211 53.6121C21.1195 53.7106 21.0279 53.8022 20.9364 53.8937C20.8449 53.9852 20.7533 54.0767 20.6618 54.1753L20.6055 54.2316C20.1971 54.64 20.169 54.7386 20.1267 54.8935C20.1237 54.9026 20.1213 54.9111 20.1188 54.9198C20.11 54.9512 20.1004 54.9852 20.0563 55.0624L20 55.2455ZM53.5414 22.4363H54.4004C54.5412 22.4785 54.7383 22.5067 54.9355 22.5349C55.0157 22.5472 55.0986 22.5595 55.1736 22.5707C55.2697 22.585 55.3527 22.5973 55.4001 22.6053C56.3717 22.8446 57.2589 23.3516 57.9911 24.0415C58.6951 24.7034 59.2302 25.5623 59.5119 26.5339C59.8498 27.6604 59.8076 28.8291 59.5682 29.9697C59.2443 31.5046 58.5543 32.969 57.8925 34.0955C57.4138 34.8841 56.6956 35.9261 55.9071 36.9399C55.1326 37.9538 54.3159 38.9254 53.64 39.6294L53.4851 39.7843V39.7984C53.4851 39.7988 53.4851 39.7991 53.4851 39.7994C53.4818 39.8023 53.4739 39.8124 53.4569 39.8406L53.3443 39.9533C53.2739 40.0237 53.2035 40.0941 53.1471 40.1645C53.0204 40.3194 52.7388 40.6151 52.4149 40.9531C52.0989 41.2849 51.743 41.6477 51.4591 41.9372C51.237 42.1636 51.059 42.3451 50.9786 42.4316C50.7956 42.6146 50.5703 42.8399 50.3309 43.0934C49.8803 43.5581 49.3593 44.0932 49.0636 44.3607C49.0214 44.403 48.951 44.4593 48.8665 44.4874C48.8101 44.5156 48.7538 44.5297 48.6834 44.5156C48.5285 44.5156 48.4159 44.403 48.3032 44.2903H48.2891L47.9512 43.9383C47.2049 43.2061 46.36 42.3753 45.7404 41.6994L42.6567 38.3621C42.6203 38.3184 42.5857 38.2767 42.5524 38.2363C42.4567 38.1204 42.3704 38.0159 42.2765 37.9115C42.2201 37.8411 42.1638 37.7707 42.0793 37.6581C41.6006 37.0948 41.1359 36.4893 40.6994 35.8838C40.2769 35.2783 39.8545 34.6447 39.4743 33.9969C38.8266 32.8986 38.1507 31.4342 37.8409 29.8852C37.6156 28.7447 37.5874 27.5618 37.9254 26.4635C38.1788 25.6468 38.6013 24.9287 39.1645 24.3232C39.7278 23.7036 40.4318 23.1967 41.2204 22.8587C41.9104 22.5771 42.4877 22.5067 42.8115 22.4785C42.9242 22.4644 43.0087 22.4504 43.0791 22.4363H43.9099C44.0225 22.4785 44.1633 22.4926 44.3182 22.5067L44.3469 22.5103C44.8007 22.5668 45.5483 22.6599 46.4445 23.2389C46.7261 23.422 46.9937 23.6473 47.233 23.8866C47.4865 24.126 47.7118 24.3936 47.923 24.6752L47.9793 24.7597C48.0216 24.816 48.0638 24.8723 48.1483 24.9709L48.5708 25.4778L49.1058 25.1117C49.2607 24.9991 49.3593 24.8723 49.5001 24.6893C49.7254 24.3654 50.1479 23.8022 50.9786 23.2389C51.8376 22.6616 52.7106 22.5489 53.1753 22.4926C53.3161 22.4785 53.4288 22.4644 53.5414 22.4363ZM54.4849 21H53.4569L53.2035 21.0422C53.1829 21.0525 53.1549 21.0553 53.0919 21.0615C53.0686 21.0638 53.0406 21.0666 53.0063 21.0704L52.9953 21.0717C52.4013 21.1424 51.3095 21.2723 50.176 22.042C49.486 22.5067 49.0214 22.9854 48.7116 23.3516C48.5567 23.1826 48.4018 23.0136 48.2469 22.8587C47.9371 22.5489 47.5992 22.2673 47.219 22.0279C46.0361 21.2675 45.0645 21.1408 44.4872 21.0704L44.276 21.0563L44.0084 21H43.0087L42.7834 21.0422H42.6707C42.2624 21.0845 41.5583 21.169 40.6712 21.5351C39.6855 21.9575 38.7984 22.5771 38.0943 23.3516C37.4044 24.1119 36.8693 25.0272 36.5595 26.0411C36.1371 27.4069 36.1652 28.8291 36.4328 30.1669C36.7707 31.8988 37.517 33.5182 38.2492 34.7292C38.6153 35.3769 39.0519 36.0387 39.5306 36.7005C40.0094 37.3905 40.5022 38.0242 40.9669 38.5874C40.9974 38.6255 41.0362 38.6678 41.0787 38.7142C41.1147 38.7534 41.1535 38.7957 41.1922 38.8409C41.2506 38.9122 41.3089 38.9806 41.3659 39.0473C41.4327 39.1255 41.4976 39.2014 41.5583 39.2774L41.5865 39.3196L44.6843 42.671C45.3884 43.4314 46.2051 44.2481 46.9373 44.9662L47.2753 45.3042H47.2894C47.5851 45.5999 47.8949 45.9096 48.5989 45.9519C48.8946 45.966 49.1481 45.9237 49.3734 45.8392C49.6409 45.7266 49.8803 45.5717 50.0493 45.4168C50.4013 45.0789 50.9082 44.5578 51.3729 44.0791C51.5056 43.9464 51.6339 43.8138 51.7483 43.6955C51.8404 43.6004 51.9234 43.5145 51.9925 43.4454C52.1896 43.2483 52.8796 42.5442 53.4569 41.9528C53.5632 41.8377 53.6667 41.7267 53.7631 41.6234C53.973 41.3983 54.149 41.2097 54.2455 41.0939C54.2666 41.0728 54.2842 41.0516 54.3018 41.0305C54.3194 41.0094 54.337 40.9883 54.3581 40.9671C54.4285 40.9108 54.4989 40.8404 54.5553 40.7559C54.5693 40.7418 54.5834 40.7278 54.6116 40.6855L54.6679 40.6292C55.3861 39.8829 56.245 38.855 57.0476 37.813C57.8644 36.7569 58.6247 35.6585 59.1317 34.8277C59.8498 33.6027 60.6102 31.9833 60.9763 30.2513C61.2579 28.9136 61.3002 27.5055 60.8918 26.1256C60.5398 24.9005 59.8639 23.8444 58.9768 22.9995C58.0756 22.1406 56.9632 21.5069 55.7522 21.2112C55.6548 21.1847 55.5241 21.1637 55.3845 21.1413C55.3019 21.128 55.2163 21.1143 55.1326 21.0986C54.9355 21.0845 54.7383 21.0563 54.7383 21.0422L54.4849 21ZM43.1849 60.8076C42.6955 60.7935 42.2061 60.7794 41.7132 60.7653C41.671 60.3851 41.6428 60.1317 41.4034 59.7374C41.1438 59.3139 40.1817 58.3734 39.5459 57.7519L39.4884 57.6956C39.4109 57.6111 39.337 57.5372 39.2719 57.4721C39.2068 57.4069 39.1504 57.3506 39.1082 57.3013L32.9547 51.1619L32.7716 50.9789C32.2366 50.4579 30.7299 48.9653 30.1666 48.3739C30.186 48.3609 30.2054 48.3451 30.2234 48.3303C30.2447 48.3129 30.264 48.297 30.2793 48.2894C30.8988 47.8388 31.4621 47.4727 32.0817 47.177C32.6872 46.8953 33.349 46.6841 34.1375 46.5292C36.5173 46.0645 41.8681 46.7968 45.0786 47.2474C45.4447 47.2896 45.7686 47.3318 46.1347 47.3882C46.2809 47.4064 46.4301 47.4262 46.5832 47.4465C46.9019 47.4887 47.2377 47.5332 47.5992 47.5712C47.9535 47.6257 48.2903 47.6685 48.5944 47.7072C48.7615 47.7284 48.9188 47.7484 49.0636 47.7684C49.1201 47.7684 49.195 47.7776 49.2805 47.7882C49.3443 47.796 49.4139 47.8046 49.486 47.8106C49.8381 47.8388 50.1901 47.881 50.4999 47.9514C50.9223 48.05 51.1054 48.1486 51.2743 48.2471C51.2955 48.2542 51.3166 48.2647 51.3377 48.2753C51.3588 48.2859 51.38 48.2964 51.4011 48.3034C51.4152 48.8104 51.4152 49.3173 51.4011 49.8101V50.6409V50.993C51.4152 51.528 51.4292 52.2039 51.2743 52.5701C50.5532 52.5701 48.8441 52.4603 47.3876 52.3667C47.1946 52.3543 47.006 52.3422 46.8247 52.3307C46.6298 52.318 46.4437 52.3052 46.269 52.2933C45.863 52.2656 45.5176 52.2419 45.2617 52.2321C45.0263 52.219 44.7849 52.2029 44.5403 52.1866C44.2579 52.1678 43.9712 52.1486 43.6846 52.1335C43.4658 52.121 43.2387 52.1058 43.007 52.0902C42.7167 52.0706 42.4191 52.0506 42.1216 52.035C42.0776 52.0276 42.0336 52.0241 41.9876 52.0204C41.9453 52.0171 41.9013 52.0136 41.854 52.0068C41.8355 52.0052 41.8167 52.0035 41.7976 52.0018C41.3255 51.9596 40.7144 51.9051 40.3896 52.1758C40.2206 52.3025 40.108 52.4715 40.0657 52.6405C40.0094 52.8094 40.0094 52.9643 40.0376 53.1333C40.0657 53.2741 40.1361 53.429 40.2347 53.5417C40.3473 53.6965 40.5022 53.7951 40.6853 53.8655C40.884 53.9185 42.5783 54.0089 43.4348 54.0546C43.4887 54.0575 43.5393 54.0602 43.586 54.0627L43.8676 54.0908L50.1619 54.471C50.1804 54.471 50.2069 54.4737 50.2367 54.4767C50.2752 54.4806 50.3194 54.4851 50.3591 54.4851C51.3166 54.5555 52.3023 54.6259 52.95 53.5135C53.4036 52.7163 53.3742 51.4362 53.3463 50.2231L53.3443 50.134V50.1339C53.3302 49.6552 53.3161 49.1764 53.3443 48.7681L53.3724 48.74L53.3865 48.7259L54.8932 47.3037L54.9495 47.2474C54.9575 47.2395 54.9654 47.2327 54.9745 47.2248C54.998 47.2046 55.0296 47.1774 55.0904 47.1065V47.1206C55.111 47.1 55.1279 47.0812 55.1431 47.0643C55.1692 47.0352 55.1903 47.0117 55.2171 46.9939C55.2312 46.9728 55.2488 46.9552 55.2646 46.9393C55.2804 46.9235 55.2945 46.9094 55.3016 46.8953L56.1605 46.0927C56.2243 46.0502 56.256 46.0157 56.2859 45.9832C56.2956 45.9726 56.3051 45.9622 56.3154 45.9519L56.3858 45.8815C56.4281 45.8392 56.4703 45.797 56.5126 45.7688C56.5333 45.7377 56.5617 45.7143 56.5808 45.6984C56.5877 45.6928 56.5933 45.6881 56.597 45.6843L57.0336 45.276C57.0801 45.2295 57.1223 45.1915 57.1603 45.1574C57.1913 45.1295 57.2195 45.1042 57.2448 45.0789L57.456 44.8676L58.9345 43.4877L59.0894 43.3328C59.0934 43.3288 59.0973 43.3238 59.1019 43.3179C59.1136 43.3029 59.1294 43.2826 59.1598 43.2624L60.8636 41.643C60.92 41.6008 60.9904 41.5304 61.0749 41.4459C61.1414 41.3836 61.2134 41.3154 61.2889 41.2439C61.7256 40.8306 62.2815 40.3044 62.5816 40.1364C62.9195 39.9392 63.3279 39.7702 63.7785 39.6858C64.1868 39.6153 64.6092 39.5872 65.0458 39.6576C65.8202 39.7702 66.4961 40.1223 67.0453 40.601C67.6226 41.122 68.031 41.812 68.2422 42.5442C68.3689 42.9808 68.4112 43.4173 68.3689 43.8538C68.3267 44.2903 68.214 44.7268 68.031 45.107C67.7563 45.6955 67.3602 46.0897 66.978 46.47C66.9487 46.4992 66.9195 46.5283 66.8904 46.5574C66.7919 46.6418 66.6933 46.7404 66.5948 46.8389L66.5947 46.839C65.4119 48.0359 64.2291 49.2187 63.0462 50.3875C62.7041 50.7296 62.3604 51.0718 62.0161 51.4144C61.3262 52.1013 60.6341 52.7902 59.9484 53.4853L54.9636 58.4701C54.9214 58.5123 54.8827 58.5546 54.8439 58.5968C54.8052 58.639 54.7665 58.6813 54.7242 58.7235C54.6987 58.7491 54.673 58.7748 54.6472 58.8006C54.2315 59.2172 53.7769 59.6727 53.2598 59.9908C51.6123 61.0188 50.4295 60.9906 48.3314 60.9343C48.1906 60.9343 48.0498 60.9343 47.9089 60.9202C46.8247 60.9061 45.7404 60.878 44.6562 60.8498C44.1634 60.8357 43.6742 60.8216 43.1849 60.8076ZM41.3753 61.4975L44.628 61.582C45.1701 61.5961 45.7158 61.6102 46.2614 61.6243C46.8071 61.6383 47.3527 61.6524 47.8949 61.6665C48.0357 61.6665 48.1765 61.6665 48.3173 61.6806C50.5421 61.7369 51.8094 61.7651 53.6541 60.6104C54.2736 60.2302 54.7806 59.7092 55.2452 59.2305C55.3297 59.1601 55.4142 59.0756 55.4846 58.9911L60.4694 54.0063C60.9833 53.4924 61.5008 52.9784 62.0183 52.4644C62.5358 51.9505 63.0533 51.4365 63.5672 50.9226C63.8627 50.6271 64.159 50.3316 64.4556 50.0359C65.3463 49.1479 66.2389 48.2579 67.1157 47.36C67.1491 47.3266 67.1825 47.2948 67.2153 47.2636C67.2794 47.2026 67.3415 47.1436 67.3973 47.0784C67.862 46.6419 68.3408 46.1772 68.6928 45.4309C68.9181 44.9521 69.0589 44.4452 69.1012 43.9101C69.1434 43.4032 69.1012 42.8681 68.9463 42.3471C68.7069 41.4741 68.214 40.6714 67.5381 40.0659C66.8904 39.4745 66.0737 39.0662 65.1584 38.9254C64.6374 38.855 64.1164 38.869 63.6376 38.9676C63.1166 39.0662 62.6238 39.2633 62.2014 39.5027C61.7836 39.7533 61.0492 40.4446 60.57 40.8957L60.5539 40.9108C60.5298 40.9348 60.5075 40.9589 60.4856 40.9823C60.4434 41.0276 60.4031 41.0708 60.3567 41.108L58.6388 42.7273C58.6247 42.7484 58.6071 42.766 58.5895 42.7836C58.5719 42.8012 58.5543 42.8188 58.5402 42.8399L58.4417 42.9385H58.4276L56.9491 44.3326L56.935 44.3466L56.7379 44.5438C56.6982 44.5768 56.6648 44.6067 56.6332 44.635C56.5975 44.667 56.564 44.6969 56.5266 44.7268L56.5126 44.7409L56.1042 45.1493V45.1352L56.0338 45.2056C56.0217 45.2152 56.01 45.2245 55.9987 45.2335C55.9441 45.2768 55.8974 45.3138 55.8507 45.3605C55.8226 45.4027 55.7944 45.4309 55.7803 45.445L55.6818 45.5435L55.6677 45.5576L54.8087 46.3462L54.6679 46.487C54.6514 46.5035 54.6349 46.5248 54.6213 46.5425C54.6116 46.555 54.6033 46.5656 54.5975 46.5715C54.5834 46.5855 54.5271 46.6419 54.4567 46.6982L54.3863 46.7545L54.3722 46.7686L52.8796 48.1908L52.8514 48.2049C52.843 48.2125 52.8347 48.2198 52.8267 48.227C52.7007 48.3393 52.6253 48.4065 52.6121 48.6977C52.5839 49.1342 52.598 49.6411 52.6121 50.1479V50.1481C52.6402 51.2887 52.6684 52.5137 52.3023 53.1474C51.9015 53.8383 51.1753 53.797 50.4431 53.7552L50.4013 53.7529C50.376 53.7529 50.3507 53.75 50.3228 53.7469C50.2887 53.7431 50.2507 53.7388 50.2042 53.7388L43.9099 53.3445L43.6142 53.3304C43.5506 53.3269 43.4797 53.323 43.4031 53.3187C42.5621 53.2722 41.0267 53.1873 40.9106 53.1615V53.1474C40.8683 53.1474 40.8402 53.1192 40.812 53.0911C40.7839 53.0488 40.7698 53.0206 40.7557 52.9784C40.7557 52.9362 40.7557 52.8939 40.7698 52.8658C40.7839 52.8235 40.7979 52.7813 40.8543 52.7531C40.9406 52.6667 41.3189 52.6993 41.6481 52.7276C41.6945 52.7316 41.7401 52.7355 41.7836 52.739C41.7979 52.7408 41.812 52.7426 41.8259 52.7444C41.9211 52.7565 42.0056 52.7672 42.0793 52.7672C42.3093 52.78 42.5392 52.7956 42.7731 52.8116C43.0548 52.8308 43.3423 52.8504 43.6423 52.8658C44.1633 52.908 44.6843 52.9362 45.2194 52.9643C45.4461 52.9742 45.7971 52.9978 46.2094 53.0256C46.3861 53.0375 46.5741 53.0502 46.7684 53.0629C47.0073 53.0784 47.2578 53.095 47.5139 53.112C49.1137 53.2181 50.9311 53.3387 51.5137 53.3023L51.6827 53.2882L51.7813 53.1474C52.1755 52.6405 52.1615 51.7111 52.1474 50.9789C52.1474 50.9447 52.1451 50.9128 52.1423 50.8749C52.1383 50.819 52.1333 50.7499 52.1333 50.6409C52.1333 50.3301 52.1389 50.1537 52.143 50.0234C52.1455 49.9471 52.1474 49.8866 52.1474 49.8242C52.1474 49.2328 52.1474 48.6414 52.1333 48.05V47.7965L51.8939 47.712C51.7954 47.6839 51.7109 47.6416 51.6264 47.5994C51.4152 47.4727 51.1758 47.3459 50.6548 47.2333C50.3168 47.1488 49.9366 47.1065 49.5564 47.0784C49.4438 47.0643 49.3171 47.0502 49.1481 47.0221C48.8462 46.9919 48.5687 46.9576 48.311 46.9259C48.0879 46.8984 47.8797 46.8727 47.6836 46.8531C47.3778 46.8136 47.0373 46.7672 46.6817 46.7188C46.5298 46.6981 46.3751 46.677 46.2192 46.6559C46.0595 46.6307 45.8647 46.6055 45.6467 46.5773C45.4995 46.5583 45.3418 46.5378 45.1772 46.5151C41.9244 46.0645 36.5032 45.3182 34.0108 45.797C33.1378 45.966 32.4337 46.2053 31.7578 46.5151C31.1101 46.8249 30.5046 47.2192 29.8428 47.698C29.7724 47.7402 29.6456 47.8388 29.5471 47.9233L29.3358 48.1345L29.195 48.3457L29.3358 48.5569C29.4206 48.6901 31.0259 50.2918 31.8947 51.1586C32.0361 51.2997 32.158 51.4213 32.2506 51.514L32.4337 51.6829L38.5731 57.8223L38.9674 58.2166C39.587 58.808 40.5445 59.7515 40.7698 60.1176C40.9221 60.3806 40.9518 60.5892 40.993 60.8773L40.9951 60.892C40.9951 60.9416 41.002 60.998 41.0111 61.0713C41.0149 61.1022 41.0191 61.1361 41.0232 61.1737L41.0655 61.4835L41.3753 61.4975ZM39.1927 78.2542H58.3854L58.5262 78.226C58.5402 78.226 58.7515 78.1978 58.9627 78.1697L58.963 78.1696C59.16 78.1415 59.357 78.1133 59.4555 78.0852C59.9061 77.9866 60.3426 77.8458 60.751 77.6628C61.1594 77.4797 61.5677 77.2403 61.9338 76.9728C62.2999 76.7052 62.7364 76.311 63.1589 75.8885C63.5813 75.4661 63.9897 75.0296 64.2854 74.6916L68.6928 70.0589L68.8618 69.8899L68.7632 69.6646C68.7069 69.552 68.6365 69.4675 68.552 69.3689C68.542 69.3569 68.5314 69.3447 68.5204 69.3318C68.4536 69.2542 68.369 69.1559 68.2844 68.9747C68.0169 68.4536 68.0451 67.482 68.0732 66.6372C68.0732 66.4949 68.0777 66.3527 68.0816 66.2278C68.0846 66.1302 68.0873 66.0433 68.0873 65.9754V61.5116C68.1014 58.4842 68.1014 55.4426 68.0873 52.4574L68.0732 52.0913H67.7071C66.9749 52.0913 66.1582 52.2603 65.3837 52.5137C64.5248 52.7813 63.694 53.1755 63.0462 53.5839C62.8491 53.7106 62.4971 53.9641 62.1873 54.2035C61.9479 54.3865 61.7226 54.5696 61.61 54.7104C61.5959 54.7245 61.5818 54.737 61.5677 54.7495C61.5395 54.7745 61.5114 54.7996 61.4832 54.8371C61.4747 54.8456 61.4649 54.8542 61.4542 54.8635C61.4295 54.8849 61.4 54.9105 61.3706 54.9498L61.3705 54.9499C61.0185 55.3019 60.6946 55.6257 60.399 55.9636C60.1476 56.239 59.8962 56.5347 59.6274 56.8507C59.5801 56.9064 59.5322 56.9628 59.4837 57.0197L58.1601 58.6109C56.9209 60.1457 55.6254 61.8355 54.3722 63.483C53.8935 64.1166 53.4147 64.7362 53.0204 65.2431C52.9641 65.3276 52.8796 65.4403 52.781 65.5529L52.7605 65.5786C52.255 66.2104 51.5552 67.0848 51.4996 67.9045V68.0594L51.5982 68.172C51.8516 68.4395 52.1191 68.6929 52.3865 68.9463L52.3868 68.9465L52.8092 69.3689C52.9242 69.484 53.0509 69.6222 53.1891 69.7731L53.2316 69.8195C53.809 70.4391 54.4989 71.1713 55.1326 71.4248C55.1532 71.4248 55.1663 71.4323 55.1829 71.4419C55.1889 71.4454 55.1955 71.4492 55.203 71.4529C55.3297 71.5093 55.4001 71.5374 55.5269 71.5093C55.6958 71.4811 55.7522 71.4248 55.893 71.284V71.2699C55.9056 71.2572 55.924 71.2417 55.9442 71.2246C55.9689 71.2037 55.9965 71.1805 56.0197 71.1572L56.1887 70.9883L56.2028 70.9742L61.2016 65.3276L61.272 65.2431C61.3189 65.1962 61.3659 65.1368 61.4128 65.0773C61.4363 65.0476 61.4597 65.0178 61.4832 64.9897L62.5816 63.7505L62.652 63.6801C62.7224 63.5956 62.8491 63.4548 63.004 63.5111C63.0462 63.5252 63.1026 63.5675 63.1307 63.6238C63.1448 63.6801 63.1589 63.7364 63.1448 63.7928H63.1307C63.1307 63.8209 63.0885 63.8773 63.0322 63.9477C62.9195 64.1026 62.7646 64.2574 62.6942 64.3279C62.6647 64.3632 62.6402 64.3912 62.6185 64.4159C62.5884 64.4502 62.5639 64.4782 62.5393 64.5109C62.5182 64.532 62.5006 64.5532 62.483 64.5743C62.4654 64.5954 62.4478 64.6165 62.4267 64.6376C62.2578 64.8065 61.9763 65.1302 61.6948 65.4539L61.6944 65.4543C61.4551 65.7501 61.2016 66.0317 61.0467 66.2007L61.0326 66.2147L58.9345 68.5945L58.8923 68.6367L58.7937 68.7353C58.7298 68.8152 58.6567 68.8997 58.5798 68.9887C58.5212 69.0565 58.4603 69.1269 58.3994 69.2C58.3741 69.2252 58.3507 69.2505 58.329 69.2739C58.2904 69.3155 58.2575 69.3509 58.2305 69.3689L56.7097 71.0868C56.705 71.0915 56.6972 71.1009 56.6868 71.1134C56.6659 71.1385 56.6346 71.176 56.597 71.2136C56.3154 71.5374 55.9352 71.9739 55.3016 71.9176C54.7524 71.8754 54.3581 71.5374 54.0343 71.2558L53.9498 71.1854L52.1896 69.4252L52.1051 69.3408C51.908 69.1155 51.6123 68.8057 51.3307 68.7775H51.2884L39.7418 69.1014C39.3194 69.1014 38.9674 69.1155 38.6435 69.1859C38.2915 69.2422 37.9676 69.3408 37.6015 69.5238C36.7285 69.9463 36.0948 70.5799 35.6724 71.298C35.264 71.988 35.0528 72.7625 35.0387 73.537C35.0246 74.3114 35.1936 75.0859 35.5316 75.7899C35.8977 76.5363 36.475 77.1981 37.2354 77.6346C37.9958 78.0852 38.5168 78.1556 38.8547 78.1978C38.9533 78.2119 39.0237 78.226 39.0659 78.2401L39.1927 78.2542ZM55.4221 70.7791C55.4118 70.781 55.4049 70.7836 55.4072 70.7833C55.4086 70.7831 55.4131 70.7819 55.4221 70.7791Z" fill="#ffffff"/>
</svg>
