<svg xmlns="http://www.w3.org/2000/svg" width="160" height="175" viewBox="0 0 160 175">
  <g id="Group_16" data-name="Group 16" transform="translate(-3217 -2563)">
    <g id="Group_14" data-name="Group 14" transform="translate(519.123 -84.605)">
      <path id="Path_6" data-name="Path 6" d="M53.567,43.7H57.1v9.474l2.251.316V55.7H57.1v3.789H54.21V55.7H47.135c-.322-2.211,0-2.211.965-3.474ZM73.506,59.485H70.29c.322-1.579,5.789-10.421,6.753-13.263h-7.4L69.325,43.7H80.259a6.1,6.1,0,0,1-1.286,4.421,32.54,32.54,0,0,0-1.608,3.789C76.4,53.8,74.471,58.537,73.506,59.485ZM34.593,44.959c1.93-.947,3.538-1.9,6.11-1.263,2.251.316,3.859,1.579,4.181,3.789.643,4.421-4.5,7.9-6.11,9.474l6.432.316v2.21H34.271c-.322-2.526,0-1.579,2.573-4.1a19.966,19.966,0,0,0,3.538-3.789c.965-1.263,2.251-3.789.643-5.053-1.93-1.579-4.181,0-5.467.632a6.622,6.622,0,0,1-.965-2.211ZM61.929,60.432,60,60.748l6.11-17.684h1.93C68.039,43.7,62.572,60.116,61.929,60.432ZM41.99,88.221c2.573.632,4.5,1.579,7.075,1.895C78.973,96.432,104.7,68.327,95.375,39.59,88.943,20.327,68.361,9.275,48.422,13.38a38.138,38.138,0,0,0-18.331,9.789,32.7,32.7,0,0,0-4.5,4.737c-9,11.052-11.256,29.052-3.538,42.631a39.441,39.441,0,0,0,3.859,5.368c2.251,2.842,3.538,3.79,4.5,5.053a26.784,26.784,0,0,1-4.181,9.158,18.236,18.236,0,0,1-2.573,2.526c-1.93,2.211-4.5,3.158-3.859,4.105,1.608,1.263,10.934-1.895,12.864-2.526C38.13,92.011,38.452,90.748,41.99,88.221Z" transform="translate(2721.117 2657.268)" fill="#54b329" fill-rule="evenodd"/>
      <path id="Path_7" data-name="Path 7" d="M92.255,13.3c.965-3.789.322-5.684-2.573-7.263a27.579,27.579,0,0,0-7.075-2.842A56.718,56.718,0,0,0,64.6.036c-8.361,0-18.653,2.211-25.728,6-2.251,1.579-3.216,3.789-2.251,7.263-1.93.632-5.467,3.789-7.075,5.053l-1.61,1.578c-9.326,7.9-12.864,18.948-13.829,19.9-4.5-.316-8.361,1.579-9.648,5.684-.965,2.526-.643,11.053-.643,14.526,0,4.737-.643,10.1,1.93,12.947A9.141,9.141,0,0,0,10.57,76.14c1.93.316,5.146,0,6.432-1.263-.322-1.579-1.608-4.421-2.251-8.526a51.294,51.294,0,0,1,3.216-27.789,47.743,47.743,0,0,1,8.361-12.947c.322-.632.965-.947,1.287-1.579L28.9,22.772c1.93-1.9,7.075-6,9.326-6.947a6.462,6.462,0,0,0,1.93,2.21,4.533,4.533,0,0,0,3.537.632c2.894-.316,16.723-9.474,35.376-2.526,1.608.632,4.824,2.526,6.11,2.526a5.094,5.094,0,0,0,5.467-2.842,20.614,20.614,0,0,1,6.11,4.105l7.075,7.263a47.92,47.92,0,0,1,9.97,41.052c-1.608,8.21-4.824,13.579-9.326,19.895-3.538,5.053-10.291,10.421-15.758,13.263-3.216,1.895-10.291,4.737-14.472,5.053-.965-1.895-2.573-2.526-5.789-2.526h-8.04c-2.894,0-4.5.316-5.789,2.526s0,4.421,1.286,5.684c1.93,1.263,5.145.632,7.4.632,1.93,0,6.432.316,8.04,0a5.086,5.086,0,0,0,2.573-1.579c.965-1.263,0-1.579,1.93-1.895,14.472-2.842,25.728-11.684,33.446-22.737,2.573-3.79,5.146-10.1,5.467-10.421a8.045,8.045,0,0,0,6.11-1.263c5.467-3.158,4.181-10.1,4.181-16.737,0-3.79.643-10.737-.643-13.579-1.93-3.789-5.467-5.053-9.648-4.737-.643-.632-2.573-5.368-4.181-8.21a43.259,43.259,0,0,0-8.04-10.421c-.643-.316-.965-.947-1.608-1.263C99.009,18.036,94.506,13.93,92.255,13.3Z" transform="translate(2713.945 2651.033)" fill="#54b329" fill-rule="evenodd"/>
      <path id="Path_8" data-name="Path 8" d="M84.261,51.95c5.146-.316,4.181-5.684,4.181-9.789,0-4.737.965-9.789-4.181-10.1Z" transform="translate(2756.35 2667.013)" fill="#54b329" fill-rule="evenodd"/>
      <path id="Path_9" data-name="Path 9" d="M3.249,51.95h.965v-19.9l-.965.316c-1.608,0-2.894,1.579-3.216,3.474V42.16C.033,45.318-.932,51.318,3.249,51.95Z" transform="translate(2711.94 2667.013)" fill="#54b329" fill-rule="evenodd"/>
      <path id="Path_10" data-name="Path 10" d="M38.76,41.952h4.181V35a41.98,41.98,0,0,0-1.93,3.789C40.368,39.741,39.4,41,38.76,41.952Z" transform="translate(2732.386 2668.485)" fill="#54b329" fill-rule="evenodd"/>
      <path id="Path_11" data-name="Path 11" d="M2.107,52.019c.643.316.322.316,1.286,0v-19.9c-.965-.316-.643-.316-1.286.316l.965-.316v19.9Z" transform="translate(2713.083 2666.944)" fill="#54b329" fill-rule="evenodd"/>
    </g>
    <rect id="Rectangle_10" data-name="Rectangle 10" width="160" height="175" transform="translate(3217 2563)" fill="none"/>
    <g id="Group_15" data-name="Group 15">
      <path id="Path_17" data-name="Path 17" d="M84.449,77.013a5.225,5.225,0,0,0-1.513,1.135,5.224,5.224,0,0,0-1.514,1.135c-1.135.757-2.649,1.892-3.4,2.27l-.757.378a5.04,5.04,0,0,1-1.892,1.135,11.834,11.834,0,0,1-3.784,1.892c-.757.378-4.919,2.27-5.676,2.649a3.412,3.412,0,0,1-1.892.378,25.114,25.114,0,0,1-7.568,2.27c-.378.378-1.892.378-2.649.378L48.5,91.77a5.377,5.377,0,0,1,.757,2.27l.757.757c0,.378,0,.378.378.757l1.892,5.3a38.179,38.179,0,0,1,2.649,5.676,9.35,9.35,0,0,1,1.514,3.405l2.649,6.432a29.3,29.3,0,0,1,2.649,6.055c.757,1.135,2.649,5.3,2.649,6.432a37.126,37.126,0,0,1,3.027,6.81h.757l.757-3.783a9.357,9.357,0,0,1,1.513-3.407c-.378-1.135,1.135-4.918,1.514-6.431l.757-2.649,1.892-6.81.757-2.27L76.5,106.9a2.889,2.889,0,0,1,1.892.757,30.169,30.169,0,0,1,6.054,3.027,7.611,7.611,0,0,1,3.027,1.513,26.043,26.043,0,0,1,3.027,1.136l6.432,3.026,6.432,3.027c.378.378,0,.378.378,0l-2.649-6.432-1.135-2.648-2.649-6.433c-.757-.757-2.649-5.3-3.027-6.432,0-.378-2.27-5.3-2.27-6.054-.757-.378-1.135-2.27-1.514-3.4a22.48,22.48,0,0,1-1.513-3.027,9.043,9.043,0,0,1-1.135-3.4c-.378-.378-.378,0-.378-.757L86.341,78.9l-1.135-2.27C84.828,76.635,84.828,77.013,84.449,77.013Z" transform="translate(3256.117 2599.473)" fill="#54b329" fill-rule="evenodd"/>
      <path id="Path_18" data-name="Path 18" d="M16.7,81.357c0,1.135-.757,2.27-1.135,3.4a22.307,22.307,0,0,0-1.514,3.027l-2.27,4.919v.757c-.757.757-.378,0-.757.378,0,1.135-1.892,4.541-2.27,6.054l-1.518,3.4L2.318,113.9l-1.135,2.27L.047,118.816c.378.378,1.892-.757,2.649-.757a16.454,16.454,0,0,1,2.649-1.513,7.611,7.611,0,0,0,3.027-1.513c1.135-.379,2.27-1.135,3.405-1.135.378-.757,4.919-2.649,6.054-3.407,1.135-.378,5.3-2.648,6.432-2.648a7.607,7.607,0,0,1,3.027-1.514l1.135,3.027a11.693,11.693,0,0,0,.757,3.027l1.135,3.784,1.514,5.3,1.135,3.783.757,2.27,2.27,7.568h.378l1.514-3.4,3.027-6.81a32.7,32.7,0,0,1,2.649-6.432c.378-1.135,2.27-4.54,2.649-6.055a30,30,0,0,1,1.514-3.4c0-.757,1.892-4.162,2.27-4.919.757-1.892,1.514-3.4,2.27-5.3l.757-1.514c.378-1.514,1.892-4.162,1.892-5.3a35.02,35.02,0,0,1-8.7-1.514l-3.027-.757-3.4-.757c-.757,0-5.3-1.514-6.054-2.27-1.135,0-6.054-2.649-6.432-3.027A47.258,47.258,0,0,1,22.75,80.6l-2.27-1.135a6.644,6.644,0,0,0-1.892-1.513C18.209,78.708,17.453,80.978,16.7,81.357Z" transform="translate(3234.953 2600.048)" fill="#54b329" fill-rule="evenodd"/>
    </g>
  </g>
</svg>
