<svg width="100" height="100" viewBox="0 0 100 100" fill="none" xmlns="http://www.w3.org/2000/svg">
<path fill-rule="evenodd" clip-rule="evenodd" d="M98 50C98 76.5097 76.5097 98 50 98C23.4903 98 2 76.5097 2 50C2 23.4903 23.4903 2 50 2C76.5097 2 98 23.4903 98 50ZM100 50C100 77.6142 77.6142 100 50 100C22.3858 100 0 77.6142 0 50C0 22.3858 22.3858 0 50 0C77.6142 0 100 22.3858 100 50ZM39.2083 59.1586C38.125 59.1586 37.0417 59.1586 37.0417 57.515V56.4193C37.5833 56.4193 38.125 55.8714 38.125 55.8714H60.3333C60.3333 55.8714 60.875 56.4193 61.4167 56.4193V57.515C61.4167 59.1586 60.3333 59.1586 59.25 59.1586H58.1667H57.625H57.0833V59.7064V76.1421H41.375V59.7064V59.1586H40.8333H40.2917H39.2083ZM37.5833 59.7064H39.2083H40.2917H40.8333V76.1421V76.69H57.625V76.1421V59.7064H58.1667H59.25C60.875 59.7064 62.5 59.7064 62.5 57.515C62.5 56.9671 61.9583 56.4193 61.4167 55.8714C61.4167 55.8714 61.2881 55.7414 61.0937 55.6081C61.5624 55.7688 62.0312 55.8714 62.5 55.8714C63.0417 55.8714 63.5833 55.7345 64.125 55.5975C64.6667 55.4605 65.2083 55.3236 65.75 55.3236C66.2917 55.0496 66.5625 54.7757 66.7656 54.5703C66.9688 54.3648 67.1042 54.2279 67.375 54.2279V58.6107H66.8333C63.5833 58.6107 62.5 58.6107 61.9583 59.7064C61.4167 60.8021 60.875 62.4457 60.875 65.185C60.875 65.6389 60.7821 66.1867 60.6732 66.8286C60.5192 67.7363 60.3333 68.832 60.3333 70.1157V71.2114C59.7917 72.3071 59.7917 73.4029 59.7917 75.0464C59.7917 75.5943 59.7917 76.1421 60.3333 76.69C60.875 77.2379 61.4167 77.2379 61.9583 77.2379H63.5833C64.4292 76.8101 64.6146 76.3823 64.9131 75.6938C64.9969 75.5005 65.0896 75.2866 65.2083 75.0464L66.2917 64.0893H67.9167C67.375 64.0893 66.8333 64.6371 66.8333 64.6371C66.2917 65.185 66.2917 65.7329 66.2917 65.7329V66.8286C66.2917 67.3764 66.8333 67.9243 67.375 67.9243C66.8333 67.9243 66.8333 68.4721 66.8333 68.4721V70.1157V75.5943C66.8333 76.2258 66.8333 76.4934 66.9371 76.7116C67.0133 76.872 67.1455 77.0058 67.375 77.2379C67.6458 77.2379 67.7813 77.3748 67.9167 77.5118C68.0521 77.6488 68.1875 77.7857 68.4583 77.7857C68.4583 77.7857 69 77.7857 69.5417 77.2379C69.8764 77.2379 70.0043 77.0286 70.181 76.7394C70.2902 76.5607 70.4181 76.3514 70.625 76.1421V73.9507V73.4029V71.7593C70.625 70.1157 70.625 69.5679 71.1667 69.5679C71.1667 69.02 72.25 69.02 74.4167 69.02H77.125C78.2083 69.02 78.2083 70.6636 78.2083 72.3071V73.9507V76.1421C78.2083 76.69 78.75 77.2379 79.2917 77.2379C79.2917 77.7857 79.8333 77.7857 80.375 77.7857L80.9167 77.2379C81.4583 77.2379 82 76.1421 82 75.0464V70.6636C82 69.5679 82 69.02 81.4583 68.4721V67.9243C81.6878 67.6922 81.82 67.5584 81.8963 67.398C82 67.1798 82 66.9123 82 66.2807V48.2014C82 47.6536 81.4583 46.5579 80.9167 46.5579H79.8333H79.2917C78.2083 46.5579 77.6667 47.6536 77.6667 48.2014V64.0893H73.3333C73.875 63.5414 74.4167 63.5414 74.9583 63.5414L76.5833 61.8979C76.5833 61.8979 77.125 61.35 77.125 60.8021V60.2543V48.2014C77.125 47.1057 76.5833 46.01 76.0417 45.4621C75.7514 45.3153 75.5 45.1685 75.2667 45.0323C74.6292 44.66 74.1264 44.3664 73.3333 44.3664C73.6042 44.0925 73.875 43.9555 74.1458 43.8186C74.4167 43.6816 74.6875 43.5446 74.9583 43.2707C76.0417 42.175 76.5833 40.5314 76.5833 39.4357C76.5833 38.34 76.5833 37.7921 76.0417 37.2443C76.0417 36.6964 75.5 36.1486 74.9583 35.6007C74.4167 34.505 72.7917 33.9571 71.1667 33.9571C69.5417 33.9571 68.4583 34.505 67.375 35.6007C67.2261 35.9019 67.0362 36.2032 66.8392 36.5158C66.3196 37.3403 65.75 38.244 65.75 39.4357C65.75 40.6274 66.3196 41.5311 66.8392 42.3556C67.0362 42.6683 67.2261 42.9695 67.375 43.2707C67.7098 43.6093 68.0445 43.7386 68.5072 43.9174C68.7931 44.0278 69.1279 44.1572 69.5417 44.3664H70.625C69.1878 44.851 68.598 45.7641 67.7314 47.1057C67.6182 47.281 67.5002 47.4636 67.375 47.6536L66.2917 48.7493C66.0014 49.0429 65.75 49.3365 65.5167 49.609C64.8792 50.3535 64.3764 50.9407 63.5833 50.9407V50.3929L63.0417 49.845V49.2971C63.0417 49.0232 62.9062 48.8862 62.7708 48.7493C62.6354 48.6123 62.5 48.4754 62.5 48.2014C63.0417 48.2014 63.5833 48.2014 63.5833 47.6536C64.125 47.6536 64.125 47.1057 64.125 46.01V36.6964V35.0529C63.8542 35.0529 63.5833 34.9159 63.3125 34.7789C63.0417 34.642 62.7708 34.505 62.5 34.505H44.625C44.0833 34.505 43.5417 34.505 43 35.0529C43 35.3268 42.8646 35.6007 42.7292 35.8746C42.5938 36.1486 42.4583 36.4225 42.4583 36.6964C42.4583 35.4048 42.4583 34.7221 42.7991 34.3614C43.181 33.9571 43.9908 33.9571 45.7083 33.9571H47.875H56H56.5417V25.1914C56.5417 24.9175 56.4062 24.6436 56.2708 24.3696C56.1354 24.0957 56 23.8218 56 23.5479C55.7292 23.5479 55.5938 23.4109 55.4583 23.2739C55.3229 23.137 55.1875 23 54.9167 23H40.8333H37.5833C34.875 23 34.875 24.0957 34.875 26.835V30.67V32.8614C34.875 32.8614 34.875 33.4093 34.3333 33.4093V33.9571C34.3333 35.6007 34.875 36.6964 36.5 36.6964C36.5 36.9704 36.3646 37.1073 36.2292 37.2443C36.0938 37.3813 35.9583 37.5182 35.9583 37.7921C35.9583 37.7921 35.4167 38.34 35.4167 38.8879H34.875L35.4167 39.4357H35.9583C36.2292 39.1618 36.5 39.0248 36.7708 38.8879C37.0417 38.7509 37.3125 38.6139 37.5833 38.34V37.7921H38.125L39.2083 36.6964H40.2917H41.9167H42.4583V46.5579C42.4583 47.1057 43 47.6536 43 47.6536C43.5417 48.2014 44.0833 48.2014 44.625 48.2014H51.6667H59.7917C59.7917 48.2014 60.875 48.7493 61.4167 49.845C61.9583 50.3929 62.5 50.9407 63.0417 50.9407H61.4167C60.875 50.3929 60.3333 50.3929 59.7917 50.3929C59.25 50.3929 58.7083 50.3929 57.625 50.9407C57.625 51.2146 57.4896 51.4886 57.3542 51.7625C57.2188 52.0364 57.0833 52.3104 57.0833 52.5843C57.0833 52.8582 57.2188 53.1321 57.3542 53.4061C57.4896 53.68 57.625 53.9539 57.625 54.2279C58.1667 54.7757 58.7083 54.7757 59.25 54.7757C59.6273 54.9665 60.0046 55.1573 60.382 55.325C60.3658 55.3241 60.3496 55.3236 60.3333 55.3236H38.125C38.6667 55.3236 39.2083 55.3236 39.75 54.7757C40.2917 54.7757 40.8333 54.7757 41.375 54.2279C41.9167 53.68 41.9167 53.1321 41.9167 52.5843C41.9167 52.0364 41.9167 51.4886 41.375 50.9407C40.8333 50.3929 40.2917 50.3929 39.2083 50.3929C39.2083 50.3929 38.6667 50.3929 38.125 50.9407C37.8944 50.9407 37.6638 50.9517 37.4317 50.9628C36.0279 51.03 34.5676 51.0999 32.7083 48.7493C32.7083 48.7493 32.1667 48.2014 32.1667 47.6536L28.9167 44.3664C30 44.3664 31.0833 43.8186 31.625 43.2707C32.7083 42.175 33.25 40.5314 33.25 39.4357C33.25 38.34 33.25 37.7921 32.7083 37.2443C32.7083 36.6964 32.1667 36.1486 31.625 35.6007C30.5417 34.505 29.4583 33.9571 27.8333 33.9571C26.2083 33.9571 25.125 34.505 24.0417 35.6007C22.9583 36.6964 22.4167 37.7921 22.4167 38.8879C22.4167 40.5314 22.9583 42.175 24.0417 43.2707C24.3125 43.5446 24.5833 43.6816 24.8542 43.8186C25.125 43.9555 25.3958 44.0925 25.6667 44.3664C25.125 44.3664 24.5833 44.3664 24.0417 44.9143L22.4167 46.5579C22.4167 46.5579 22.4167 47.1057 21.875 47.1057V48.2014V60.2543C21.875 60.8021 21.875 61.35 22.4167 61.8979L23.5 62.9936C24.0417 63.5414 24.5833 63.5414 25.125 63.5414C25.6667 63.5414 25.6667 64.0893 25.6667 64.0893H21.3333V48.2014C21.3333 47.6536 20.7917 46.5579 20.25 46.5579H19.1667H18.0833C17.5417 46.5579 17 47.6536 17 48.2014V66.2807C17 66.8286 17 67.3764 17.5417 67.3764C17.5417 67.6514 17.5417 67.7884 17.6101 67.8566C17.6781 67.9243 17.8135 67.9243 18.0833 67.9243C17 69.5679 17 71.7593 17 73.9507V75.0464C17 76.1421 17.5417 76.69 18.0833 77.2379C18.0833 77.2379 18.625 77.7857 19.1667 77.7857C19.1667 77.7857 19.7083 77.7857 19.7083 77.2379C20.25 77.2379 20.7917 76.69 21.3333 76.1421V73.9507V73.4029V72.3071V70.6636V69.5679C21.875 69.5679 21.875 69.02 21.875 69.02H24.5833C26.75 69.02 27.8333 69.02 28.375 69.5679C28.9167 69.5679 28.9167 70.1157 28.9167 71.7593V73.4029C28.9167 73.4029 28.9167 73.9507 28.375 73.9507C28.375 74.4986 28.375 75.5943 28.9167 76.1421C28.9167 76.69 29.4583 77.2379 30 77.2379C30 77.7857 30.5417 77.7857 31.0833 77.7857L31.625 77.2379C31.7701 77.0911 31.9153 76.9836 32.05 76.8838C32.4181 76.6113 32.7083 76.3964 32.7083 75.5943V70.1157C32.7083 69.4739 32.5225 69.208 32.3685 68.9877C32.2596 68.832 32.1667 68.6991 32.1667 68.4721V67.9243C32.7083 67.9243 32.7083 67.3764 32.7083 66.8286C33.25 66.8286 33.25 66.2807 33.25 65.7329C32.7083 65.7329 32.7083 65.185 32.7083 64.6371C32.4375 64.6371 32.3021 64.5002 32.1667 64.3632C32.0312 64.2262 31.8958 64.0893 31.625 64.0893H33.25L34.3333 75.0464C34.3333 76.1421 34.875 76.69 35.9583 77.2379H37.0417H38.125C39.2083 76.69 39.75 76.1421 39.75 75.0464C39.75 74.2836 39.5167 72.8128 39.2666 71.2364C38.9778 69.4162 38.6667 67.4551 38.6667 66.2807V65.7329C38.6667 65.091 38.4808 64.6371 38.3268 64.2611C38.2179 63.9953 38.125 63.7684 38.125 63.5414C38.125 61.35 38.125 60.2543 37.5833 59.7064ZM63.5833 47.6536V46.01V36.6964V35.6007C63.3125 35.6007 63.1771 35.4637 63.0417 35.3268C62.9062 35.1898 62.7708 35.0529 62.5 35.0529H44.625C44.3542 35.0529 44.2188 35.1898 44.0833 35.3268C43.9479 35.4637 43.8125 35.6007 43.5417 35.6007V36.6964V46.5579V47.1057C43.5417 47.6536 44.0833 47.6536 44.625 47.6536H51.6667H59.7917C60.3333 47.6536 60.875 48.2014 61.9583 49.2971L61.9583 49.2971L62.5 49.845V49.2971C62.1891 48.9827 62.0566 48.8487 62.0002 48.6881C61.9583 48.5688 61.9583 48.4348 61.9583 48.2014V47.6536H63.5833ZM35.9583 57.515C35.9583 58.0629 36.5 58.6107 36.5 58.6107H32.1667H31.625V54.2279C31.7666 54.3233 31.8999 54.4146 32.0272 54.5018C33.3608 55.4149 34.0276 55.8714 36.5 55.8714C36.7296 55.8714 36.8619 55.8714 36.9793 55.8297C37.1378 55.7734 37.2693 55.6412 37.5764 55.3306L37.0417 55.8714C36.5 56.4193 35.9583 56.9671 35.9583 57.515ZM37.0417 37.7921L36.5 38.34V37.7921C36.8109 37.4777 36.9434 37.3437 36.9998 37.1831C37.0417 37.0638 37.0417 36.9298 37.0417 36.6964V36.1486C35.4167 36.1486 35.4167 35.6007 35.4167 33.9571V33.4093V32.8614V30.67V26.835C35.4167 24.6436 35.4167 23.5479 37.5833 23.5479H40.8333H54.375C54.9167 24.0957 55.4583 24.0957 55.4583 24.0957V25.1914V33.4093H47.875H45.7083C43.6079 33.4093 42.671 33.4093 42.2531 33.875C41.9167 34.2499 41.9167 34.9268 41.9167 36.1486H40.2917H39.2083C39.0014 36.3578 38.7945 36.4872 38.6178 36.5976C38.3319 36.7764 38.125 36.9057 38.125 37.2443H37.5833L37.0417 37.7921ZM24.5833 42.7229C23.5 41.6271 22.9583 40.5314 22.9583 38.8879C22.9583 37.7921 23.5 36.6964 24.5833 36.1486C25.125 35.0529 26.75 34.505 27.8333 34.505C29.4583 34.505 30.5417 35.0529 31.0833 36.1486C31.625 36.1486 32.1667 36.6964 32.1667 37.2443C32.7083 37.7921 32.7083 38.8879 32.7083 39.4357C32.7083 40.5314 32.1667 41.6271 31.0833 42.7229C30.5417 43.8186 28.9167 43.8186 27.8333 43.8186H26.2083C25.9375 43.5446 25.6667 43.4077 25.3958 43.2707C25.125 43.1338 24.8542 42.9968 24.5833 42.7229ZM68.7292 43.2707C68.4583 43.1338 68.1875 42.9968 67.9167 42.7229C67.375 41.6271 66.8333 40.5314 66.8333 39.4357C66.8333 37.7921 67.375 36.6964 67.9167 36.1486C69 35.0529 70.0833 34.505 71.1667 34.505C72.7917 34.505 73.875 35.0529 74.9583 36.1486C74.9583 36.1486 75.5 36.6964 75.5 37.2443C76.0417 37.7921 76.0417 38.8879 76.0417 39.4357C76.0417 40.5314 75.5 41.6271 74.4167 42.7229C73.875 43.8186 72.7917 43.8186 71.1667 43.8186H69.5417C69.2708 43.5446 69 43.4077 68.7292 43.2707ZM78.2083 64.0893V48.2014C78.2083 47.6536 78.75 47.1057 79.2917 47.1057H79.8333H80.9167C81.4583 47.1057 81.4583 47.6536 81.4583 48.2014V66.2807C81.4583 66.8286 81.4583 67.3764 80.9167 67.3764V67.9243V69.02C81.4583 69.5679 81.4583 70.1157 81.4583 70.6636V75.0464C81.4583 76.1421 80.9167 76.69 80.9167 76.69C80.6871 76.69 80.5548 76.69 80.4373 76.7317C80.2777 76.7884 80.1454 76.9222 79.8333 77.2379C79.8333 77.2379 79.8333 76.69 79.2917 76.69L78.75 76.1421V73.9507V72.3071C78.75 70.1157 78.75 68.4721 77.125 68.4721H74.4167C72.25 68.4721 71.1667 68.4721 70.625 69.02C70.0833 69.5679 70.0833 70.1157 70.0833 71.7593V73.4029V73.9507V76.1421C69.7713 76.4578 69.639 76.5916 69.4793 76.6483C69.3619 76.69 69.2296 76.69 69 76.69C69 77.2379 68.4583 77.2379 68.4583 76.69H67.9167C67.375 76.69 67.375 76.1421 67.375 75.5943V70.1157V68.4721C67.9167 68.4721 67.9167 67.9243 67.9167 67.9243V67.3764H67.375C67.375 67.3764 66.8333 67.3764 66.8333 66.8286V65.7329C66.8333 65.7329 66.8333 65.185 67.375 65.185C67.375 64.6371 67.9167 64.6371 68.4583 64.6371H78.2083V64.0893ZM17.5417 66.2807V48.2014C17.5417 47.6536 18.0833 47.1057 18.625 47.1057H19.1667H19.7083C20.25 47.1057 20.7917 47.6536 20.7917 48.2014V64.0893V64.6371H21.3333H30.5417C31.1632 64.6371 31.4281 64.6371 31.6434 64.7406C31.8033 64.8175 31.9358 64.9514 32.1667 65.185V65.7329V66.8286C32.1667 67.1035 32.1667 67.2405 32.0982 67.3087C32.0302 67.3764 31.8948 67.3764 31.625 67.3764V67.9243V68.4721C31.625 68.7461 31.7604 69.02 31.8958 69.2939C32.0312 69.5679 32.1667 69.8418 32.1667 70.1157V75.5943C32.1667 76.1421 31.625 76.69 31.625 76.69C31.3954 76.69 31.2631 76.69 31.1457 76.7317C30.986 76.7884 30.8537 76.9222 30.5417 77.2379L30 76.69C30 76.69 29.4583 76.69 29.4583 76.1421V73.9507V73.4029V71.7593C29.4583 70.1157 29.4583 69.5679 28.375 69.02C27.8333 68.4721 26.75 68.4721 24.5833 68.4721H21.875C21.6042 68.4721 21.4688 68.6091 21.3333 68.7461C21.1979 68.883 21.0625 69.02 20.7917 69.02V70.6636V72.3071V73.4029V73.9507V76.1421C20.4796 76.4578 20.3473 76.5916 20.1877 76.6483C20.0702 76.69 19.9379 76.69 19.7083 76.69C19.7083 77.2379 19.1667 77.2379 19.1667 76.69H18.625C18.0833 76.69 18.0833 76.1421 18.0833 75.0464V73.9507C18.0833 73.394 18.0484 72.8373 18.014 72.2896C17.913 70.6813 17.8169 69.1503 18.625 67.9243V67.3764H18.0833C17.7724 67.062 17.64 66.928 17.5836 66.7673C17.5417 66.6481 17.5417 66.5141 17.5417 66.2807ZM51.125 29.0264C51.125 28.4786 50.5833 27.9307 49.5 27.9307H48.9583L48.4167 28.4786V29.5743V30.67C48.6865 30.67 48.8219 30.67 48.8899 30.7377C48.9583 30.8059 48.9583 30.9429 48.9583 31.2179H50.0417C50.5833 31.2179 51.125 30.67 51.125 30.1221L51.6667 29.5743C51.6667 29.0264 51.125 29.0264 51.125 29.0264ZM49.5 28.4786C50.0417 28.4786 50.5833 28.4786 50.5833 29.0264V29.5743C50.5833 30.1221 50.0417 30.67 50.0417 30.67C49.7719 30.67 49.6364 30.67 49.5685 30.6023C49.5 30.5341 49.5 30.3971 49.5 30.1221H48.9583V29.5743V29.0264V28.4786H49.5ZM46.7917 29.0264C46.7917 28.4786 46.25 27.9307 45.1667 27.9307H44.625L44.0833 28.4786V29.5743V30.67C44.3129 30.67 44.4452 30.67 44.5627 30.7117C44.7223 30.7684 44.8546 30.9022 45.1667 31.2179H45.7083C46.25 31.2179 46.7917 30.67 46.7917 30.1221C47.3333 30.1221 47.3333 29.5743 47.3333 29.5743C47.3333 29.2993 47.3333 29.1624 47.2649 29.0941C47.1969 29.0264 47.0615 29.0264 46.7917 29.0264ZM46.1866 28.604C46.25 28.6836 46.25 28.8137 46.25 29.0264C46.25 29.0264 46.7917 29.0264 46.7917 29.5743H46.25C46.25 30.1221 46.25 30.67 45.7083 30.67C45.7083 30.67 45.1667 30.67 45.1667 30.1221H44.625V29.5743V29.0264C44.625 29.0264 44.625 28.4786 45.1667 28.4786C45.8294 28.4786 46.0867 28.4786 46.1866 28.604ZM42.4583 29.0264C42.4583 28.4786 41.9167 27.9307 40.8333 27.9307C40.2917 27.9307 39.75 28.4786 39.75 29.0264V29.5743V30.1221C39.75 30.67 40.2917 31.2179 40.8333 31.2179C41.9167 31.2179 42.4583 30.67 42.4583 30.1221C43 30.1221 43 29.5743 43 29.5743C43 29.2993 43 29.1624 42.9315 29.0941C42.8636 29.0264 42.7281 29.0264 42.4583 29.0264ZM40.8333 28.4786C41.375 28.4786 41.9167 28.4786 41.9167 29.0264V29.5743C41.9167 30.1221 41.375 30.67 40.8333 30.67C40.8333 30.67 40.2917 30.1221 40.2917 29.5743V29.0264C40.2917 28.4786 40.8333 28.4786 40.8333 28.4786ZM56.5417 39.9836C56.5417 39.9836 56 40.5314 56 41.0793C56 41.6271 56.5417 42.175 56.5417 42.175L57.0833 42.7229H57.625C58.1667 42.7229 58.7083 42.7229 58.7083 42.175C59.25 42.175 59.25 41.6271 59.25 41.0793V40.5314V39.9836C58.9792 39.9836 58.7083 39.8466 58.4375 39.7096C58.1667 39.5727 57.8958 39.4357 57.625 39.4357C57.625 39.4357 57.0833 39.4357 56.5417 39.9836ZM57.0833 41.0793V40.5314L57.625 39.9836C57.8958 39.9836 58.0312 40.1205 58.1667 40.2575C58.3021 40.3945 58.4375 40.5314 58.7083 40.5314V41.0793V41.6271C58.3963 41.9428 58.264 42.0766 58.1043 42.1333C57.9869 42.175 57.8546 42.175 57.625 42.175C57.3552 42.175 57.2198 42.175 57.1518 42.1073C57.0833 42.0391 57.0833 41.9021 57.0833 41.6271V41.0793ZM52.2083 39.9836V41.0793V42.175C52.75 42.175 52.75 42.7229 52.75 42.7229H53.8333C53.8333 42.7229 54.375 42.7229 54.9167 42.175C54.9167 42.175 55.4583 41.6271 55.4583 41.0793L54.9167 40.5314V39.9836C54.375 39.9836 53.8333 39.4357 53.8333 39.4357C53.2917 39.4357 52.75 39.4357 52.2083 39.9836ZM52.75 41.0793V40.5314C53.0208 40.5314 53.1562 40.3945 53.2917 40.2575C53.4271 40.1205 53.5625 39.9836 53.8333 39.9836L54.375 40.5314V41.0793V41.6271L53.8333 42.175H53.2917C53.2917 42.175 52.75 42.175 52.75 41.6271V41.0793ZM47.6042 40.5314C47.4688 40.6684 47.3333 40.8054 47.3333 41.0793C47.3333 41.6271 47.875 42.175 47.875 42.175C48.4167 42.175 48.4167 42.7229 48.4167 42.7229H48.9583C49.5 42.7229 50.0417 42.7229 50.5833 42.175V41.0793V40.5314V39.9836C50.0417 39.4357 49.5 39.4357 48.9583 39.4357C48.9583 39.4357 48.4167 39.4357 47.875 39.9836C47.875 40.2575 47.7396 40.3945 47.6042 40.5314ZM48.4167 41.0793V40.5314C48.9583 40.5314 48.9583 39.9836 48.9583 39.9836C49.1879 39.9836 49.3202 39.9836 49.4377 40.0253C49.5973 40.082 49.7296 40.2158 50.0417 40.5314V41.0793V41.6271C49.7296 41.9428 49.5973 42.0766 49.4377 42.1333C49.3202 42.175 49.1879 42.175 48.9583 42.175C48.9583 42.175 48.4167 42.175 48.4167 41.6271V41.0793ZM22.4167 60.2543V48.2014V47.6536C22.7276 47.3391 22.86 47.2052 22.9164 47.0445C22.9583 46.9252 22.9583 46.7913 22.9583 46.5579C23.5 46.01 24.0417 45.4621 24.5833 45.4621C25.125 44.9143 25.6667 44.9143 26.2083 44.9143C29.2172 44.9143 29.9047 45.8535 31.2797 47.7318C31.3899 47.8823 31.5045 48.0389 31.625 48.2014C31.625 48.4754 31.7604 48.6123 31.8958 48.7493C32.0312 48.8862 32.1667 49.0232 32.1667 49.2971C34.875 52.5843 36.5 52.0364 38.125 51.4886C38.6667 50.9407 39.2083 50.9407 39.2083 50.9407C39.75 50.9407 40.2917 50.9407 40.8333 51.4886C41.375 51.4886 41.375 52.0364 41.375 52.5843C41.375 53.1321 41.375 53.68 40.8333 53.68C40.5213 53.9956 40.389 54.1294 40.2293 54.1861C40.1119 54.2279 39.9796 54.2279 39.75 54.2279C39.2083 54.7757 38.6667 54.7757 38.125 54.7757H36.5C34.3333 54.7757 33.25 54.2279 32.1667 53.68C31.625 53.68 31.625 53.1321 31.625 53.1321H31.0833V53.68V58.6107V59.1586H32.1667C34.875 59.1586 35.9583 59.1586 36.5 59.7064C37.0417 60.2543 37.5833 61.35 37.5833 63.5414C37.5833 64.0893 37.5833 65.185 38.125 65.7329V66.2807C38.125 67.4551 38.2806 69.4162 38.425 71.2364C38.55 72.8128 38.6667 74.2836 38.6667 75.0464C38.6667 75.5943 38.6667 76.1421 38.125 76.69H37.0417H35.9583C35.4167 76.1421 34.875 75.5943 34.875 75.0464L33.7917 63.5414H33.25H27.2917C26.75 63.5414 26.2083 63.5414 25.6667 62.9936C25.125 62.9936 24.5833 62.9936 24.0417 62.4457C23.7069 62.4457 23.579 62.2365 23.4023 61.9473C23.2931 61.7685 23.1652 61.5593 22.9583 61.35C22.9583 61.0761 22.8229 60.9391 22.6875 60.8021C22.5521 60.6652 22.4167 60.5282 22.4167 60.2543ZM58.1667 51.4886C58.7083 50.9407 59.25 50.9407 59.7917 50.9407C60.3333 50.9407 60.875 50.9407 60.875 51.4886C62.5 52.0364 64.125 52.5843 66.8333 49.2971C67.0402 49.0879 67.1681 48.8786 67.2773 48.6999C67.454 48.4107 67.5819 48.2014 67.9167 48.2014C69 46.01 70.0833 44.9143 72.7917 44.9143C73.875 44.9143 74.9583 45.4621 75.5 46.01C76.0417 46.5579 76.5833 47.1057 76.5833 48.2014V60.2543V60.8021L76.0417 61.35C76.0417 61.7152 75.5602 62.0805 75.0787 62.4457C74.838 62.6283 74.5972 62.811 74.4167 62.9936C74.1458 62.9936 73.7396 63.1305 73.3333 63.2675C72.9271 63.4045 72.5208 63.5414 72.25 63.5414H65.75L64.125 75.0464C64.125 75.5943 64.125 76.1421 63.5833 76.69H61.9583C61.7287 76.69 61.5965 76.69 61.479 76.6483C61.3194 76.5916 61.1871 76.4578 60.875 76.1421C60.875 76.1421 60.3333 75.5943 60.3333 75.0464C60.3333 73.4029 60.3333 72.3071 60.875 71.2114V70.1157C60.875 69.2939 61.0104 68.4721 61.1458 67.6504C61.2812 66.8286 61.4167 66.0068 61.4167 65.185C61.4167 62.4457 61.9583 60.8021 62.5 60.2543C63.0417 59.1586 64.125 59.1586 66.8333 59.1586H67.9167H68.4583V58.6107V53.68V53.1321H67.9167C67.375 53.1321 67.375 53.68 67.375 53.68C67.1042 53.68 66.8333 53.817 66.5625 53.9539C66.2917 54.0909 66.0208 54.2279 65.75 54.2279C64.6667 54.7757 63.5833 55.3236 62.5 54.7757C61.4167 54.7757 60.3333 54.7757 59.7917 54.2279H59.25C59.25 54.2279 58.7083 54.2279 58.1667 53.68V52.5843V51.4886Z" fill="#7A7A7A"/>
</svg>
