<svg width="100" height="100" viewBox="0 0 100 100" fill="none" xmlns="http://www.w3.org/2000/svg">
<path fill-rule="evenodd" clip-rule="evenodd" d="M28.7095 23.871H57.7418V41.2903H28.7095V23.871ZM30.6451 39.3548H55.8064V25.8065H30.6451V39.3548Z" fill="#7A7A7A"/>
<path d="M57.7418 43.2258H28.7095V45.1614H57.7418V43.2258Z" fill="#7A7A7A"/>
<path d="M28.7095 47.0968H57.7418V49.0323H28.7095V47.0968Z" fill="#7A7A7A"/>
<path d="M57.7421 50.9676H55.8065V52.9032H57.7421V50.9676Z" fill="#7A7A7A"/>
<path d="M51.9356 50.9676H53.8711V52.9032H51.9356V50.9676Z" fill="#7A7A7A"/>
<path d="M49.9999 50.9676H28.7095V52.9032H49.9999V50.9676Z" fill="#7A7A7A"/>
<path fill-rule="evenodd" clip-rule="evenodd" d="M72.2581 47.6639L74.9058 50.3116C78.1913 53.5961 80 57.9635 80 62.6087C80 70.8771 74.1954 77.8023 66.4516 79.5577V80H20V49.5355L24.8387 45.6635V20H61.6129V45.6636L66.4516 49.5355V53.4704L72.2581 47.6639ZM73.5375 51.68L72.2581 50.4006L66.8523 55.8065L68.3871 57.3413L73.7804 51.9471C73.7432 51.9082 73.708 51.868 73.6727 51.8277C73.629 51.7778 73.5851 51.7277 73.5375 51.68ZM70.2054 61.8964L66.4516 58.1425V67.0187L70.2054 63.2648C70.5829 62.8874 70.5829 62.2739 70.2054 61.8964ZM64.5161 68.9542V56.2071L64.1155 55.8065L64.5161 55.4059V51.8688L50.3939 61.8365L54.8164 65.1055L55.8064 64.1155L61.8964 70.2055C62.2748 70.584 62.8864 70.584 63.2648 70.2055L64.5161 68.9542ZM51.9481 73.7804L57.3413 68.3871L55.8064 66.8523L50.4006 72.2581L51.68 73.5375C51.7288 73.5862 51.78 73.6309 51.8312 73.6757C51.8705 73.7099 51.9099 73.7443 51.9481 73.7804ZM63.8735 49.9516L61.6129 48.1429V51.5474L63.8735 49.9516ZM26.7742 21.9355V52.9032H26.7596L37.6981 60.6248L43.2258 56.539L48.7535 60.6248L59.6919 52.9032H59.6775V21.9355H26.7742ZM24.8387 51.5474V48.1429L22.5781 49.9516L24.8387 51.5474ZM36.0578 61.8374L21.9355 51.8687V72.2755L36.0578 61.8374ZM21.9355 74.6812V78.0642H54.6394C53.064 77.2494 51.6017 76.1956 50.3117 74.9056L47.664 72.2579L53.4326 66.4892L43.2259 58.9447L21.9355 74.6812ZM65.3281 77.81L65.8371 77.72C72.8145 76.2306 78.0645 70.0235 78.0645 62.6087C78.0645 59.2583 76.9893 56.0793 75.0287 53.4364L69.7554 58.7096L71.5739 60.5281C72.7061 61.6604 72.7061 63.501 71.5739 64.6332L64.6332 71.5739C63.501 72.7061 61.6604 72.7061 60.5281 71.5739L58.7096 69.7554L53.4364 75.0287C56.0793 76.9893 59.2574 78.0645 62.6087 78.0645C63.0694 78.0645 63.5233 78.0354 63.9733 77.9958C64.401 77.9542 64.8394 77.8952 65.2961 77.8148C65.3014 77.8139 65.3068 77.8131 65.3121 77.8124C65.3174 77.8117 65.3228 77.811 65.3281 77.81Z" fill="#7A7A7A"/>
<path fill-rule="evenodd" clip-rule="evenodd" d="M100 50C100 77.6142 77.6142 100 50 100C22.3858 100 0 77.6142 0 50C0 22.3858 22.3858 0 50 0C77.6142 0 100 22.3858 100 50ZM98 50C98 76.5097 76.5097 98 50 98C23.4903 98 2 76.5097 2 50C2 23.4903 23.4903 2 50 2C76.5097 2 98 23.4903 98 50Z" fill="#7A7A7A"/>
</svg>
