<svg width="100" height="100" viewBox="0 0 100 100" fill="none" xmlns="http://www.w3.org/2000/svg">
<path id="Union" fill-rule="evenodd" clip-rule="evenodd" d="M98 50C98 76.5097 76.5097 98 50 98C23.4903 98 2 76.5097 2 50C2 23.4903 23.4903 2 50 2C76.5097 2 98 23.4903 98 50ZM100 50C100 77.6142 77.6142 100 50 100C22.3858 100 0 77.6142 0 50C0 22.3858 22.3858 0 50 0C77.6142 0 100 22.3858 100 50ZM25.3095 41.2181C24.1885 42.3368 22.9073 43.4555 21.7863 44.2546C21.9705 44.3648 22.1716 44.4244 22.372 44.4838C23.0434 44.6826 23.708 44.8794 23.708 46.9714V61.0352V79.7336H76.3947V61.3548V52.0855V47.4509C76.3947 45.6929 76.3947 44.8938 77.9961 44.4144C77.836 44.2546 77.6758 44.1347 77.5157 44.0149C77.3555 43.895 77.1954 43.7751 77.0352 43.6153C76.9318 43.4089 76.7616 43.2692 76.5678 43.11C76.4614 43.0227 76.348 42.9295 76.2345 42.8162L51.893 22.2001C51.2524 21.5608 50.6119 20.9216 49.9713 20.7618C49.1706 20.7618 48.3699 21.5608 48.0496 22.0403L31.3948 36.104L31.0746 36.4236L27.071 39.7798C26.7507 40.0195 26.4705 40.2592 26.1902 40.4989C25.91 40.7387 25.6297 40.9784 25.3095 41.2181ZM53.0292 55.8692C52.9761 55.775 52.9064 55.6513 52.8538 55.4417C52.6937 55.2818 52.4535 54.9222 52.2133 54.5627C51.9731 54.2031 51.7328 53.8435 51.5727 53.6837C51.2524 53.2043 50.7721 52.5651 50.2917 51.9258L50.2916 51.9257C49.4909 50.807 48.6501 49.6483 47.8094 48.4897C46.9686 47.331 46.1279 46.1724 45.3272 45.0537C44.5265 44.0948 42.925 43.2957 41.1635 43.4555C39.5621 43.6153 38.4411 44.734 37.6404 46.0126L31.555 54.6426C31.339 54.9299 31.1635 55.1446 31.0266 55.3121C30.5545 55.8896 30.542 55.905 30.9144 56.4005C31.4605 56.5368 31.6574 56.3246 31.9021 56.061C31.9444 56.0154 31.9882 55.9682 32.0354 55.9211C32.1955 55.4417 32.3557 55.2818 32.676 54.9622L35.3984 51.2865C36.3592 50.0079 37.1599 50.807 37.1599 51.4463V70.4643C37.1599 70.642 37.1559 70.9005 37.151 71.212C37.1252 72.8614 37.0761 75.9996 37.4802 76.5373C37.8005 77.1765 39.0816 77.3363 39.5621 76.5373C39.8141 76.16 39.7686 74.991 39.7378 74.1985C39.7295 73.9838 39.7222 73.7968 39.7222 73.6606V64.0717C39.7222 63.8992 39.7118 63.7164 39.7014 63.5316C39.6536 62.6891 39.6035 61.8055 40.5229 61.6744C40.6669 61.6744 40.8756 61.7067 41.1053 61.7423C41.3867 61.7858 41.6997 61.8343 41.9642 61.8343C42.1679 61.8343 42.3716 61.7768 42.563 61.7228C42.8232 61.6494 43.0608 61.5824 43.2453 61.6744C44.0106 61.8017 43.9632 62.6386 43.9122 63.5393C43.8992 63.7694 43.8859 64.0038 43.8859 64.2315C43.8859 64.4718 43.8814 64.9618 43.8755 65.6144C43.8458 68.8685 43.7793 76.1646 44.046 76.6971C44.4803 77.2171 44.9616 77.1261 45.439 77.0358C45.8419 76.9596 46.2419 76.8839 46.6083 77.1765C46.7684 77.4961 46.9286 78.1354 46.6083 78.455C45.9677 79.4139 42.2845 79.0943 42.1243 76.2176C41.9456 74.6121 42.0162 71.9114 42.0858 69.2546C42.1408 67.1512 42.1951 65.0752 42.1243 63.5922H41.4838V75.0989C41.4838 76.2176 41.4838 76.6971 41.0033 77.4961C39.7222 79.5737 36.6795 79.4139 35.7187 77.0167C35.3125 76.206 35.3642 70.1412 35.3899 67.1266C35.3946 66.5754 35.3984 66.1261 35.3984 65.8296C35.3984 64.5511 35.4162 63.2726 35.434 61.9941C35.4696 59.437 35.5051 56.88 35.3984 54.3229L34.918 54.9622C34.6938 55.2499 34.476 55.5567 34.2582 55.8636C33.387 57.0909 32.5158 58.3183 31.2347 58.3183C30.1137 58.3183 29.313 57.5192 28.9927 56.5604C28.7306 55.5139 29.2194 54.7887 29.6689 54.1217C29.7686 53.9738 29.8664 53.8287 29.9536 53.6837L36.6795 44.2546C37.9607 42.6564 39.8824 41.5377 42.1243 41.6975C45.1932 41.8434 46.5284 43.7193 47.712 45.3822C47.8255 45.5416 47.9375 45.699 48.0496 45.8527C48.2345 46.1111 48.6414 46.6677 49.1599 47.3769C50.8869 49.7391 53.8517 53.7944 53.9748 54.1631C54.6154 54.3229 55.5762 56.2407 54.135 57.6791C53.014 58.9576 51.0923 58.1585 50.772 57.3594C50.3921 57.0562 49.9042 56.3932 49.4278 55.746C48.8999 55.0289 48.3863 54.3311 48.0496 54.1631C48.0496 54.317 48.0615 54.5656 48.0761 54.8714C48.1373 56.1539 48.2465 58.4414 47.7293 58.9576C47.409 59.437 45.9677 59.5968 46.288 57.9987C46.4042 57.4191 46.3518 55.4942 46.3143 54.1146C46.3001 53.5922 46.288 53.148 46.288 52.8846C46.288 52.7924 46.2865 52.6943 46.285 52.5924C46.2705 51.6346 46.2511 50.3429 47.409 50.4874C47.7493 50.4874 47.9289 50.7278 48.1185 50.9817C48.1966 51.0863 48.2764 51.1932 48.3699 51.2865L51.893 56.0809C52.2133 56.4005 52.3734 56.5604 52.8538 56.5604C53.1767 56.1308 53.1379 56.062 53.0292 55.8692ZM41.3236 31.1497C39.2418 31.4694 37.4802 33.2273 37.6404 35.6246C37.9607 37.7022 39.8824 39.6199 42.2845 39.3003C44.3663 39.1405 46.1279 37.2227 45.9677 34.8255C45.6475 32.7479 43.7258 30.8301 41.3236 31.1497ZM35.8788 35.7844C35.5585 32.2684 38.2809 29.7114 41.3236 29.3918C44.5265 29.0721 47.409 31.6292 47.7293 34.6657C47.8894 38.0218 45.4873 40.8985 42.4446 41.0583C38.7614 41.3779 36.1991 38.8209 35.8788 35.7844ZM60.5406 76.6971H61.3413V73.0213C61.3413 72.8391 61.3329 72.6442 61.3242 72.4448C61.2795 71.4202 61.2297 70.2784 62.3022 70.1446C63.2286 70.1446 63.1707 71.4544 63.1227 72.5405C63.1126 72.7686 63.1029 72.9869 63.1029 73.1811V76.8569H63.9036C64.0112 75.998 63.9742 75.2112 63.9384 74.4481C63.9209 74.0753 63.9036 73.7081 63.9036 73.341C63.9036 73.2181 63.9017 73.0915 63.8997 72.9633C63.8839 71.9238 63.8665 70.7839 64.8645 70.7839C65.9775 70.7839 65.8758 72.4428 65.7713 74.148C65.7103 75.1416 65.6485 76.1509 65.8253 76.8569H67.1065C67.1065 76.1509 66.6724 73.4526 66.3796 71.6318C66.2746 70.9794 66.1878 70.4397 66.1456 70.1446C65.6652 67.1082 65.1848 66.6287 61.9819 66.4689C59.1241 66.3188 58.8092 68.2834 58.5161 70.1117C58.4971 70.23 58.4783 70.3477 58.4588 70.4643C58.2987 71.0236 58.1785 71.5431 58.0584 72.0625C57.9383 72.5818 57.8182 73.1012 57.6581 73.6606C57.6352 73.7519 57.6058 73.8661 57.5722 73.9965C57.3705 74.7793 57.0175 76.1491 57.0175 76.6971H58.9392V73.341C58.9392 73.1737 58.9295 72.987 58.9193 72.7927C58.8713 71.8731 58.8145 70.7839 59.7399 70.7839C60.7416 70.7839 60.7204 72.0598 60.7045 73.0156C60.7026 73.1295 60.7008 73.2388 60.7008 73.341C60.7008 74.4597 60.7008 75.7382 60.5406 76.6971ZM51.0923 76.6971H55.0958C55.256 75.898 55.4561 75.1389 55.6563 74.3797C55.8565 73.6206 56.0567 72.8615 56.2168 72.0624L57.3378 67.4278H48.0496L48.8503 74.9391C49.0104 76.5373 49.3307 76.6971 51.0923 76.6971ZM59.366 65.2505C59.75 65.0103 60.2285 64.7109 61.9819 64.7109V45.8527C61.9819 44.8938 61.9819 44.0948 62.9428 44.0948C63.7843 44.2347 63.766 44.9876 63.7484 45.7092C63.7459 45.8116 63.7435 45.9133 63.7435 46.0126V64.7109C67.4747 65.2626 67.8668 68.7895 68.213 71.9025C68.2679 72.397 68.3217 72.881 68.3876 73.341L68.868 76.2176C69.0282 77.4961 68.868 78.1354 67.9072 78.455C67.3912 78.7125 64.2781 78.6589 62.5005 78.6283C62.0711 78.6209 61.7196 78.6149 61.5015 78.6149C60.3597 78.6149 59.218 78.5734 58.0974 78.5327C57.0175 78.4935 55.9573 78.455 54.9357 78.455C54.5774 78.455 54.1229 78.471 53.6207 78.4887C51.8781 78.5501 49.5604 78.6317 48.6901 78.1354C47.1524 77.2984 47.0791 75.9742 46.9787 74.1629C46.9641 73.8992 46.9489 73.6252 46.9286 73.341C46.7684 72.3821 46.6884 71.3832 46.6083 70.3844C46.5282 69.3855 46.4482 68.3867 46.288 67.4278C45.974 67.393 45.6979 67.3885 45.4582 67.3846C44.598 67.3707 44.2062 67.3643 44.2062 65.9894C44.2062 60.7155 49.3307 57.9987 53.9748 58.9576C56.0567 59.2772 57.3378 60.2361 58.2987 61.3548C61.1812 64.0717 58.7791 65.3502 57.9784 63.9119C54.9357 57.9987 45.9677 60.5557 45.9677 65.6698C46.7684 65.5899 49.8512 65.5899 52.7938 65.5899C55.7364 65.5899 58.5389 65.5899 58.7791 65.51C59.0318 65.4595 59.1889 65.3613 59.366 65.2505ZM78.3973 46.1074C78.3008 46.1313 78.2179 46.1518 78.1562 46.1724C78.2632 53.0031 78.2273 59.8338 78.1916 66.6169C78.1739 69.9907 78.1562 73.3527 78.1562 76.6971C78.1562 79.8006 78.313 80.923 77.8506 81.3149C77.5034 81.6091 76.8073 81.4915 75.4338 81.4915H67.747H25.6297C25.4121 81.4915 25.137 81.5079 24.836 81.5259C23.808 81.5871 22.4782 81.6664 22.1066 81.1719C21.8381 80.77 21.9072 71.6085 21.9366 67.7143C21.9423 66.963 21.9465 66.4077 21.9465 66.1493C21.9465 64.0184 21.9287 61.8698 21.9109 59.7211C21.8753 55.4239 21.8397 51.1266 21.9465 46.9714C21.9465 46.3668 21.9823 46.1911 21.9184 46.14C21.8472 46.0831 21.6522 46.181 21.1458 46.0126C20.6653 45.8527 20.3451 45.3733 20.1849 45.0537C19.8646 44.4144 20.0248 43.935 20.1849 43.4555C20.4338 42.9588 24.6461 39.4715 27.0386 37.4908C27.7254 36.9221 28.2623 36.4777 28.5123 36.2638L34.5977 30.9899C35.7187 30.031 38.4411 27.7936 39.8824 26.6749C41.459 25.2225 43.495 23.4951 45.3641 21.9092C45.963 21.4011 46.5447 20.9075 47.0887 20.4421C48.2097 19.3234 49.3307 18.5243 51.0923 19.3234C51.9369 19.6044 56.7414 23.8372 58.7615 25.6169C59.0395 25.8617 59.2647 26.0602 59.4196 26.1955C59.5798 26.3553 59.78 26.5151 59.9801 26.6749C60.1803 26.8347 60.3805 26.9945 60.5406 27.1544L65.6652 31.4694C67.1065 32.7479 68.3876 33.8666 69.8289 34.9853C70.4694 35.6246 71.11 36.2638 71.9107 36.7433L77.9961 42.0172C78.0288 42.0416 78.0627 42.0669 78.0976 42.093C78.7485 42.5781 79.7658 43.3364 79.9178 44.0948C80.3365 45.6269 79.0522 45.9451 78.3973 46.1074Z" fill="#ffffff"/>
</svg>
