<svg width="20" height="20" viewBox="0 0 20 20" fill="none" xmlns="http://www.w3.org/2000/svg">
<g id="location-icon 1" clip-path="url(#clip0_114_273)">
<g id="Layer_x0020_1">
<path id="Vector" d="M10 9.90909C9.54545 9.90909 9.18182 9.72727 8.90909 9.45455C8.63636 9.18182 8.45455 8.72727 8.45455 8.27273C8.45455 7.81818 8.63636 7.45455 8.90909 7.18182C9.18182 6.81818 9.54545 6.63636 10 6.63636C10.4545 6.63636 10.9091 6.81818 11.1818 7.18182C11.4545 7.45455 11.6364 7.81818 11.6364 8.27273C11.6364 8.72727 11.4545 9.18182 11.1818 9.45455C10.9091 9.72727 10.4545 9.90909 10 9.90909ZM20 10C20 12.8182 18.9091 15.2727 17.0909 17.0909C15.2727 18.9091 12.8182 20 10 20C7.27273 20 4.72727 18.9091 2.90909 17.0909C1.09091 15.2727 0 12.8182 0 10C0 7.27273 1.09091 4.72727 2.90909 2.90909C4.72727 1.09091 7.27273 0 10 0C12.8182 0 15.2727 1.09091 17.0909 2.90909C18.9091 4.72727 20 7.27273 20 10ZM16.6364 16.6364C18.3636 14.9091 19.3636 12.6364 19.3636 10C19.3636 7.45455 18.3636 5.09091 16.6364 3.36364C14.9091 1.72727 12.6364 0.636364 10 0.636364C7.45455 0.636364 5.09091 1.72727 3.36364 3.36364C1.72727 5.09091 0.636364 7.45455 0.636364 10C0.636364 12.6364 1.72727 14.9091 3.36364 16.6364C5.09091 18.3636 7.45455 19.3636 10 19.3636C12.6364 19.3636 14.9091 18.3636 16.6364 16.6364ZM9.27273 9C9.45455 9.18182 9.72727 9.27273 10 9.27273C10.2727 9.27273 10.5455 9.18182 10.7273 9C10.9091 8.81818 11 8.54545 11 8.27273C11 8 10.9091 7.72727 10.7273 7.54545C10.5455 7.36364 10.2727 7.27273 10 7.27273C9.72727 7.27273 9.45455 7.36364 9.27273 7.54545C9.09091 7.72727 9 8 9 8.27273C9 8.54545 9.09091 8.81818 9.27273 9ZM10 5.27273C9.18182 5.27273 8.45455 5.54545 7.90909 6.18182C7.36364 6.72727 7 7.45455 7 8.27273C7 8.36364 7 8.45455 7 8.54545C7 8.63636 7 8.72727 7 8.72727V8.81818C7.09091 9.54545 7.45455 10.6364 8.09091 11.8182C8.63636 12.7273 9.27273 13.7273 10 14.5455C10.8182 13.4545 11.4545 12.5455 11.9091 11.6364C12.4545 10.7273 12.7273 9.90909 12.8182 9.45455V9.36364C12.9091 9.27273 13 9.09091 13 8.90909C13.0909 8.63636 13.0909 8.45455 13.0909 8.27273C13.0909 7.45455 12.7273 6.72727 12.1818 6.18182C11.6364 5.54545 10.8182 5.27273 10 5.27273ZM7.45455 5.72727C8.09091 5.09091 9 4.63636 10 4.63636C11 4.63636 11.9091 5.09091 12.6364 5.72727C13.2727 6.36364 13.6364 7.27273 13.6364 8.27273C13.6364 8.54545 13.6364 8.72727 13.5455 9C13.5455 9.18182 13.4545 9.36364 13.3636 9.63636C13.2727 10.0909 12.9091 10.9091 12.4545 11.9091C11.9091 12.9091 11.1818 14 10.1818 15.1818L10 15.3636L9.81818 15.1818C8.90909 14.2727 8.18182 13.1818 7.54545 12.0909C6.90909 10.9091 6.54545 9.72727 6.45455 8.81818C6.45455 8.72727 6.36364 8.63636 6.36364 8.54545C6.36364 8.45455 6.36364 8.36364 6.36364 8.27273C6.36364 7.27273 6.81818 6.36364 7.45455 5.72727Z" fill="#6B6767"/>
</g>
</g>
<defs>
<clipPath id="clip0_114_273">
<rect width="20" height="20.0001" fill="white"/>
</clipPath>
</defs>
</svg>
