<svg xmlns="http://www.w3.org/2000/svg" width="1000" height="1000" viewBox="0 0 1000 1000">
  <g id="Group_6" data-name="Group 6" transform="translate(-4324 -3840)">
    <g id="Layer_x0020_1" transform="translate(4534 4067.199)">
      <g id="_2258036207936" transform="translate(0 -0.006)">
        <path id="Path_17" data-name="Path 17" d="M5130.06,9828.74c-2.224,1.492-5.8,1.183-9.317,1.521-.2,2.533.113,4.307-.028,6.586l-1.295,5.095c1.379,7.74-4.841,16.409-8.3,21.138-4.194,5.771-8.866,9.542-16.016,12.976-15.284,7.29-33.354,4.813-46.076-3.124-3.687-1.154-6.53-2.843-9.738-4.193-5.376-2.225-5.658-.113-9.57,2.223-1.857,2.7-.028,1.323-3.124,2.055-1.717,3.293-13.482,12.441-16.86,13.82-2.2,5.235-14.917,3.124-21.56,3.068-8.388-.057-16.747.084-25.135.084-16.128,0-33.354-1.154-48.891,1.295a94.941,94.941,0,0,0-21.419,6.727c-7.515,3.322-11.653,7.178-17.732,10.668a4.1,4.1,0,0,1-1.661,1.8c-2.449,1.858-.45.592-2.42,1.183l-15.565,19.027.366-.085c-1.408,4.082-3.8,7.881-5.46,11.906-1.323,3.236-2.393,8.613-4.7,10.809-.282,7.459-6.84,19.393-8.5,28.033-1.97,14.721,3.884,26.908,16.184,33.889,2.562,1.436,2.393.873,4.278,2.787l4.982.619c31.665,1.914,68.34.338,100.54.338l200.122-.028c27.358-.169,75.32,2.843,99.1-2.646.844-.845,5.629-3.547,7.515-5.18a30.075,30.075,0,0,0,6.164-7.4c4.166-6.671,4.982-13.707,4.334-22.855-5.742-17.76-15.734-25.331-37.8-25.669-20.237-.338-40.84-1.886-60.965-2.449l-35.915-1.575-18.8-.789c-4.954-.056-9.908-.338-14.861-.507-2.618-.112-5.235-.056-7.825-.169-3.462-.168-3.434.311-5.545-1.125l-9.852.338-24.206-.845c-7.853-.253-5.883-.282-6.755-2.026-.845-3.575,1.886-4.673,4.082-6.586,2.477-2.14,3.208-3.406,5.854-4.392l4.222-4.9c3.462-3.912,9.879-9.373,14.439-13.51a16.745,16.745,0,0,1,6.755-5.432c.479-1.211-.169-.2.9-1.549l4.447-4.194c4.56-4.784,2.448-3.687,5.713-4.447,2.252-2.055,7.628-2.14,10.667-2.448,4.138-.479,7.459-.985,11.625-1.352,4.306-.929,11.624-2.308,16.1-1.238,3.012-1.857,36.506-5.235,40.081-5.713,28.231-3.8,56.94-.873,66.341-24.657,8.021-20.294-5.01-30.2-6.052-34.732-3.8-1.6-5.376-4.251-10.414-6.417a29.607,29.607,0,0,0-13.257-2.591C5199.84,9822.15,5140.62,9830.6,5130.06,9828.74Z" transform="translate(-4700.545 -9545.445)" fill="#05b6ff" fill-rule="evenodd"/>
        <path id="Path_18" data-name="Path 18" d="M5550.62,4765.17l-1.633,2.449c-1.52,3.519-3.434,6.3-4.869,10.021-1.014,2.646-1.8,7.965-3.547,9.907.422,5.46-1.717,14.552-2.73,19.2l-5.32,31.75c-.31,1.717-.562,3.6-.844,5.01l-1.632,4.447c.563,4.954-.816,11.568-2.252,16.325-.366,3.152-2.533,19.759-4.5,22.376.619,5.01-.816,11.456-2.139,16.269-.563,4-2.336,18.521-4.531,21.87,1.041,5.179-3.209,24.291-4.616,30.567l.479,2.787c4.926-4.109,12.216-10.048,18.942-12.75,4.729-3.884,28.456-13.51,36.337-12.019,1.154-.7-.507-.113,2.308-1.013l60.881-1.267c17.7-.141,20.716,2.392,28.484-4.307,18.577-15.987,7.093-4.757,13.088-18.661,3.575.422,21.138,8.472,26.57,10.921,2.814,1.267,6.3,2.533,8.528,4.644,3.209.141,13.426,4.672,16.156,6.5,11.118,1.576,11.54.9,21.251-1.914.731-1.238,6.164-4.757,8.247-7.233,13.933-16.522-.451-34.114-.957-36.337-2.983-1.436-2.449-1.661-5.489-3.631-.816-.535-1.632-.9-2.477-1.463l-1.83-1.379c-.112-.337-.422-.337-.591-.535-2.843-.028-33.382-13.4-35.577-15.34l-21.982-9.485c.591-3.377,1.07-9.007,3.125-11.062-.338-5.771,1.8-12.328,3.293-17.93,5.094,2,29.554,18.38,34,21.926,12.244,6.08,22.686,18.689,39.04,19.393l6.051.479c5.235-3.068,74.813-3.462,91.082-5.292,30.792-3.462,32.622-45.175,5.882-52.634l-4.841-1.379-16.071-.366c-2.421,1.773-54.576,3.35-65.075,3.828-11.878.507-10.048.422-18.07-4.7l-55.42-36.337-2.73-2.477c-3.237-.619-3.434-1.323-6.812-3.518-6.671-4.391-12.807-9.26-20.209-10.752-13.82-2.815-21.476,5.657-28.822,11.258a47.292,47.292,0,0,1-6.952,5.77c-2.814,2.758-8.275,7.6-11.851,9.373-12.272-8.669-22.939-25.022-39.912-30.876-10.217-.929-16.184.816-23.784,4.869C5556.3,4757.79,5554.22,4762.47,5550.62,4765.17Z" transform="translate(-5356.856 -4613.713)" fill="#05b6ff" fill-rule="evenodd"/>
        <path id="Path_19" data-name="Path 19" d="M8.388,16670.6c-3.575,15.311-8.36,21.277-8.388,39.121v38.676l.084,19c2.533,1.631,25.107,1.463,27.133-.17l.141-18.492c.028-15.227,4.7-23.361,20.463-23.5l88.07-.057c18.774-.141,20.491,9.936,21.785,22.6l17.423.254,9.6.057c1.013-11.342,2.618-18.465,12.356-21.785,7.093-2.42,151.428-.846,170.821-1.1,34-.424,26.739,16.635,27.612,42.643l.816.225,26.2.252c.507-9.6-3.04-28.99,3.856-34.309.732-4.674,6.22-7.207,10.78-8.221,5.207-1.152,51.9-.562,59.3-.562,39.518.029,54.013-6.529,56.518,22.715l8.725.084,18.6-.057.028-18.576V16709c.225-18.1-4.278-24.57-18.914-29.02l-19.956-.168H154.693c-16.381,0-15.9,2.787-32.4-13.734-11.343-11.4-17.057-8.924-36.731-8.924-15.115,0-30.342.113-45.428-.027C15.649,16656.9,18.408,16658.9,8.388,16670.6Z" transform="translate(0 -16188.089)" fill="#05b6ff" fill-rule="evenodd"/>
        <path id="Path_20" data-name="Path 20" d="M22.293,11678.7l-4.869,4.954c-7.346,8.838-12.131,17.2-14.861,31.468-.647,9.964-.844,17.169,1.689,26.289,2.28,8.189,5.235,11.765,8.191,18.295,4.475,3.8,6.5,8.134,12.159,12.666a49.852,49.852,0,0,0,7.431,5.15c2.2,1.238,6.164,2.42,8.247,4.335,10.977,2.814,15.2,4.334,28.034,3.827l8.247-.506c2.7-2.618,25.276-5.066,39.687-29.836,4.9-8.416,3.6-8.641,6.164-14.27,1.126-2.421.45-1.1,1.238-2.224l.732-11.6c.31-12.216-1.576-15.706-4.081-25.923-1.548-2.308-2.589-5.4-4.109-7.937-7.234-12.159-13.961-15.059-16.466-18.8-4.644-1.66-8.247-4.757-13.144-6.727a62.092,62.092,0,0,0-16.325-4.026C50.186,11660.3,33.27,11670,22.293,11678.7Z" transform="translate(-2.084 -11334.813)" fill="#05b6ff" fill-rule="evenodd"/>
        <path id="Path_21" data-name="Path 21" d="M7845.07,7.256c-.985,1.632-4.5,3.181-6.615,4.869-7.656,6.08-12.582,11.09-17.4,20.322-11.287,21.673-5.123,30.37-6.361,42.586,2.139,2.477,3.124,7.937,4.531,11.118,1.717,4.025,3.8,6.98,5.46,10.893,3.546,1.52.9-.113,1.436,2.28,1.52.76,9.26,8.782,16.381,13.792l2.9,2.364-.338-.253c7.684,2.449,11.4,4.869,20.688,6.586l2.618.394c19.956.591,21.166-2,36.619-6.783l-.057.366c1.239-1.661-.422-.084,2.14-2.139,3.321-2.646,8.106-5.151,11.99-9.288l4.616-4.56c.647-2.533-.563.2.731-1.8a8.04,8.04,0,0,1,1.633-1.83c4.362-9.542,8.021-13.538,9.767-26.289,2-14.946-.929-20.519-3.8-32.791-1.267-1.238-4.109-7.346-5.292-9.148a67.4,67.4,0,0,0-6.164-8.331c-2.787-3.124-14.749-11.315-15.565-12.5C7894.41,3.4,7888.87-.034,7875.04-.006,7860.27.05,7856.19,3.85,7845.07,7.256Z" transform="translate(-7594.171 0.006)" fill="#05b6ff" fill-rule="evenodd"/>
      </g>
    </g>
    <rect id="Rectangle_4" data-name="Rectangle 4" width="1000" height="1000" transform="translate(4324 3840)" fill="none"/>
  </g>
</svg>
